<?xml version="1.0" standalone="no"?>
<!DOCTYPE svg PUBLIC "-//W3C//DTD SVG 1.1//EN" "http://www.w3.org/Graphics/SVG/1.1/DTD/svg11.dtd" >
<svg xmlns="http://www.w3.org/2000/svg" xmlns:xlink="http://www.w3.org/1999/xlink" version="1.1">
<metadata>
Created by FontForge 20161013 at Wed Mar  4 14:07:11 2015
 By ,,,
Copyright (c) 2011 by Hannes von Doehren, Livius Dietzel. All rights reserved.
</metadata>
<defs>
<font id="BrixSlab-LightItalic" horiz-adv-x="560" >
  <font-face 
    font-family="Brix Slab Light"
    font-weight="300"
    font-style="italic"
    font-stretch="normal"
    units-per-em="1000"
    panose-1="2 0 0 0 0 0 0 0 0 0"
    ascent="720"
    descent="-280"
    x-height="456"
    cap-height="676"
    bbox="-214 -226 1015 1006"
    underline-thickness="50"
    underline-position="-200"
    slope="-10"
    unicode-range="U+0020-FB02"
  />
<missing-glyph horiz-adv-x="513" 
d="M50 0v656h413v-656h-413zM88 38h337v580h-337v-580z" />
    <glyph glyph-name="fi" unicode="fi" horiz-adv-x="582" 
d="M-99 -220l11 54q26 -4 43 -4q41 0 61 25.5t29 77.5l83 471h-86l10 52h86l16 94q12 74 48 115t106 41q25 0 53 -7l-11 -55q-22 6 -48 6q-42 0 -62 -24.5t-30 -78.5l-15 -91h306l-71 -403h96l-10 -53h-250l9 53h98l62 351h-250l-83 -474q-14 -81 -48.5 -118.5t-108.5 -37.5
q-14 0 -44 6zM490 580q-40 0 -40 36q0 28 15.5 42.5t40.5 14.5q17 0 28 -9.5t11 -28.5q0 -27 -16.5 -41t-38.5 -14z" />
    <glyph glyph-name="fl" unicode="fl" horiz-adv-x="536" 
d="M344 89l2 15l93 531q-41 17 -82 17q-72 0 -106.5 -33t-46.5 -99l-11 -64h133l-9 -52h-134l-81 -474q-14 -81 -48.5 -118.5t-108.5 -37.5q-12 0 -45 6l12 54q26 -4 43 -4q41 0 61 25.5t29 77.5l83 471h-69l9 52h70l11 66q32 184 216 184q68 0 136 -31l-99 -583
q-7 -43 34 -43q23 0 55 5l-9 -54q-32 -5 -60 -5q-47 0 -66.5 26t-11.5 68z" />
    <glyph glyph-name="f_f" unicode="ff" horiz-adv-x="610" 
d="M186 -220l11 54q26 -4 44 -4q40 0 60 25t30 78l83 471h-229l-83 -474q-14 -81 -48.5 -118.5t-106.5 -37.5q-14 0 -47 6l12 54q26 -4 43 -4q41 0 61 25.5t29 77.5l83 471h-86l9 52h87l16 94q12 74 47.5 115t105.5 41q26 0 54 -7l-11 -55q-22 6 -48 6q-42 0 -62 -24.5
t-30 -78.5l-16 -91h229l16 94q13 74 48.5 115t105.5 41q27 0 53 -7l-10 -55q-24 6 -48 6q-42 0 -62.5 -25t-29.5 -78l-16 -91h147l-10 -52h-147l-83 -474q-14 -81 -48 -118.5t-105 -37.5q-15 0 -48 6z" />
    <glyph glyph-name=".notdef" horiz-adv-x="513" 
d="M50 0v656h413v-656h-413zM88 38h337v580h-337v-580z" />
    <glyph glyph-name=".null" horiz-adv-x="0" 
 />
    <glyph glyph-name=".null" horiz-adv-x="0" 
 />
    <glyph glyph-name="nonmarkingreturn" horiz-adv-x="333" 
 />
    <glyph glyph-name="space" unicode=" " horiz-adv-x="200" 
 />
    <glyph glyph-name="exclam" unicode="!" horiz-adv-x="245" 
d="M133 205h-49l73 471h71zM73 -7q-19 0 -31 12t-12 30q0 24 18 41t42 17q19 0 30.5 -12t11.5 -30q0 -24 -17.5 -41t-41.5 -17z" />
    <glyph glyph-name="quotedbl" unicode="&#x22;" horiz-adv-x="331" 
d="M241 432l35 244h63l-53 -244h-45zM97 432l33 244h65l-53 -244h-45z" />
    <glyph glyph-name="numbersign" unicode="#" horiz-adv-x="599" 
d="M134 213h-98l14 54h103l53 167h-96l13 54h101l62 188h57l-62 -188h146l62 188h56l-60 -188h104l-13 -54h-110l-54 -167h104l-13 -54h-109l-69 -213h-57l70 213h-147l-69 -213h-57zM263 434l-54 -167h147l53 167h-146z" />
    <glyph glyph-name="dollar" unicode="$" 
d="M237 -103h-48l16 92q-100 5 -158 42l21 177h50l-5 -140q40 -22 101 -25l48 274l-22 11q-56 23 -85.5 59t-29.5 96q0 74 54 133.5t149 68.5l13 74h48l-13 -73q81 -4 151 -39l-29 -162h-49l10 126q-41 17 -93 20l-47 -267l24 -10q62 -24 93.5 -63.5t31.5 -104.5
q0 -75 -57.5 -131.5t-157.5 -64.5zM402 181q0 79 -95 117l-45 -254q61 8 100.5 45.5t39.5 91.5zM189 488q0 -75 85 -106l43 246q-58 -9 -93 -49.5t-35 -90.5z" />
    <glyph glyph-name="percent" unicode="%" horiz-adv-x="671" 
d="M630 676l-2 -7l-517 -669h-51l2 7l514 669h54zM256 686q58 0 86.5 -33.5t28.5 -86.5q0 -80 -43.5 -134t-124.5 -54q-56 0 -84.5 33.5t-28.5 86.5q0 79 44 133.5t122 54.5zM211 429q53 0 79.5 37t26.5 92q0 34 -17 55t-53 21q-52 0 -78 -36.5t-26 -91.5q0 -34 17 -55.5
t51 -21.5zM487 297q58 0 86.5 -33.5t28.5 -85.5q0 -80 -43.5 -134.5t-124.5 -54.5q-56 0 -84.5 34t-28.5 87q0 79 44 133t122 54zM442 41q54 0 80.5 36.5t26.5 91.5q0 35 -17 56t-53 21q-52 0 -78 -36.5t-26 -91.5q0 -35 16.5 -56t50.5 -21z" />
    <glyph glyph-name="ampersand" unicode="&#x26;" horiz-adv-x="622" 
d="M468 -11q-77 0 -84 72q-74 -72 -169 -72q-87 0 -133 43t-46 116q0 84 45.5 136.5t114.5 69.5q-37 11 -61.5 41.5t-24.5 80.5q0 96 58.5 153t169.5 57q82 0 149 -40l-31 -52q-57 37 -124 37q-78 0 -119 -40t-41 -110q0 -53 34 -79t92 -26h134l22 122l59 12l-24 -134h106
l-9 -53h-106l-36 -209q-5 -30 5 -50t40 -20q20 0 60 15l-3 -53q-39 -17 -78 -17zM227 45q87 0 159 72l37 206h-137q-98 0 -142 -45.5t-44 -122.5q0 -51 31 -80.5t96 -29.5z" />
    <glyph glyph-name="quotesingle" unicode="'" horiz-adv-x="186" 
d="M96 432l35 244h63l-53 -244h-45z" />
    <glyph glyph-name="parenleft" unicode="(" horiz-adv-x="261" 
d="M149 -206l-48 -16q-64 154 -64 322q0 104 16 189.5t51 160t69 126.5t91 127l44 -20q-54 -78 -85 -129.5t-63.5 -124t-47 -152.5t-14.5 -176q0 -156 51 -307z" />
    <glyph glyph-name="parenright" unicode=")" horiz-adv-x="262" 
d="M-57 -203q117 170 162.5 293.5t45.5 288.5q0 154 -52 308l49 16q64 -155 64 -321q0 -184 -52 -314t-175 -290z" />
    <glyph glyph-name="asterisk" unicode="*" horiz-adv-x="461" 
d="M144 338l-34 37l120 121l-135 39l29 53l131 -50l24 158h58l-35 -157l146 46l5 -56l-144 -35l69 -123l-52 -33l-63 130z" />
    <glyph glyph-name="plus" unicode="+" 
d="M53 242v57h194v198h59v-198h196v-57h-196v-198h-59v198h-194z" />
    <glyph glyph-name="comma" unicode="," horiz-adv-x="199" 
d="M107 94l-78 -208h-47l56 208h69z" />
    <glyph glyph-name="hyphen" unicode="-" 
d="M116 298h324v-57h-324v57z" />
    <glyph glyph-name="period" unicode="." horiz-adv-x="212" 
d="M61 -7q-19 0 -32 13t-13 31q0 24 17 40t41 16q19 0 31.5 -13t12.5 -31q0 -24 -16.5 -40t-40.5 -16z" />
    <glyph glyph-name="slash" unicode="/" horiz-adv-x="349" 
d="M372 676l-1 -11l-316 -665h-55l1 12l313 664h58z" />
    <glyph glyph-name="zero" unicode="0" horiz-adv-x="577" 
d="M127 209q0 -74 29 -119t88 -45q102 0 164 116.5t62 303.5q0 73 -29.5 119t-87.5 46q-54 0 -98 -37t-71.5 -97.5t-42 -134.5t-14.5 -152zM533 468q0 -211 -79 -345t-218 -134q-86 0 -129.5 62t-43.5 157q0 85 17 166.5t51 153t93.5 115t135.5 43.5q88 0 130.5 -61.5
t42.5 -156.5z" />
    <glyph glyph-name="one" unicode="1" horiz-adv-x="433" 
d="M1 0l10 56h164l97 554l-158 -57l-7 57l182 66h55l-110 -620h145l-10 -56h-368z" />
    <glyph glyph-name="two" unicode="2" horiz-adv-x="526" 
d="M443 148l-25 -148h-413l10 52q22 16 285 258q73 65 102.5 107.5t29.5 105.5q0 52 -30.5 80t-83.5 28q-71 0 -113 -48.5t-46 -119.5l-62 -4q4 100 65 163.5t161 63.5q84 0 128.5 -45t44.5 -113t-36.5 -122.5t-107.5 -119.5q-53 -48 -134 -122.5t-117 -107.5h274l16 92h52z
" />
    <glyph glyph-name="three" unicode="3" horiz-adv-x="537" 
d="M161 509h-50l17 116q91 61 186 61q86 0 130.5 -40.5t44.5 -112.5q0 -79 -43.5 -126t-102.5 -62q47 -10 76.5 -46t29.5 -95q0 -97 -64 -156t-188 -59q-59 0 -108.5 19.5t-78.5 52.5l38 50q55 -66 155 -66q95 0 138.5 43t43.5 114q0 110 -145 110h-70l10 57h66q80 0 130 39
t50 116q0 107 -117 107q-71 0 -133 -36z" />
    <glyph glyph-name="four" unicode="4" horiz-adv-x="541" 
d="M498 209l-10 -54h-106l-27 -155h-58l27 155h-320l9 50l319 369q23 27 42.5 52.5t27.5 37.5l8 12h64l-83 -467h107zM86 209h247l64 364z" />
    <glyph glyph-name="five" unicode="5" horiz-adv-x="525" 
d="M20 45l26 132h52l-18 -100q45 -32 121 -32q92 0 143.5 54.5t51.5 152.5q0 55 -30.5 87t-90.5 32q-79 0 -147 -44l-36 3l86 346h340l-9 -56h-289l-56 -231q47 38 126 38q84 0 126.5 -45t42.5 -127q0 -117 -70.5 -191.5t-187.5 -74.5q-116 0 -181 56z" />
    <glyph glyph-name="six" unicode="6" horiz-adv-x="557" 
d="M546 647l-30 -52q-59 36 -132 36q-57 0 -103.5 -26.5t-76 -71t-47.5 -98t-23 -112.5q23 48 76.5 81t114.5 33q84 0 125.5 -47t41.5 -127q0 -119 -65 -196.5t-180 -77.5q-92 0 -137 61.5t-45 175.5q0 63 9.5 124.5t33.5 123t60 108t94 75.5t131 29q90 0 153 -39zM250 45
q63 0 105.5 32t59 78t16.5 102q0 55 -28.5 88t-86.5 33q-60 0 -110 -36.5t-78 -88.5q-5 -55 2 -98.5t37 -76.5t83 -33z" />
    <glyph glyph-name="seven" unicode="7" horiz-adv-x="468" 
d="M79 0l350 623h-273l-22 -125h-56l31 178h410l-12 -49q-24 -26 -85 -135l-272 -492h-71z" />
    <glyph glyph-name="eight" unicode="8" horiz-adv-x="580" 
d="M539 531q0 -126 -137 -195q93 -46 93 -141q0 -93 -67 -149.5t-178 -56.5q-95 0 -149.5 42t-54.5 118q0 137 154 208q-78 40 -78 130q0 81 60 139.5t171 58.5q92 0 139 -43t47 -111zM248 336q-66 -35 -102.5 -74.5t-36.5 -103.5q0 -54 36 -84t107 -30q88 0 133.5 40
t45.5 105q0 78 -80 108zM349 359q128 61 128 165q0 49 -31 78t-97 29q-83 0 -123.5 -40.5t-40.5 -100.5q0 -67 68 -94z" />
    <glyph glyph-name="nine" unicode="9" horiz-adv-x="557" 
d="M31 28l31 52q59 -36 131 -36q76 0 132 46.5t84 113.5t35 148q-23 -48 -76.5 -81t-114.5 -33q-84 0 -125.5 47t-41.5 127q0 119 64.5 196.5t179.5 77.5q92 0 137.5 -61.5t45.5 -175.5q0 -63 -9.5 -124.5t-33.5 -123t-60.5 -108t-94.5 -75.5t-131 -29q-89 0 -153 39z
M328 630q-93 0 -137 -61.5t-44 -150.5q0 -54 28 -87.5t86 -33.5q61 0 110.5 36.5t78.5 88.5q5 55 -2 98.5t-37 76.5t-83 33z" />
    <glyph glyph-name="colon" unicode=":" horiz-adv-x="235" 
d="M68 -7q-19 0 -31 12t-12 30q0 24 18 41t42 17q19 0 30.5 -12t11.5 -30q0 -24 -17.5 -41t-41.5 -17zM134 366q-19 0 -30.5 11.5t-11.5 29.5q0 25 17.5 42t41.5 17q20 0 31.5 -12t11.5 -30q0 -24 -18 -41t-42 -17z" />
    <glyph glyph-name="semicolon" unicode=";" horiz-adv-x="226" 
d="M130 366q-19 0 -30.5 11.5t-11.5 29.5q0 25 17.5 42t41.5 17q19 0 30.5 -12t11.5 -30q0 -25 -17 -41.5t-42 -16.5zM120 94l-78 -208h-47l57 208h68z" />
    <glyph glyph-name="less" unicode="&#x3c;" 
d="M72 240v60l376 169v-59l-322 -140l322 -139v-60z" />
    <glyph glyph-name="equal" unicode="=" 
d="M88 411h376v-57h-376v57zM88 186h376v-57h-376v57z" />
    <glyph glyph-name="greater" unicode="&#x3e;" 
d="M481 300v-60l-377 -169v60l322 139l-322 140v59z" />
    <glyph glyph-name="question" unicode="?" horiz-adv-x="442" 
d="M144 510h-50l15 115q83 61 180 61q70 0 108.5 -38t38.5 -97q0 -145 -191 -225l-22 -121h-54l28 157q177 58 177 176q0 39 -24.5 65.5t-73.5 26.5q-61 0 -118 -35zM162 -7q-19 0 -30.5 12t-11.5 30q0 25 17.5 41.5t42.5 16.5q19 0 30.5 -12t11.5 -30q0 -24 -18 -41
t-42 -17z" />
    <glyph glyph-name="at" unicode="@" horiz-adv-x="870" 
d="M280 224q-12 -36 -16.5 -66.5t0.5 -57.5t26.5 -43t58.5 -16q78 0 151 71l85 243q-28 59 -103 59q-136 0 -202 -190zM498 61q-30 -30 -75 -51t-94 -21q-64 0 -96.5 36.5t-30.5 91t21 117.5q80 232 260 232q86 0 119 -66l18 56h55l-115 -331q-16 -43 -11 -65.5t34 -22.5
q79 0 135.5 96.5t56.5 217.5q0 111 -68 181.5t-205 70.5q-124 0 -218 -66t-140.5 -168.5t-46.5 -222.5q0 -127 68 -199.5t209 -72.5q96 0 198 41l5 -48q-100 -43 -212 -43q-162 0 -242 85t-80 230q0 140 54.5 256t162.5 187t250 71q156 0 236.5 -84.5t80.5 -213.5
q0 -155 -75.5 -260.5t-183.5 -105.5q-75 0 -70 72z" />
    <glyph glyph-name="A" unicode="A" horiz-adv-x="667" 
d="M396 0l10 54h92l-31 168h-280l-92 -168h94l-9 -54h-222l9 54h62l312 568h-59l10 54h228l-10 -54h-57l109 -568h61l-10 -54h-217zM213 277h248l-63 339z" />
    <glyph glyph-name="B" unicode="B" horiz-adv-x="601" 
d="M2 0l10 54h74l100 568h-74l9 54h265q77 0 118 -38t41 -100q0 -73 -38 -123t-96 -60q45 -9 76.5 -47t31.5 -94q0 -113 -69.5 -163.5t-183.5 -50.5h-264zM145 54h123q100 0 145 40.5t45 117.5q0 111 -145 111h-120zM202 377h114q166 0 166 153q0 92 -118 92h-119z" />
    <glyph glyph-name="C" unicode="C" horiz-adv-x="581" 
d="M545 439h-52l21 162q-53 28 -118 28q-91 0 -153.5 -58t-89 -143t-26.5 -189q0 -192 160 -192q101 0 194 66l12 -58q-99 -66 -216 -66q-214 0 -214 250q0 89 22 169t63 142.5t106 99t145 36.5q99 0 184 -48z" />
    <glyph glyph-name="D" unicode="D" horiz-adv-x="662" 
d="M87 54l100 568h-74l9 54h229q139 0 202.5 -62.5t63.5 -182.5q0 -205 -96 -318t-284 -113h-234l10 54h74zM146 54h100q148 0 228.5 96.5t80.5 280.5q0 95 -50 143t-159 48h-101z" />
    <glyph glyph-name="E" unicode="E" horiz-adv-x="565" 
d="M432 166h56l-29 -166h-456l10 54h74l100 568h-74l9 54h452l-27 -157h-57l18 103h-263l-43 -246h238l-10 -55h-237l-48 -267h267z" />
    <glyph glyph-name="F" unicode="F" horiz-adv-x="539" 
d="M3 0l10 54h73l100 568h-73l9 54h448l-28 -164h-57l19 110h-259l-48 -275h246l-10 -55h-246l-42 -238h107l-10 -54h-239z" />
    <glyph glyph-name="G" unicode="G" horiz-adv-x="637" 
d="M576 475h-51l15 133q-56 21 -134 21q-71 0 -126.5 -33t-88 -89t-48.5 -123t-16 -142q0 -94 42.5 -144.5t145.5 -50.5q96 0 160 30l33 188h-177l10 55h237l-49 -281q-98 -50 -223 -50q-243 0 -243 253q0 121 36.5 219.5t116.5 161.5t192 63q120 0 202 -36z" />
    <glyph glyph-name="H" unicode="H" horiz-adv-x="735" 
d="M525 622l9 54h213l-9 -54h-64l-100 -568h64l-10 -54h-213l10 54h90l49 275h-374l-49 -275h91l-10 -54h-214l10 54h64l100 568h-64l9 54h215l-10 -54h-91l-42 -237h374l42 237h-90z" />
    <glyph glyph-name="I" unicode="I" horiz-adv-x="318" 
d="M-2 0l9 54h84l100 568h-84l10 54h223l-9 -54h-81l-100 -568h81l-11 -54h-222z" />
    <glyph glyph-name="J" unicode="J" horiz-adv-x="295" 
d="M91 622l9 54h216l-9 -54h-64l-105 -596q-29 -170 -181 -252l-29 43q67 39 102 85.5t47 112.5l107 607h-93z" />
    <glyph glyph-name="K" unicode="K" horiz-adv-x="625" 
d="M229 353l276 269h-68l9 54h216l-9 -54h-72l-282 -271l199 -297h66l-9 -54h-218l10 54h81zM246 622l-100 -568h79l-9 -54h-214l9 54h76l100 568h-75l10 54h213l-10 -54h-79z" />
    <glyph glyph-name="L" unicode="L" horiz-adv-x="509" 
d="M410 192h55l-35 -192h-427l10 54h72l100 568h-72l9 54h220l-9 -54h-89l-100 -568h242z" />
    <glyph glyph-name="M" unicode="M" horiz-adv-x="898" 
d="M411 76l300 600h165l-9 -54h-75l-26 -568h72l-10 -54h-223l9 54h95l28 556l-308 -610h-62l-84 612l-174 -558h100l-10 -54h-223l9 54h66l180 568h-75l10 54h164z" />
    <glyph glyph-name="N" unicode="N" horiz-adv-x="726" 
d="M506 622l10 54h236l-9 -54h-71l-110 -622h-72l-251 599l-96 -545h109l-9 -54h-239l10 54h70l100 568h-70l9 54h148l246 -599l96 545h-107z" />
    <glyph glyph-name="O" unicode="O" horiz-adv-x="649" 
d="M125 219q0 -78 37.5 -126t114.5 -48q122 0 194.5 112t72.5 298q0 78 -38 126.5t-113 48.5q-87 0 -149.5 -61t-90.5 -152t-28 -198zM608 457q0 -208 -90.5 -338t-245.5 -130q-105 0 -158 64.5t-53 165.5q0 68 12 133t38.5 126t64.5 107t95 73.5t126 27.5q107 0 159 -64
t52 -165z" />
    <glyph glyph-name="P" unicode="P" horiz-adv-x="570" 
d="M245 622l-100 -568h121l-10 -54h-254l10 54h74l100 568h-74l10 54h267q90 0 134 -43t44 -121q0 -107 -60.5 -171.5t-188.5 -64.5h-73l10 55h75q175 0 175 181q0 110 -124 110h-136z" />
    <glyph glyph-name="Q" unicode="Q" horiz-adv-x="658" 
d="M421 97q23 -29 28 -53q-83 -55 -177 -55q-105 0 -158 64.5t-53 165.5q0 68 12 133t38.5 126t64.5 107t95 73.5t126 27.5q107 0 159 -64t52 -165q0 -201 -85 -328q31 -55 49 -129h-61q-81 259 -306 259q-31 0 -80 -7v-33q0 -78 37.5 -126t114.5 -48q81 0 144 52zM393 630
q-111 0 -178.5 -92.5t-84.5 -232.5q46 7 86 7q170 0 271 -129q57 108 57 272q0 78 -38 126.5t-113 48.5z" />
    <glyph glyph-name="R" unicode="R" horiz-adv-x="625" 
d="M87 54l100 568h-75l9 54h270q187 0 187 -156q0 -89 -52 -140t-146 -63q43 -36 73.5 -108.5t39.5 -154.5h82l-10 -54h-215l10 54h69q-6 76 -37 147.5t-81 110.5h-120l-46 -258h86l-10 -54h-218l10 54h74zM515 521q0 101 -128 101h-142l-45 -256h133q182 0 182 155z" />
    <glyph glyph-name="S" unicode="S" horiz-adv-x="526" 
d="M510 647l-29 -162h-49l10 126q-47 20 -112 20q-71 0 -114 -43t-43 -100q0 -39 20 -63t62 -42l72 -29q62 -24 93 -63.5t31 -104.5q0 -80 -65.5 -138.5t-176.5 -58.5q-112 0 -179 42l21 177h50l-5 -140q44 -25 122 -25q70 0 118.5 39.5t48.5 98.5q0 78 -85 114l-77 33
q-56 23 -85.5 59t-29.5 96q0 80 62 141.5t170 61.5q94 0 170 -39z" />
    <glyph glyph-name="T" unicode="T" horiz-adv-x="548" 
d="M100 676h488l-28 -161h-53l19 107h-165l-101 -568h96l-10 -54h-250l9 54h97l101 568h-160l-19 -107h-52z" />
    <glyph glyph-name="U" unicode="U" horiz-adv-x="679" 
d="M633 622l-66 -375q-44 -258 -270 -258q-111 0 -165.5 61.5t-30.5 196.5l66 375h-68l9 54h227l-10 -54h-100l-67 -379q-19 -110 19.5 -154t121.5 -44q174 0 209 198l67 379h-99l10 54h226l-10 -54h-69z" />
    <glyph glyph-name="V" unicode="V" horiz-adv-x="650" 
d="M478 622l10 54h227l-10 -54h-68l-324 -622h-81l-104 622h-64l9 54h220l-10 -54h-93l91 -566l287 566h-90z" />
    <glyph glyph-name="W" unicode="W" horiz-adv-x="953" 
d="M750 622l10 54h255l-10 -54h-69l-277 -622h-75l-75 463l-240 -463h-75l-61 622h-68l9 54h228l-10 -54h-100l50 -561l247 476l-20 139h64l94 -614l247 560h-124z" />
    <glyph glyph-name="X" unicode="X" horiz-adv-x="631" 
d="M92 622l9 54h219l-10 -54h-73l94 -230l174 230h-74l9 54h226l-10 -54h-79l-216 -272l133 -296h77l-10 -54h-217l9 54h74l-105 249l-188 -249h77l-10 -54h-226l9 54h76l232 296l-121 272h-79z" />
    <glyph glyph-name="Y" unicode="Y" horiz-adv-x="592" 
d="M64 622l10 54h211l-10 -54h-90l114 -295l221 295h-91l9 54h219l-9 -54h-59l-267 -348l-39 -220h92l-9 -54h-249l10 54h97l39 220l-139 348h-60z" />
    <glyph glyph-name="Z" unicode="Z" horiz-adv-x="552" 
d="M563 676l-9 -52l-465 -570h304l26 149h57l-36 -203h-441l10 52l465 570h-291l-21 -124h-56l31 178h426z" />
    <glyph glyph-name="bracketleft" unicode="[" horiz-adv-x="287" 
d="M156 696h177l-10 -54h-118l-141 -804h117l-9 -54h-176z" />
    <glyph glyph-name="backslash" unicode="\" horiz-adv-x="341" 
d="M110 665l2 11h58l81 -664l-3 -12h-55z" />
    <glyph glyph-name="bracketright" unicode="]" horiz-adv-x="288" 
d="M102 696h177l-161 -912h-177l10 54h117l142 804h-117z" />
    <glyph glyph-name="asciicircum" unicode="^" horiz-adv-x="630" 
d="M175 469l263 229l183 -229l-47 -40l-150 189l-216 -189z" />
    <glyph glyph-name="underscore" unicode="_" horiz-adv-x="508" 
d="M7 -31h388l-10 -49h-388z" />
    <glyph glyph-name="grave" unicode="`" horiz-adv-x="582" 
d="M343 696h66l48 -151h-55z" />
    <glyph glyph-name="a" unicode="a" horiz-adv-x="509" 
d="M384 408l31 48h31l-65 -370q-4 -19 2 -26.5t24 -7.5h32l-10 -51q-19 -4 -50 -4q-64 0 -55 68q-62 -76 -146 -76q-70 0 -106 43.5t-36 117.5q0 140 61.5 228t167.5 88q81 0 119 -58zM329 123l39 221q-29 67 -104 67q-45 0 -79.5 -25t-52.5 -64.5t-26.5 -81.5t-8.5 -84
q0 -112 96 -112q69 0 136 79z" />
    <glyph glyph-name="b" unicode="b" horiz-adv-x="509" 
d="M30 0l114 642h-69l11 54h124l-50 -288q58 58 139 58q156 0 156 -162q0 -142 -64 -228.5t-176 -86.5q-82 0 -123 60l-30 -49h-32zM148 344l-40 -230q32 -70 108 -70q48 0 83.5 23t55 61.5t29 81t9.5 88.5q0 113 -113 113q-72 0 -132 -67z" />
    <glyph glyph-name="c" unicode="c" horiz-adv-x="446" 
d="M386 283h-48l16 112q-43 19 -86 19q-78 0 -123 -71.5t-45 -175.5q0 -123 109 -123q31 0 71.5 15t70.5 36l10 -52q-76 -54 -168 -54q-79 0 -118 46.5t-39 126.5q0 130 62.5 217t173.5 87q80 0 146 -41z" />
    <glyph glyph-name="d" unicode="d" horiz-adv-x="526" 
d="M503 696l-113 -643h76l-10 -53h-67q-61 0 -50 59q-64 -70 -152 -70q-77 0 -114 43t-37 120q0 140 64 227t174 87q80 0 121 -58l41 234h-92l10 54h149zM343 114l41 230q-27 67 -110 67q-48 0 -84 -24t-55.5 -63t-28.5 -80t-9 -84q0 -116 105 -116q77 0 141 70z" />
    <glyph glyph-name="e" unicode="e" horiz-adv-x="469" 
d="M360 105l19 -47q-82 -69 -176 -69q-84 0 -126 44t-42 121q0 131 63.5 221.5t171.5 90.5q76 0 114.5 -42t38.5 -106q0 -50 -20 -108h-302q-5 -33 -5 -55q0 -52 27.5 -82.5t82.5 -30.5q75 0 154 63zM110 260h245q8 24 8 58q0 47 -25 72t-70 25q-119 0 -158 -155z" />
    <glyph glyph-name="f" unicode="f" horiz-adv-x="324" 
d="M-100 -220l12 54q26 -4 43 -4q41 0 61 25.5t29 77.5l83 471h-86l9 52h87l16 94q12 74 48 115t106 41q25 0 53 -7l-11 -55q-22 6 -48 6q-42 0 -62 -24.5t-30 -78.5l-16 -91h147l-9 -52h-147l-83 -474q-14 -81 -48.5 -118.5t-107.5 -37.5q-13 0 -46 6z" />
    <glyph glyph-name="g" unicode="g" horiz-adv-x="505" 
d="M456 456l-76 -435q-43 -247 -222 -247q-154 0 -154 115q0 25 5 46h56q-5 -25 -5 -36q0 -74 99 -74q68 0 106.5 47.5t58.5 147.5l9 45q-24 -31 -64.5 -53.5t-87.5 -22.5q-73 0 -109 42.5t-36 119.5q0 140 63.5 227.5t173.5 87.5q81 0 120 -58l32 48h31zM338 123l40 221
q-27 67 -107 67q-48 0 -83.5 -24.5t-54 -64.5t-27.5 -81.5t-9 -83.5q0 -113 103 -113q40 0 76.5 23.5t61.5 55.5z" />
    <glyph glyph-name="h" unicode="h" 
d="M117 53h80l-10 -53h-205l10 53h68l104 589h-69l10 54h125l-50 -283q67 53 146 53q87 0 121 -46t20 -128l-42 -239h81l-9 -53h-70q-69 0 -57 65l40 225q22 121 -99 121q-59 0 -141 -51z" />
    <glyph glyph-name="i" unicode="i" horiz-adv-x="296" 
d="M-12 0l10 53h91l62 350h-89l9 53h146l-71 -403h93l-9 -53h-242zM204 583q-39 0 -39 37q0 23 15 36.5t35 13.5q38 0 38 -39q0 -23 -15 -35.5t-34 -12.5z" />
    <glyph glyph-name="j" unicode="j" horiz-adv-x="245" 
d="M-36 -226l-19 49q50 20 73.5 50.5t36.5 100.5l75 429h-89l9 53h147l-86 -486q-14 -78 -47 -126.5t-100 -69.5zM177 583q-39 0 -39 37q0 23 15 36.5t35 13.5q38 0 38 -39q0 -23 -15 -35.5t-34 -12.5z" />
    <glyph glyph-name="k" unicode="k" horiz-adv-x="537" 
d="M60 53l103 589h-68l10 54h125l-84 -467l226 174h-76l10 53h212l-10 -53h-67l-177 -138l92 -147q29 -48 41 -56q12 -9 29 -9h51l-10 -53q-29 -3 -54 -3q-36 1 -57.5 21.5t-49.5 68.5l-88 146l-81 -63l-20 -117h69l-10 -53h-194l10 53h68z" />
    <glyph glyph-name="l" unicode="l" horiz-adv-x="247" 
d="M72 696h140l-107 -604q-7 -43 34 -43q23 0 55 5l-9 -54q-32 -5 -60 -5q-47 0 -66.5 26t-11.5 68l99 553h-84z" />
    <glyph glyph-name="m" unicode="m" horiz-adv-x="802" 
d="M129 53h70l-10 -53h-196l10 53h69l62 350h-69l10 53h109l3 -46q60 56 140 56q83 0 116 -64q61 64 144 64q79 0 107.5 -47.5t15.5 -121.5l-43 -244h81l-9 -53h-70q-69 0 -57 65l40 231q10 53 -9.5 84t-72.5 31q-65 0 -115 -52l-53 -306h81l-9 -53h-71q-69 0 -57 65l52 294
q-7 24 -32 38t-60 14q-67 0 -124 -53z" />
    <glyph glyph-name="n" unicode="n" horiz-adv-x="561" 
d="M-6 0l9 53h69l61 350h-67l10 53h108l4 -46q68 56 149 56q83 0 115 -46t18 -123l-43 -244h80l-10 -53h-69q-33 0 -47 17.5t-9 47.5l41 229q20 117 -92 117q-73 0 -139 -53l-53 -305h80l-10 -53h-205z" />
    <glyph glyph-name="o" unicode="o" horiz-adv-x="490" 
d="M272 466q82 0 123 -47t41 -126q0 -125 -63 -214.5t-174 -89.5q-81 0 -122 47t-41 126q0 127 62 215.5t174 88.5zM204 43q79 0 125 71t46 178q0 120 -107 120q-80 0 -125.5 -70.5t-45.5 -178.5q0 -120 107 -120z" />
    <glyph glyph-name="p" unicode="p" horiz-adv-x="527" 
d="M166 -216h-218l8 48l66 11l98 560h-68l10 53h113l-4 -53q57 63 147 63q79 0 117 -45.5t38 -126.5q0 -133 -63 -219t-176 -86q-85 0 -120 59l-37 -211h98zM166 342l-40 -230q27 -68 109 -68q48 0 84.5 23.5t55 61.5t27.5 78.5t9 81.5q0 122 -112 122q-76 0 -133 -69z" />
    <glyph glyph-name="q" unicode="q" horiz-adv-x="507" 
d="M407 -216h-213l9 53h91l37 209q-63 -57 -140 -57q-78 0 -116.5 45.5t-38.5 125.5q0 54 13.5 106t40.5 98t75 74t110 28q78 0 125 -59l31 80h34l-113 -645l62 -11zM341 110l42 234q-42 67 -109 67q-60 0 -101.5 -39.5t-58 -93t-16.5 -113.5q0 -121 108 -121q71 0 135 66z
" />
    <glyph glyph-name="r" unicode="r" horiz-adv-x="382" 
d="M65 403l9 53h122l-16 -91q23 42 63.5 71.5t82.5 29.5q39 0 67 -7l-20 -74l-66 21q-34 -3 -72 -31t-64 -71l-44 -251h108l-10 -53h-231l8 47l69 12l60 344h-66z" />
    <glyph glyph-name="s" unicode="s" horiz-adv-x="426" 
d="M315 322l7 64q-20 31 -83 31q-42 0 -74.5 -22.5t-32.5 -59.5q0 -39 55 -63l71 -32q48 -21 71 -46.5t23 -64.5q0 -68 -53.5 -104t-129.5 -36q-65 0 -109 23t-44 75q0 23 9 53h56l-5 -67q26 -36 100 -36q46 0 78.5 21t32.5 60q0 45 -62 72l-70 31q-87 38 -87 107
q0 63 53.5 100.5t123.5 37.5q63 0 98.5 -23t35.5 -67q0 -25 -10 -54h-54z" />
    <glyph glyph-name="t" unicode="t" horiz-adv-x="325" 
d="M150 572l60 12l-23 -128h130l-9 -53h-130l-50 -287q-7 -39 4.5 -55.5t43.5 -16.5q40 0 77 14l1 -52q-41 -17 -93 -17q-114 0 -91 127l51 287h-84l7 40l86 13z" />
    <glyph glyph-name="u" unicode="u" horiz-adv-x="541" 
d="M53 456h124l-52 -293q-11 -62 6.5 -90t68.5 -28q47 0 89 24t68 55l50 279h-79l10 53h135l-71 -403h74l-10 -53h-62q-60 0 -51 64q-69 -75 -166 -75q-149 0 -119 171l42 243h-67z" />
    <glyph glyph-name="v" unicode="v" horiz-adv-x="526" 
d="M331 403l10 53h205l-10 -53h-61l-228 -403h-65l-88 403h-60l10 53h200l-9 -53h-81l69 -343l189 343h-81z" />
    <glyph glyph-name="w" unicode="w" horiz-adv-x="762" 
d="M577 403l10 53h193l-10 -53h-59l-198 -403h-61q-21 162 -50 397q-15 -30 -193 -397h-58l-59 403h-56l9 53h187l-9 -53h-74l40 -333l188 386h66l50 -386l156 333h-72z" />
    <glyph glyph-name="x" unicode="x" horiz-adv-x="546" 
d="M483 53l-10 -53h-77q-24 0 -37 10.5t-26 33.5l-81 153l-124 -144h80l-9 -53h-214l10 53h70l164 183l-85 167h-90l10 53h80q27 0 38 -9.5t24 -35.5l71 -142l112 134h-79l9 53h214l-9 -53h-73l-150 -172l95 -178h87z" />
    <glyph glyph-name="y" unicode="y" horiz-adv-x="559" 
d="M-10 -215l8 45h105l112 184l-88 389h-94l9 53h155l-8 -49l66 -330l192 326h-120l9 53h243l-10 -53h-58l-342 -565q-38 -64 -104 -64q-46 0 -75 11z" />
    <glyph glyph-name="z" unicode="z" horiz-adv-x="436" 
d="M407 456l-8 -48l-317 -359h212l18 104h50l-27 -153h-336l8 48l319 359h-195l-16 -87h-49l23 136h318z" />
    <glyph glyph-name="braceleft" unicode="{" horiz-adv-x="281" 
d="M26 266q45 0 68 17t31 62l38 216q12 74 49 104.5t106 30.5l-9 -52q-39 -2 -59.5 -19t-28.5 -67l-38 -217q-15 -85 -89 -101q23 -4 42 -29t11 -73l-39 -218q-8 -49 5.5 -65.5t52.5 -18.5l-9 -52q-68 0 -94 30.5t-13 104.5l37 215q8 45 -11 62.5t-59 17.5z" />
    <glyph glyph-name="bar" unicode="|" horiz-adv-x="256" 
d="M145 -216h-47v912h47v-912z" />
    <glyph glyph-name="braceright" unicode="}" horiz-adv-x="281" 
d="M251 266l-9 -52q-41 0 -65.5 -17.5t-32.5 -62.5l-39 -215q-12 -74 -49.5 -104.5t-105.5 -30.5l9 52q39 2 59 18.5t28 65.5l39 218q9 48 36.5 73t52.5 29q-67 15 -53 101l38 217q9 50 -5 67t-53 19l9 52q69 0 95.5 -30.5t12.5 -104.5l-38 -216q-8 -45 9 -62t62 -17z" />
    <glyph glyph-name="asciitilde" unicode="~" horiz-adv-x="458" 
d="M401 296l-22 -55q-36 38 -68 38q-25 0 -85.5 -38t-95.5 -38q-23 0 -44.5 12t-30.5 25l18 58q31 -38 66 -38q29 0 87 38t94 38q44 0 81 -40z" />
    <glyph glyph-name="uni00A0" unicode="&#xa0;" horiz-adv-x="200" 
 />
    <glyph glyph-name="exclamdown" unicode="&#xa1;" horiz-adv-x="227" 
d="M86 254h47l-72 -471h-71zM146 466q18 0 30 -12t12 -29q0 -25 -17.5 -41.5t-42.5 -16.5q-19 0 -30.5 11.5t-11.5 29.5q0 25 17.5 41.5t42.5 16.5z" />
    <glyph glyph-name="cent" unicode="&#xa2;" 
d="M432 530l-30 -73q60 -14 96 -45l-28 -51q-37 33 -89 45l-148 -358q12 -4 37 -4q81 0 153 50l10 -51q-84 -54 -178 -54q-22 0 -44 5l-25 -62l-39 10l26 64q-88 42 -88 172q0 122 63.5 205t180.5 83q10 0 32 -2l31 76zM148 179q0 -83 48 -117l143 350q-101 -1 -146 -64.5
t-45 -168.5z" />
    <glyph glyph-name="sterling" unicode="&#xa3;" 
d="M65 291h67l28 155q19 108 77 174t159 66q100 0 168 -37l-38 -140h-45l18 104q-49 18 -107 18q-140 0 -173 -188l-27 -152h197l-9 -49h-197l-33 -189h299l-9 -53h-426l8 44l70 19l31 179h-67z" />
    <glyph glyph-name="currency" unicode="&#xa4;" 
d="M404 356q15 -33 15 -79q0 -51 -17 -84l80 -81l-41 -41l-79 76q-31 -25 -86 -25q-56 0 -87 24l-73 -72l-40 40l75 76q-18 36 -18 86q0 44 17 81l-77 78l41 41l73 -74q34 28 90 28t91 -28l74 72l39 -39zM277 176q87 0 87 100t-87 100q-88 0 -88 -99q0 -101 88 -101z" />
    <glyph glyph-name="yen" unicode="&#xa5;" 
d="M82 291h161l-34 87h-112l9 49h86l-74 195h-57l10 54h204l-9 -54h-86l104 -292l210 292h-87l9 54h210l-10 -54h-55l-146 -195h85l-8 -49h-113l-66 -87h163l-8 -49h-170l-32 -188h86l-9 -54h-237l9 54h92l33 188h-167z" />
    <glyph glyph-name="brokenbar" unicode="&#xa6;" horiz-adv-x="252" 
d="M143 306h-47v390h47v-390zM96 170h47v-386h-47v386z" />
    <glyph glyph-name="section" unicode="&#xa7;" horiz-adv-x="544" 
d="M480 281q0 -89 -102 -147q57 -39 57 -90q0 -71 -61.5 -115t-171.5 -44q-111 0 -187 53l21 122h46l-5 -91q49 -33 133 -33q70 0 114 23.5t44 71.5q0 10 -3 18.5t-11 16.5t-14 13.5t-20 13t-21 11t-25 12t-25 11.5l-73 34q-105 47 -105 125q0 42 27 80.5t71 63.5
q-52 39 -52 95q0 67 58 114t170 47q97 0 180 -43l-20 -111h-46l2 76q-55 26 -125 26q-74 0 -113.5 -26.5t-39.5 -70.5q0 -31 26.5 -51.5t78.5 -42.5l70 -29q122 -49 122 -133zM216 404q-37 -17 -58.5 -46t-21.5 -59q0 -28 17.5 -47.5t56.5 -36.5l120 -54q86 45 86 108
q0 33 -24 52.5t-70 38.5z" />
    <glyph glyph-name="dieresis" unicode="&#xa8;" horiz-adv-x="582" 
d="M305 570q-40 0 -40 36q0 28 15.5 42.5t40.5 14.5q17 0 28 -9.5t11 -28.5q0 -27 -16.5 -41t-38.5 -14zM476 570q-39 0 -39 36q0 28 15.5 42.5t40.5 14.5q16 0 27 -10t11 -28q0 -27 -16.5 -41t-38.5 -14z" />
    <glyph glyph-name="copyright" unicode="&#xa9;" horiz-adv-x="821" 
d="M75 338q0 158 98.5 255t248.5 97t248 -97t98 -255t-98 -256.5t-248 -98.5t-248.5 98.5t-98.5 256.5zM127 338q0 -139 82.5 -222.5t212.5 -83.5q129 0 211.5 83.5t82.5 222.5t-82 221t-212 82t-212.5 -82t-82.5 -221zM291 336q0 -159 123 -159q72 0 135 43l14 -48
q-74 -45 -150 -45q-177 0 -177 209q0 97 48 152.5t140 55.5q63 0 127 -31v-116h-47v80q-34 17 -80 17q-133 0 -133 -158z" />
    <glyph glyph-name="ordfeminine" unicode="&#xaa;" horiz-adv-x="365" 
d="M128 419q0 -34 40 -34q49 0 87 34l10 58h-45q-92 0 -92 -58zM170 585l-7 -43h-40l6 70q46 27 106 27q52 0 76 -21t16 -67l-24 -141q-4 -20 11 -20q13 0 22 3l-7 -43q-17 -3 -35 -3q-45 0 -42 38q-47 -42 -97 -42q-39 0 -59.5 17.5t-20.5 47.5q0 104 149 104h47l7 36
q4 24 -8.5 36.5t-41.5 12.5q-34 0 -58 -12z" />
    <glyph glyph-name="guillemotleft" unicode="&#xab;" horiz-adv-x="469" 
d="M42 270l201 207l33 -37l-158 -173l97 -172l-44 -32zM214 270l201 207l33 -37l-159 -173l98 -172l-45 -32z" />
    <glyph glyph-name="logicalnot" unicode="&#xac;" horiz-adv-x="630" 
d="M87 317v57h449v-244h-57v187h-392z" />
    <glyph glyph-name="uni00AD" unicode="&#xad;" 
d="M116 298h324v-57h-324v57z" />
    <glyph glyph-name="registered" unicode="&#xae;" horiz-adv-x="821" 
d="M75 338q0 158 98.5 255t248.5 97t248 -97t98 -255t-98 -256.5t-248 -98.5t-248.5 98.5t-98.5 256.5zM127 338q0 -139 82.5 -222.5t212.5 -83.5q129 0 211.5 83.5t82.5 222.5t-82 221t-212 82t-212.5 -82t-82.5 -221zM294 173v325h-50v42h191q147 0 147 -117
q0 -46 -27.5 -75.5t-77.5 -36.5l90 -138h48v-42h-154v42h52l-86 133h-83v-133h55v-42h-154v42h49zM530 422q0 76 -95 76h-91v-150h87q99 0 99 74z" />
    <glyph glyph-name="macron" unicode="&#xaf;" horiz-adv-x="582" 
d="M269 635h263l-9 -53h-263z" />
    <glyph glyph-name="degree" unicode="&#xb0;" horiz-adv-x="359" 
d="M91 524q0 69 44.5 115.5t110.5 46.5q53 0 84 -33t31 -82q0 -70 -45 -116.5t-113 -46.5q-51 0 -81.5 33.5t-30.5 82.5zM133 526q0 -35 20 -56t55 -21q49 0 79.5 33t30.5 85q0 35 -20 56.5t-55 21.5q-49 0 -79.5 -33.5t-30.5 -85.5z" />
    <glyph glyph-name="plusminus" unicode="&#xb1;" 
d="M51 373v57h194v198h59v-198h196v-57h-196v-186h-59v186h-194zM51 35v57h449v-57h-449z" />
    <glyph glyph-name="twosuperior" unicode="&#xb2;" horiz-adv-x="312" 
d="M162 672l-51 -4q-1 6 -1 13q0 47 37 79.5t93 32.5q50 0 76 -23t26 -60q0 -40 -21.5 -70t-64.5 -64l-112 -88h126l7 41h43l-15 -86h-239l7 39q7 5 122 97q58 48 75.5 69.5t17.5 54.5q0 46 -54 46q-34 0 -53.5 -19t-19.5 -49q0 -5 1 -9z" />
    <glyph glyph-name="threesuperior" unicode="&#xb3;" horiz-adv-x="306" 
d="M155 695h-39l8 66q49 32 108 32q52 0 77.5 -23t25.5 -58q0 -39 -22.5 -62.5t-55.5 -31.5q26 -6 42.5 -24t16.5 -47q0 -50 -36.5 -80t-105.5 -30q-74 0 -110 38l30 39q30 -32 84 -32q86 0 86 66q0 44 -74 44h-39l7 45h37q39 0 63 17t24 49q0 45 -57 45q-35 0 -63 -14z" />
    <glyph glyph-name="acute" unicode="&#xb4;" horiz-adv-x="582" 
d="M415 696h69l-111 -151h-60z" />
    <glyph glyph-name="mu" unicode="&#xb5;" horiz-adv-x="584" 
d="M90 -216h-57l109 619h-75l9 53h133l-52 -291q-11 -60 6.5 -90t76.5 -30q45 0 85.5 23t64.5 55l49 280h-94l9 53h152l-72 -403h69l-9 -53h-120l13 69q-76 -80 -165 -80q-64 0 -91 30z" />
    <glyph glyph-name="paragraph" unicode="&#xb6;" horiz-adv-x="495" 
d="M225 456h97l-90 -515h-55l41 228h-44q-61 0 -96.5 29.5t-35.5 86.5q0 77 47 124t136 47zM208 -226l-19 44q50 18 73.5 49t35.5 97l86 492h55l-86 -486q-13 -79 -44.5 -126.5t-100.5 -69.5z" />
    <glyph glyph-name="periodcentered" unicode="&#xb7;" horiz-adv-x="230" 
d="M106 219q-19 0 -32 13t-13 31q0 24 17 40t41 16q19 0 31.5 -13t12.5 -31q0 -24 -16.5 -40t-40.5 -16z" />
    <glyph glyph-name="cedilla" unicode="&#xb8;" horiz-adv-x="582" 
d="M271 0h45l-33 -60q12 4 27 4q23 0 38.5 -15.5t15.5 -39.5q0 -37 -28.5 -62t-80.5 -25q-43 0 -89 23l16 41q40 -25 78 -25q53 0 53 41q0 13 -9 21t-24 8q-16 0 -31 -5l-22 10z" />
    <glyph glyph-name="onesuperior" unicode="&#xb9;" horiz-adv-x="264" 
d="M62 443l8 45h91l43 249l-85 -30l-5 41l105 40h45l-52 -300h76l-8 -45h-218z" />
    <glyph glyph-name="ordmasculine" unicode="&#xba;" horiz-adv-x="363" 
d="M239 639q56 0 84.5 -32.5t28.5 -82.5q0 -79 -38.5 -130t-118.5 -51q-54 0 -82.5 32.5t-28.5 82.5q0 78 39 129.5t116 51.5zM200 388q101 0 101 134q0 72 -65 72q-101 0 -101 -132q0 -74 65 -74z" />
    <glyph glyph-name="guillemotright" unicode="&#xbb;" horiz-adv-x="470" 
d="M296 477l129 -207l-202 -207l-33 36l158 173l-97 173zM124 477l129 -207l-202 -207l-33 36l159 173l-98 173z" />
    <glyph glyph-name="onequarter" unicode="&#xbc;" horiz-adv-x="676" 
d="M609 116l-8 -42h-55l-14 -74h-49l12 74h-174l8 38l164 179l43 54h57l-40 -229h56zM389 115l114 1l27 154zM62 336l8 45h91l43 249l-85 -30l-5 41l105 40h45l-52 -300h76l-8 -45h-218zM659 676l-1 -7l-518 -669h-50l1 7l515 669h53z" />
    <glyph glyph-name="onehalf" unicode="&#xbd;" horiz-adv-x="681" 
d="M62 336l8 45h91l43 249l-85 -30l-5 41l105 40h45l-52 -300h76l-8 -45h-218zM448 229l-50 -4q-1 6 -1 13q0 46 37.5 79t93.5 33q50 0 75 -23.5t25 -59.5q0 -41 -25.5 -74t-83.5 -78q-15 -11 -36.5 -28.5t-35.5 -28.5t-17 -13h126l8 41h43l-16 -86h-239l7 39q21 14 122 97
q44 36 57.5 48.5t25 32t11.5 42.5q0 47 -54 47q-34 0 -53.5 -19t-19.5 -49v-9zM659 676l-1 -7l-518 -669h-50l1 7l515 669h53z" />
    <glyph glyph-name="threequarters" unicode="&#xbe;" horiz-adv-x="670" 
d="M155 588h-39l8 66q49 32 108 32q52 0 77.5 -23t25.5 -58q0 -39 -22.5 -62.5t-55.5 -31.5q26 -6 42.5 -24t16.5 -47q0 -50 -36.5 -80t-105.5 -30q-74 0 -110 38l30 39q30 -32 84 -32q86 0 86 66q0 44 -74 44h-39l7 45h37q39 0 63 17t24 49q0 45 -57 45q-35 0 -63 -14z
M653 676l-1 -7l-518 -669h-50l1 7l515 669h53zM609 116l-8 -42h-55l-14 -74h-49l12 74h-174l8 38l164 179l43 54h57l-40 -229h56zM389 115l114 1l27 154z" />
    <glyph glyph-name="questiondown" unicode="&#xbf;" horiz-adv-x="434" 
d="M278 -50h49l-14 -115q-83 -61 -180 -61q-70 0 -109 38t-39 97q0 144 192 225l21 121h55l-28 -157q-177 -58 -177 -176q0 -39 24.5 -65.5t72.5 -26.5q61 0 117 35zM259 466q19 0 30.5 -12t11.5 -29q0 -25 -17.5 -41.5t-42.5 -16.5q-19 0 -30.5 11.5t-11.5 29.5q0 24 18 41
t42 17z" />
    <glyph glyph-name="Agrave" unicode="&#xc0;" horiz-adv-x="667" 
d="M396 0l10 54h92l-31 168h-280l-92 -168h94l-9 -54h-222l9 54h62l312 568h-59l10 54h228l-10 -54h-57l109 -568h61l-10 -54h-217zM213 277h248l-63 339zM345 899h66l48 -151h-55z" />
    <glyph glyph-name="Aacute" unicode="&#xc1;" horiz-adv-x="667" 
d="M396 0l10 54h92l-31 168h-280l-92 -168h94l-9 -54h-222l9 54h62l312 568h-59l10 54h228l-10 -54h-57l109 -568h61l-10 -54h-217zM213 277h248l-63 339zM481 899h69l-111 -151h-60z" />
    <glyph glyph-name="Acircumflex" unicode="&#xc2;" horiz-adv-x="667" 
d="M396 0l10 54h92l-31 168h-280l-92 -168h94l-9 -54h-222l9 54h62l312 568h-59l10 54h228l-10 -54h-57l109 -568h61l-10 -54h-217zM213 277h248l-63 339zM406 899h73l64 -151h-55l-50 113l-92 -113h-61z" />
    <glyph glyph-name="Atilde" unicode="&#xc3;" horiz-adv-x="667" 
d="M396 0l10 54h92l-31 168h-280l-92 -168h94l-9 -54h-222l9 54h62l312 568h-59l10 54h228l-10 -54h-57l109 -568h61l-10 -54h-217zM213 277h248l-63 339zM565 828l-16 -50q-22 25 -53 25q-19 0 -64.5 -17t-74.5 -17q-40 0 -59 25l16 49q19 -24 51 -24q23 0 67 17.5t74 17.5
q35 0 59 -26z" />
    <glyph glyph-name="Adieresis" unicode="&#xc4;" horiz-adv-x="667" 
d="M396 0l10 54h92l-31 168h-280l-92 -168h94l-9 -54h-222l9 54h62l312 568h-59l10 54h228l-10 -54h-57l109 -568h61l-10 -54h-217zM213 277h248l-63 339zM339 773q-40 0 -40 36q0 28 15.5 42.5t40.5 14.5q17 0 28 -9.5t11 -28.5q0 -27 -16.5 -41t-38.5 -14zM510 773
q-39 0 -39 36q0 28 15.5 42.5t40.5 14.5q16 0 27 -10t11 -28q0 -27 -16.5 -41t-38.5 -14z" />
    <glyph glyph-name="Aring" unicode="&#xc5;" horiz-adv-x="667" 
d="M396 0l10 54h92l-31 168h-280l-92 -168h94l-9 -54h-222l9 54h62l312 568h-59l10 54h228l-10 -54h-57l109 -568h61l-10 -54h-217zM213 277h248l-63 339zM334 810q0 47 33 77.5t84 30.5q38 0 60.5 -21t22.5 -53q0 -47 -33.5 -78t-85.5 -31q-36 0 -58.5 21.5t-22.5 53.5z
M378 816q0 -43 45 -43q31 0 49 18t18 47q0 19 -12 31t-34 12q-29 0 -47.5 -18t-18.5 -47z" />
    <glyph glyph-name="AE" unicode="&#xc6;" horiz-adv-x="969" 
d="M289 277h241l61 339zM479 676h499l-27 -157h-57l18 103h-263l-42 -246h237l-9 -55h-238l-48 -267h267l20 112h56l-29 -166h-473l9 54h92l30 168h-280l-150 -168h92l-9 -54h-221l9 54h62l505 568h-59z" />
    <glyph glyph-name="Ccedilla" unicode="&#xc7;" horiz-adv-x="581" 
d="M545 439h-52l21 162q-53 28 -118 28q-91 0 -153.5 -58t-89 -143t-26.5 -189q0 -192 160 -192q101 0 194 66l12 -58q-84 -56 -183 -64l-28 -51q12 4 27 4q23 0 38.5 -15.5t15.5 -39.5q0 -37 -28 -62t-80 -25q-44 0 -90 23l16 41q40 -25 78 -25q53 0 53 41q0 13 -9 21
t-24 8q-17 0 -30 -5q-12 5 -23 10l39 74q-202 6 -202 249q0 89 22 169t63 142.5t106 99t145 36.5q99 0 184 -48z" />
    <glyph glyph-name="Egrave" unicode="&#xc8;" horiz-adv-x="565" 
d="M432 166h56l-29 -166h-456l10 54h74l100 568h-74l9 54h452l-27 -157h-57l18 103h-263l-43 -246h238l-10 -55h-237l-48 -267h267zM299 899h66l48 -151h-55z" />
    <glyph glyph-name="Eacute" unicode="&#xc9;" horiz-adv-x="565" 
d="M432 166h56l-29 -166h-456l10 54h74l100 568h-74l9 54h452l-27 -157h-57l18 103h-263l-43 -246h238l-10 -55h-237l-48 -267h267zM431 899h69l-111 -151h-60z" />
    <glyph glyph-name="Ecircumflex" unicode="&#xca;" horiz-adv-x="565" 
d="M432 166h56l-29 -166h-456l10 54h74l100 568h-74l9 54h452l-27 -157h-57l18 103h-263l-43 -246h238l-10 -55h-237l-48 -267h267zM371 899h73l64 -151h-55l-50 113l-92 -113h-61z" />
    <glyph glyph-name="Edieresis" unicode="&#xcb;" horiz-adv-x="565" 
d="M432 166h56l-29 -166h-456l10 54h74l100 568h-74l9 54h452l-27 -157h-57l18 103h-263l-43 -246h238l-10 -55h-237l-48 -267h267zM288 773q-40 0 -40 36q0 28 15.5 42.5t40.5 14.5q17 0 28 -9.5t11 -28.5q0 -27 -16.5 -41t-38.5 -14zM459 773q-39 0 -39 36q0 28 15.5 42.5
t40.5 14.5q16 0 27 -10t11 -28q0 -27 -16.5 -41t-38.5 -14z" />
    <glyph glyph-name="Igrave" unicode="&#xcc;" horiz-adv-x="318" 
d="M-2 0l9 54h84l100 568h-84l10 54h223l-9 -54h-81l-100 -568h81l-11 -54h-222zM155 899h66l48 -151h-55z" />
    <glyph glyph-name="Iacute" unicode="&#xcd;" horiz-adv-x="318" 
d="M-2 0l9 54h84l100 568h-84l10 54h223l-9 -54h-81l-100 -568h81l-11 -54h-222zM306 899h69l-111 -151h-60z" />
    <glyph glyph-name="Icircumflex" unicode="&#xce;" horiz-adv-x="318" 
d="M-2 0l9 54h84l100 568h-84l10 54h223l-9 -54h-81l-100 -568h81l-11 -54h-222zM229 899h73l64 -151h-55l-50 113l-92 -113h-61z" />
    <glyph glyph-name="Idieresis" unicode="&#xcf;" horiz-adv-x="318" 
d="M-2 0l9 54h84l100 568h-84l10 54h223l-9 -54h-81l-100 -568h81l-11 -54h-222zM156 773q-40 0 -40 36q0 28 15.5 42.5t40.5 14.5q17 0 28 -9.5t11 -28.5q0 -27 -16.5 -41t-38.5 -14zM327 773q-39 0 -39 36q0 28 15.5 42.5t40.5 14.5q16 0 27 -10t11 -28q0 -27 -16.5 -41
t-38.5 -14z" />
    <glyph glyph-name="Eth" unicode="&#xd0;" horiz-adv-x="673" 
d="M98 54l46 262h-74l8 47h75l45 259h-74l10 54h228q140 0 203.5 -62.5t63.5 -182.5q0 -205 -96.5 -318t-285.5 -113h-232l9 54h74zM157 54h100q148 0 229 96.5t81 280.5q0 95 -50.5 143t-159.5 48h-100l-46 -259h163l-8 -47h-163z" />
    <glyph glyph-name="Ntilde" unicode="&#xd1;" horiz-adv-x="726" 
d="M506 622l10 54h236l-9 -54h-71l-110 -622h-72l-251 599l-96 -545h109l-9 -54h-239l10 54h70l100 568h-70l9 54h148l246 -599l96 545h-107zM586 828l-16 -50q-22 25 -53 25q-19 0 -64.5 -17t-74.5 -17q-40 0 -59 25l16 49q19 -24 51 -24q23 0 67 17.5t74 17.5q35 0 59 -26
z" />
    <glyph glyph-name="Ograve" unicode="&#xd2;" horiz-adv-x="649" 
d="M125 219q0 -78 37.5 -126t114.5 -48q122 0 194.5 112t72.5 298q0 78 -38 126.5t-113 48.5q-87 0 -149.5 -61t-90.5 -152t-28 -198zM608 457q0 -208 -90.5 -338t-245.5 -130q-105 0 -158 64.5t-53 165.5q0 68 12 133t38.5 126t64.5 107t95 73.5t126 27.5q107 0 159 -64
t52 -165zM332 899h66l48 -151h-55z" />
    <glyph glyph-name="Oacute" unicode="&#xd3;" horiz-adv-x="649" 
d="M125 219q0 -78 37.5 -126t114.5 -48q122 0 194.5 112t72.5 298q0 78 -38 126.5t-113 48.5q-87 0 -149.5 -61t-90.5 -152t-28 -198zM608 457q0 -208 -90.5 -338t-245.5 -130q-105 0 -158 64.5t-53 165.5q0 68 12 133t38.5 126t64.5 107t95 73.5t126 27.5q107 0 159 -64
t52 -165zM467 899h69l-111 -151h-60z" />
    <glyph glyph-name="Ocircumflex" unicode="&#xd4;" horiz-adv-x="649" 
d="M125 219q0 -78 37.5 -126t114.5 -48q122 0 194.5 112t72.5 298q0 78 -38 126.5t-113 48.5q-87 0 -149.5 -61t-90.5 -152t-28 -198zM608 457q0 -208 -90.5 -338t-245.5 -130q-105 0 -158 64.5t-53 165.5q0 68 12 133t38.5 126t64.5 107t95 73.5t126 27.5q107 0 159 -64
t52 -165zM401 899h73l64 -151h-55l-50 113l-92 -113h-61z" />
    <glyph glyph-name="Otilde" unicode="&#xd5;" horiz-adv-x="649" 
d="M125 219q0 -78 37.5 -126t114.5 -48q122 0 194.5 112t72.5 298q0 78 -38 126.5t-113 48.5q-87 0 -149.5 -61t-90.5 -152t-28 -198zM608 457q0 -208 -90.5 -338t-245.5 -130q-105 0 -158 64.5t-53 165.5q0 68 12 133t38.5 126t64.5 107t95 73.5t126 27.5q107 0 159 -64
t52 -165zM547 828l-16 -50q-22 25 -53 25q-19 0 -64.5 -17t-74.5 -17q-40 0 -59 25l16 49q19 -24 51 -24q23 0 67 17.5t74 17.5q35 0 59 -26z" />
    <glyph glyph-name="Odieresis" unicode="&#xd6;" horiz-adv-x="649" 
d="M125 219q0 -78 37.5 -126t114.5 -48q122 0 194.5 112t72.5 298q0 78 -38 126.5t-113 48.5q-87 0 -149.5 -61t-90.5 -152t-28 -198zM608 457q0 -208 -90.5 -338t-245.5 -130q-105 0 -158 64.5t-53 165.5q0 68 12 133t38.5 126t64.5 107t95 73.5t126 27.5q107 0 159 -64
t52 -165zM325 773q-40 0 -40 36q0 28 15.5 42.5t40.5 14.5q17 0 28 -9.5t11 -28.5q0 -27 -16.5 -41t-38.5 -14zM496 773q-39 0 -39 36q0 28 15.5 42.5t40.5 14.5q16 0 27 -10t11 -28q0 -27 -16.5 -41t-38.5 -14z" />
    <glyph glyph-name="multiply" unicode="&#xd7;" 
d="M117 70l-40 41l159 157l-162 161l41 43l162 -162l160 160l41 -40l-161 -160l162 -162l-43 -41l-160 161z" />
    <glyph glyph-name="Oslash" unicode="&#xd8;" horiz-adv-x="649" 
d="M608 457q0 -208 -90.5 -338t-245.5 -130q-59 0 -107 25l-31 -52h-49l2 12l39 67q-65 62 -65 178q0 68 12 133t38.5 126t64.5 107t95 73.5t126 27.5q56 0 98 -20l24 40h53l-3 -11l-33 -55q72 -60 72 -183zM544 455q0 82 -43 126l-306 -516q34 -20 82 -20q122 0 194.5 112
t72.5 298zM125 219q0 -75 35 -120l304 515q-30 16 -71 16q-87 0 -149.5 -61t-90.5 -152t-28 -198z" />
    <glyph glyph-name="Ugrave" unicode="&#xd9;" horiz-adv-x="679" 
d="M633 622l-66 -375q-44 -258 -270 -258q-111 0 -165.5 61.5t-30.5 196.5l66 375h-68l9 54h227l-10 -54h-100l-67 -379q-19 -110 19.5 -154t121.5 -44q174 0 209 198l67 379h-99l10 54h226l-10 -54h-69zM337 899h66l48 -151h-55z" />
    <glyph glyph-name="Uacute" unicode="&#xda;" horiz-adv-x="679" 
d="M633 622l-66 -375q-44 -258 -270 -258q-111 0 -165.5 61.5t-30.5 196.5l66 375h-68l9 54h227l-10 -54h-100l-67 -379q-19 -110 19.5 -154t121.5 -44q174 0 209 198l67 379h-99l10 54h226l-10 -54h-69zM482 899h69l-111 -151h-60z" />
    <glyph glyph-name="Ucircumflex" unicode="&#xdb;" horiz-adv-x="679" 
d="M633 622l-66 -375q-44 -258 -270 -258q-111 0 -165.5 61.5t-30.5 196.5l66 375h-68l9 54h227l-10 -54h-100l-67 -379q-19 -110 19.5 -154t121.5 -44q174 0 209 198l67 379h-99l10 54h226l-10 -54h-69zM407 899h73l64 -151h-55l-50 113l-92 -113h-61z" />
    <glyph glyph-name="Udieresis" unicode="&#xdc;" horiz-adv-x="679" 
d="M633 622l-66 -375q-44 -258 -270 -258q-111 0 -165.5 61.5t-30.5 196.5l66 375h-68l9 54h227l-10 -54h-100l-67 -379q-19 -110 19.5 -154t121.5 -44q174 0 209 198l67 379h-99l10 54h226l-10 -54h-69zM338 773q-40 0 -40 36q0 28 15.5 42.5t40.5 14.5q17 0 28 -9.5
t11 -28.5q0 -27 -16.5 -41t-38.5 -14zM509 773q-39 0 -39 36q0 28 15.5 42.5t40.5 14.5q16 0 27 -10t11 -28q0 -27 -16.5 -41t-38.5 -14z" />
    <glyph glyph-name="Yacute" unicode="&#xdd;" horiz-adv-x="592" 
d="M64 622l10 54h211l-10 -54h-90l114 -295l221 295h-91l9 54h219l-9 -54h-59l-267 -348l-39 -220h92l-9 -54h-249l10 54h97l39 220l-139 348h-60zM440 899h69l-111 -151h-60z" />
    <glyph glyph-name="Thorn" unicode="&#xde;" horiz-adv-x="569" 
d="M186 622h-75l10 54h253l-9 -54h-121l-15 -88h131q92 0 137 -41.5t45 -115.5q0 -107 -59.5 -167.5t-184.5 -60.5h-137l-17 -95h121l-10 -54h-253l9 54h75zM480 374q0 106 -125 106h-135l-49 -277h136q97 0 135 46.5t38 124.5z" />
    <glyph glyph-name="germandbls" unicode="&#xdf;" horiz-adv-x="532" 
d="M178 130h45l5 -76q36 -15 70 -15q48 0 83 31t35 74q0 48 -48 84l-38 29q-58 46 -58 83q0 23 20 52t44 53.5t44 59t20 67.5q0 38 -25 59.5t-68 21.5q-106 0 -131 -148l-107 -615q-12 -65 -36 -90.5t-78 -25.5q-8 0 -38 6l11 54q16 -4 34 -4q23 0 34 14t17 47l106 612
q33 203 196 203q74 0 110.5 -38t36.5 -91q0 -38 -20 -76.5t-44.5 -64t-44.5 -51t-20 -41.5q0 -23 39 -52l36 -29q70 -53 70 -120q0 -65 -52.5 -109.5t-132.5 -44.5q-69 0 -125 32z" />
    <glyph glyph-name="agrave" unicode="&#xe0;" horiz-adv-x="509" 
d="M384 408l31 48h31l-65 -370q-4 -19 2 -26.5t24 -7.5h32l-10 -51q-19 -4 -50 -4q-64 0 -55 68q-62 -76 -146 -76q-70 0 -106 43.5t-36 117.5q0 140 61.5 228t167.5 88q81 0 119 -58zM329 123l39 221q-29 67 -104 67q-45 0 -79.5 -25t-52.5 -64.5t-26.5 -81.5t-8.5 -84
q0 -112 96 -112q69 0 136 79zM243 696h66l48 -151h-55z" />
    <glyph glyph-name="aacute" unicode="&#xe1;" horiz-adv-x="509" 
d="M384 408l31 48h31l-65 -370q-4 -19 2 -26.5t24 -7.5h32l-10 -51q-19 -4 -50 -4q-64 0 -55 68q-62 -76 -146 -76q-70 0 -106 43.5t-36 117.5q0 140 61.5 228t167.5 88q81 0 119 -58zM329 123l39 221q-29 67 -104 67q-45 0 -79.5 -25t-52.5 -64.5t-26.5 -81.5t-8.5 -84
q0 -112 96 -112q69 0 136 79zM366 696h69l-111 -151h-60z" />
    <glyph glyph-name="acircumflex" unicode="&#xe2;" horiz-adv-x="509" 
d="M384 408l31 48h31l-65 -370q-4 -19 2 -26.5t24 -7.5h32l-10 -51q-19 -4 -50 -4q-64 0 -55 68q-62 -76 -146 -76q-70 0 -106 43.5t-36 117.5q0 140 61.5 228t167.5 88q81 0 119 -58zM329 123l39 221q-29 67 -104 67q-45 0 -79.5 -25t-52.5 -64.5t-26.5 -81.5t-8.5 -84
q0 -112 96 -112q69 0 136 79zM289 696h73l64 -151h-55l-50 113l-92 -113h-61z" />
    <glyph glyph-name="atilde" unicode="&#xe3;" horiz-adv-x="509" 
d="M384 408l31 48h31l-65 -370q-4 -19 2 -26.5t24 -7.5h32l-10 -51q-19 -4 -50 -4q-64 0 -55 68q-62 -76 -146 -76q-70 0 -106 43.5t-36 117.5q0 140 61.5 228t167.5 88q81 0 119 -58zM329 123l39 221q-29 67 -104 67q-45 0 -79.5 -25t-52.5 -64.5t-26.5 -81.5t-8.5 -84
q0 -112 96 -112q69 0 136 79zM441 625l-16 -50q-22 25 -53 25q-19 0 -64.5 -17t-74.5 -17q-40 0 -59 25l16 49q19 -24 51 -24q23 0 67 17.5t74 17.5q35 0 59 -26z" />
    <glyph glyph-name="adieresis" unicode="&#xe4;" horiz-adv-x="509" 
d="M384 408l31 48h31l-65 -370q-4 -19 2 -26.5t24 -7.5h32l-10 -51q-19 -4 -50 -4q-64 0 -55 68q-62 -76 -146 -76q-70 0 -106 43.5t-36 117.5q0 140 61.5 228t167.5 88q81 0 119 -58zM329 123l39 221q-29 67 -104 67q-45 0 -79.5 -25t-52.5 -64.5t-26.5 -81.5t-8.5 -84
q0 -112 96 -112q69 0 136 79zM222 570q-40 0 -40 36q0 28 15.5 42.5t40.5 14.5q17 0 28 -9.5t11 -28.5q0 -27 -16.5 -41t-38.5 -14zM393 570q-39 0 -39 36q0 28 15.5 42.5t40.5 14.5q16 0 27 -10t11 -28q0 -27 -16.5 -41t-38.5 -14z" />
    <glyph glyph-name="aring" unicode="&#xe5;" horiz-adv-x="509" 
d="M384 408l31 48h31l-65 -370q-4 -19 2 -26.5t24 -7.5h32l-10 -51q-19 -4 -50 -4q-64 0 -55 68q-62 -76 -146 -76q-70 0 -106 43.5t-36 117.5q0 140 61.5 228t167.5 88q81 0 119 -58zM329 123l39 221q-29 67 -104 67q-45 0 -79.5 -25t-52.5 -64.5t-26.5 -81.5t-8.5 -84
q0 -112 96 -112q69 0 136 79zM217 607q0 47 33 77.5t84 30.5q38 0 60.5 -21t22.5 -53q0 -47 -33.5 -78t-85.5 -31q-36 0 -58.5 21.5t-22.5 53.5zM261 613q0 -43 45 -43q31 0 49 18t18 47q0 19 -12 31t-34 12q-29 0 -47.5 -18t-18.5 -47z" />
    <glyph glyph-name="ae" unicode="&#xe6;" horiz-adv-x="743" 
d="M485 42q76 0 155 55l12 -51q-80 -57 -180 -57q-56 0 -93.5 23t-48.5 64q-29 -37 -85 -62t-113 -25q-60 0 -90 26.5t-30 73.5q0 80 56.5 115.5t170.5 50.5l90 12l21 121q-33 25 -99 25q-67 0 -102 -25l-15 -85h-47q-3 13 -3 37q0 126 181 126q126 0 135 -66q52 66 153 66
q72 0 108 -42t36 -110q0 -40 -22 -104h-294q-29 -168 104 -168zM389 259h240q9 24 9 52q0 47 -23.5 75t-70.5 28q-117 0 -155 -155zM77 102q0 -61 72 -61q82 0 151 62l21 118l-87 -13q-83 -12 -120 -37.5t-37 -68.5z" />
    <glyph glyph-name="ccedilla" unicode="&#xe7;" horiz-adv-x="446" 
d="M386 283h-48l16 112q-43 19 -86 19q-78 0 -123 -71.5t-45 -175.5q0 -123 109 -123q31 0 71.5 15t70.5 36l10 -52q-60 -42 -133 -51l-28 -52q12 4 27 4q23 0 38.5 -15.5t15.5 -39.5q0 -37 -28.5 -62t-80.5 -25q-43 0 -89 23l16 41q40 -25 78 -25q53 0 53 41q0 13 -9 21
t-24 8q-16 0 -31 -5l-22 10l38 73q-73 4 -109.5 50t-36.5 123q0 130 62.5 217t173.5 87q80 0 146 -41z" />
    <glyph glyph-name="egrave" unicode="&#xe8;" horiz-adv-x="469" 
d="M360 105l19 -47q-82 -69 -176 -69q-84 0 -126 44t-42 121q0 131 63.5 221.5t171.5 90.5q76 0 114.5 -42t38.5 -106q0 -50 -20 -108h-302q-5 -33 -5 -55q0 -52 27.5 -82.5t82.5 -30.5q75 0 154 63zM110 260h245q8 24 8 58q0 47 -25 72t-70 25q-119 0 -158 -155zM222 696
h66l48 -151h-55z" />
    <glyph glyph-name="eacute" unicode="&#xe9;" horiz-adv-x="469" 
d="M360 105l19 -47q-82 -69 -176 -69q-84 0 -126 44t-42 121q0 131 63.5 221.5t171.5 90.5q76 0 114.5 -42t38.5 -106q0 -50 -20 -108h-302q-5 -33 -5 -55q0 -52 27.5 -82.5t82.5 -30.5q75 0 154 63zM110 260h245q8 24 8 58q0 47 -25 72t-70 25q-119 0 -158 -155zM347 696
h69l-111 -151h-60z" />
    <glyph glyph-name="ecircumflex" unicode="&#xea;" horiz-adv-x="469" 
d="M360 105l19 -47q-82 -69 -176 -69q-84 0 -126 44t-42 121q0 131 63.5 221.5t171.5 90.5q76 0 114.5 -42t38.5 -106q0 -50 -20 -108h-302q-5 -33 -5 -55q0 -52 27.5 -82.5t82.5 -30.5q75 0 154 63zM110 260h245q8 24 8 58q0 47 -25 72t-70 25q-119 0 -158 -155zM285 696
h73l64 -151h-55l-50 113l-92 -113h-61z" />
    <glyph glyph-name="edieresis" unicode="&#xeb;" horiz-adv-x="469" 
d="M360 105l19 -47q-82 -69 -176 -69q-84 0 -126 44t-42 121q0 131 63.5 221.5t171.5 90.5q76 0 114.5 -42t38.5 -106q0 -50 -20 -108h-302q-5 -33 -5 -55q0 -52 27.5 -82.5t82.5 -30.5q75 0 154 63zM110 260h245q8 24 8 58q0 47 -25 72t-70 25q-119 0 -158 -155zM214 570
q-40 0 -40 36q0 28 15.5 42.5t40.5 14.5q17 0 28 -9.5t11 -28.5q0 -27 -16.5 -41t-38.5 -14zM385 570q-39 0 -39 36q0 28 15.5 42.5t40.5 14.5q16 0 27 -10t11 -28q0 -27 -16.5 -41t-38.5 -14z" />
    <glyph glyph-name="igrave" unicode="&#xec;" horiz-adv-x="306" 
d="M-11 0l9 53h99l62 350h-99l10 53h154l-70 -403h95l-9 -53h-251zM124 696h66l48 -151h-55z" />
    <glyph glyph-name="iacute" unicode="&#xed;" horiz-adv-x="306" 
d="M-11 0l9 53h99l62 350h-99l10 53h154l-70 -403h95l-9 -53h-251zM273 696h69l-111 -151h-60z" />
    <glyph glyph-name="icircumflex" unicode="&#xee;" horiz-adv-x="306" 
d="M-11 0l9 53h99l62 350h-99l10 53h154l-70 -403h95l-9 -53h-251zM178 696h73l64 -151h-55l-50 113l-92 -113h-61z" />
    <glyph glyph-name="idieresis" unicode="&#xef;" horiz-adv-x="306" 
d="M-11 0l9 53h99l62 350h-99l10 53h154l-70 -403h95l-9 -53h-251zM111 570q-40 0 -40 36q0 28 15.5 42.5t40.5 14.5q17 0 28 -9.5t11 -28.5q0 -27 -16.5 -41t-38.5 -14zM282 570q-39 0 -39 36q0 28 15.5 42.5t40.5 14.5q16 0 27 -10t11 -28q0 -27 -16.5 -41t-38.5 -14z" />
    <glyph glyph-name="eth" unicode="&#xf0;" horiz-adv-x="503" 
d="M277 542l82 42q-28 67 -74 112h76q30 -30 52 -87l56 27l15 -40l-56 -28q20 -73 20 -141q0 -79 -12.5 -151t-40 -139.5t-80.5 -107.5t-125 -40q-75 0 -113.5 49.5t-38.5 131.5q0 114 54.5 195.5t154.5 81.5q52 0 87 -32t50 -79q5 62 5 94q0 58 -15 113l-84 -42zM198 45
q72 0 111 56.5t62 159.5q-31 127 -125 127q-74 0 -111.5 -64t-37.5 -151q0 -56 25 -92t76 -36z" />
    <glyph glyph-name="ntilde" unicode="&#xf1;" horiz-adv-x="561" 
d="M-6 0l9 53h69l61 350h-67l10 53h108l4 -46q68 56 149 56q83 0 115 -46t18 -123l-43 -244h80l-10 -53h-69q-33 0 -47 17.5t-9 47.5l41 229q20 117 -92 117q-73 0 -139 -53l-53 -305h80l-10 -53h-205zM466 625l-16 -50q-22 25 -53 25q-19 0 -64.5 -17t-74.5 -17
q-40 0 -59 25l16 49q19 -24 51 -24q23 0 67 17.5t74 17.5q35 0 59 -26z" />
    <glyph glyph-name="ograve" unicode="&#xf2;" horiz-adv-x="490" 
d="M272 466q82 0 123 -47t41 -126q0 -125 -63 -214.5t-174 -89.5q-81 0 -122 47t-41 126q0 127 62 215.5t174 88.5zM204 43q79 0 125 71t46 178q0 120 -107 120q-80 0 -125.5 -70.5t-45.5 -178.5q0 -120 107 -120zM220 696h66l48 -151h-55z" />
    <glyph glyph-name="oacute" unicode="&#xf3;" horiz-adv-x="490" 
d="M272 466q82 0 123 -47t41 -126q0 -125 -63 -214.5t-174 -89.5q-81 0 -122 47t-41 126q0 127 62 215.5t174 88.5zM204 43q79 0 125 71t46 178q0 120 -107 120q-80 0 -125.5 -70.5t-45.5 -178.5q0 -120 107 -120zM360 696h69l-111 -151h-60z" />
    <glyph glyph-name="ocircumflex" unicode="&#xf4;" horiz-adv-x="490" 
d="M272 466q82 0 123 -47t41 -126q0 -125 -63 -214.5t-174 -89.5q-81 0 -122 47t-41 126q0 127 62 215.5t174 88.5zM204 43q79 0 125 71t46 178q0 120 -107 120q-80 0 -125.5 -70.5t-45.5 -178.5q0 -120 107 -120zM291 696h73l64 -151h-55l-50 113l-92 -113h-61z" />
    <glyph glyph-name="otilde" unicode="&#xf5;" horiz-adv-x="490" 
d="M272 466q82 0 123 -47t41 -126q0 -125 -63 -214.5t-174 -89.5q-81 0 -122 47t-41 126q0 127 62 215.5t174 88.5zM204 43q79 0 125 71t46 178q0 120 -107 120q-80 0 -125.5 -70.5t-45.5 -178.5q0 -120 107 -120zM447 625l-16 -50q-22 25 -53 25q-19 0 -64.5 -17t-74.5 -17
q-40 0 -59 25l16 49q19 -24 51 -24q23 0 67 17.5t74 17.5q35 0 59 -26z" />
    <glyph glyph-name="odieresis" unicode="&#xf6;" horiz-adv-x="490" 
d="M272 466q82 0 123 -47t41 -126q0 -125 -63 -214.5t-174 -89.5q-81 0 -122 47t-41 126q0 127 62 215.5t174 88.5zM204 43q79 0 125 71t46 178q0 120 -107 120q-80 0 -125.5 -70.5t-45.5 -178.5q0 -120 107 -120zM221 570q-40 0 -40 36q0 28 15.5 42.5t40.5 14.5
q17 0 28 -9.5t11 -28.5q0 -27 -16.5 -41t-38.5 -14zM392 570q-39 0 -39 36q0 28 15.5 42.5t40.5 14.5q16 0 27 -10t11 -28q0 -27 -16.5 -41t-38.5 -14z" />
    <glyph glyph-name="divide" unicode="&#xf7;" 
d="M54 242v57h449v-57h-449zM281 41q-22 0 -36.5 14t-14.5 35q0 22 14.5 36t36.5 14t36.5 -14t14.5 -36q0 -21 -14.5 -35t-36.5 -14zM281 397q-22 0 -36.5 14t-14.5 36t14.5 36t36.5 14t36.5 -14t14.5 -36t-14.5 -36t-36.5 -14z" />
    <glyph glyph-name="oslash" unicode="&#xf8;" horiz-adv-x="490" 
d="M272 466q31 0 58 -8l31 61h47l-2 -11l-35 -69q65 -44 65 -146q0 -125 -63 -214.5t-174 -89.5q-29 0 -56 8l-30 -61h-44l3 12l32 65q-68 42 -68 149q0 127 62 215.5t174 88.5zM204 43q79 0 125 71t46 178q0 64 -36 91l-168 -336q12 -4 33 -4zM97 163q0 -67 39 -93l166 338
q-20 4 -34 4q-80 0 -125.5 -70.5t-45.5 -178.5z" />
    <glyph glyph-name="ugrave" unicode="&#xf9;" horiz-adv-x="541" 
d="M53 456h124l-52 -293q-11 -62 6.5 -90t68.5 -28q47 0 89 24t68 55l50 279h-79l10 53h135l-71 -403h74l-10 -53h-62q-60 0 -51 64q-69 -75 -166 -75q-149 0 -119 171l42 243h-67zM204 696h66l48 -151h-55z" />
    <glyph glyph-name="uacute" unicode="&#xfa;" horiz-adv-x="541" 
d="M53 456h124l-52 -293q-11 -62 6.5 -90t68.5 -28q47 0 89 24t68 55l50 279h-79l10 53h135l-71 -403h74l-10 -53h-62q-60 0 -51 64q-69 -75 -166 -75q-149 0 -119 171l42 243h-67zM357 696h69l-111 -151h-60z" />
    <glyph glyph-name="ucircumflex" unicode="&#xfb;" horiz-adv-x="541" 
d="M53 456h124l-52 -293q-11 -62 6.5 -90t68.5 -28q47 0 89 24t68 55l50 279h-79l10 53h135l-71 -403h74l-10 -53h-62q-60 0 -51 64q-69 -75 -166 -75q-149 0 -119 171l42 243h-67zM291 696h73l64 -151h-55l-50 113l-92 -113h-61z" />
    <glyph glyph-name="udieresis" unicode="&#xfc;" horiz-adv-x="541" 
d="M53 456h124l-52 -293q-11 -62 6.5 -90t68.5 -28q47 0 89 24t68 55l50 279h-79l10 53h135l-71 -403h74l-10 -53h-62q-60 0 -51 64q-69 -75 -166 -75q-149 0 -119 171l42 243h-67zM220 570q-40 0 -40 36q0 28 15.5 42.5t40.5 14.5q17 0 28 -9.5t11 -28.5q0 -27 -16.5 -41
t-38.5 -14zM391 570q-39 0 -39 36q0 28 15.5 42.5t40.5 14.5q16 0 27 -10t11 -28q0 -27 -16.5 -41t-38.5 -14z" />
    <glyph glyph-name="yacute" unicode="&#xfd;" horiz-adv-x="559" 
d="M-10 -215l8 45h105l112 184l-88 389h-94l9 53h155l-8 -49l66 -330l192 326h-120l9 53h243l-10 -53h-58l-342 -565q-38 -64 -104 -64q-46 0 -75 11zM396 696h69l-111 -151h-60z" />
    <glyph glyph-name="thorn" unicode="&#xfe;" horiz-adv-x="509" 
d="M154 -216h-227l9 48l66 11l142 800h-69l10 53h124l-51 -289q56 59 140 59q78 0 116.5 -46.5t38.5 -127.5q0 -134 -59 -218.5t-180 -84.5q-85 0 -118 58l-37 -210h105zM392 284q0 127 -112 127q-81 0 -133 -69l-40 -230q27 -68 108 -68q83 0 130 60.5t47 179.5z" />
    <glyph glyph-name="ydieresis" unicode="&#xff;" horiz-adv-x="559" 
d="M-10 -215l8 45h105l112 184l-88 389h-94l9 53h155l-8 -49l66 -330l192 326h-120l9 53h243l-10 -53h-58l-342 -565q-38 -64 -104 -64q-46 0 -75 11zM249 570q-40 0 -40 36q0 28 15.5 42.5t40.5 14.5q17 0 28 -9.5t11 -28.5q0 -27 -16.5 -41t-38.5 -14zM420 570
q-39 0 -39 36q0 28 15.5 42.5t40.5 14.5q16 0 27 -10t11 -28q0 -27 -16.5 -41t-38.5 -14z" />
    <glyph glyph-name="Amacron" unicode="&#x100;" horiz-adv-x="667" 
d="M396 0l10 54h92l-31 168h-280l-92 -168h94l-9 -54h-222l9 54h62l312 568h-59l10 54h228l-10 -54h-57l109 -568h61l-10 -54h-217zM213 277h248l-63 339zM303 838h263l-9 -53h-263z" />
    <glyph glyph-name="amacron" unicode="&#x101;" horiz-adv-x="509" 
d="M384 408l31 48h31l-65 -370q-4 -19 2 -26.5t24 -7.5h32l-10 -51q-19 -4 -50 -4q-64 0 -55 68q-62 -76 -146 -76q-70 0 -106 43.5t-36 117.5q0 140 61.5 228t167.5 88q81 0 119 -58zM329 123l39 221q-29 67 -104 67q-45 0 -79.5 -25t-52.5 -64.5t-26.5 -81.5t-8.5 -84
q0 -112 96 -112q69 0 136 79zM186 634h263l-9 -53h-263z" />
    <glyph glyph-name="Abreve" unicode="&#x102;" horiz-adv-x="667" 
d="M396 0l10 54h92l-31 168h-280l-92 -168h94l-9 -54h-222l9 54h62l312 568h-59l10 54h228l-10 -54h-57l109 -568h61l-10 -54h-217zM213 277h248l-63 339zM517 884h48q-11 -58 -50.5 -94.5t-98.5 -36.5q-56 0 -84 36.5t-18 94.5h44q-6 -37 11 -60.5t54 -23.5q38 0 62 23
t32 61z" />
    <glyph glyph-name="abreve" unicode="&#x103;" horiz-adv-x="509" 
d="M384 408l31 48h31l-65 -370q-4 -19 2 -26.5t24 -7.5h32l-10 -51q-19 -4 -50 -4q-64 0 -55 68q-62 -76 -146 -76q-70 0 -106 43.5t-36 117.5q0 140 61.5 228t167.5 88q81 0 119 -58zM329 123l39 221q-29 67 -104 67q-45 0 -79.5 -25t-52.5 -64.5t-26.5 -81.5t-8.5 -84
q0 -112 96 -112q69 0 136 79zM408 681h48q-11 -58 -50.5 -94.5t-98.5 -36.5q-56 0 -84 36.5t-18 94.5h44q-6 -37 11 -60.5t54 -23.5q38 0 62 23t32 61z" />
    <glyph glyph-name="Aogonek" unicode="&#x104;" horiz-adv-x="667" 
d="M396 0l10 54h92l-31 168h-280l-92 -168h94l-9 -54h-222l9 54h62l312 568h-59l10 54h228l-10 -54h-57l109 -568h61l-10 -54h-52l-82 -57q-42 -28 -42 -63q0 -29 32 -29q26 0 55 17l2 -45q-41 -19 -77 -19q-34 0 -54.5 17t-20.5 47q0 54 65 96l54 36h-97zM213 277h248
l-63 339z" />
    <glyph glyph-name="aogonek" unicode="&#x105;" horiz-adv-x="511" 
d="M384 408l31 48h31l-65 -370q-4 -19 2 -26.5t24 -7.5h32l-10 -48l-72 -57q-43 -36 -43 -66q0 -29 33 -29q27 0 56 17l1 -45q-41 -19 -74 -19q-35 0 -56 17t-21 47q0 54 63 96l49 34q-50 2 -41 66q-62 -76 -146 -76q-70 0 -106 43.5t-36 117.5q0 140 61.5 228t167.5 88
q81 0 119 -58zM329 123l39 221q-29 67 -104 67q-45 0 -79.5 -25t-52.5 -64.5t-26.5 -81.5t-8.5 -84q0 -112 96 -112q69 0 136 79z" />
    <glyph glyph-name="Cacute" unicode="&#x106;" horiz-adv-x="581" 
d="M545 439h-52l21 162q-53 28 -118 28q-91 0 -153.5 -58t-89 -143t-26.5 -189q0 -192 160 -192q101 0 194 66l12 -58q-99 -66 -216 -66q-214 0 -214 250q0 89 22 169t63 142.5t106 99t145 36.5q99 0 184 -48zM472 899h69l-111 -151h-60z" />
    <glyph glyph-name="cacute" unicode="&#x107;" horiz-adv-x="446" 
d="M386 283h-48l16 112q-43 19 -86 19q-78 0 -123 -71.5t-45 -175.5q0 -123 109 -123q31 0 71.5 15t70.5 36l10 -52q-76 -54 -168 -54q-79 0 -118 46.5t-39 126.5q0 130 62.5 217t173.5 87q80 0 146 -41zM362 696h69l-111 -151h-60z" />
    <glyph glyph-name="Ccircumflex" unicode="&#x108;" horiz-adv-x="581" 
d="M545 439h-52l21 162q-53 28 -118 28q-91 0 -153.5 -58t-89 -143t-26.5 -189q0 -192 160 -192q101 0 194 66l12 -58q-99 -66 -216 -66q-214 0 -214 250q0 89 22 169t63 142.5t106 99t145 36.5q99 0 184 -48zM403 899h73l64 -151h-55l-50 113l-92 -113h-61z" />
    <glyph glyph-name="ccircumflex" unicode="&#x109;" horiz-adv-x="446" 
d="M386 283h-48l16 112q-43 19 -86 19q-78 0 -123 -71.5t-45 -175.5q0 -123 109 -123q31 0 71.5 15t70.5 36l10 -52q-76 -54 -168 -54q-79 0 -118 46.5t-39 126.5q0 130 62.5 217t173.5 87q80 0 146 -41zM294 696h73l64 -151h-55l-50 113l-92 -113h-61z" />
    <glyph glyph-name="Cdotaccent" unicode="&#x10a;" horiz-adv-x="581" 
d="M545 439h-52l21 162q-53 28 -118 28q-91 0 -153.5 -58t-89 -143t-26.5 -189q0 -192 160 -192q101 0 194 66l12 -58q-99 -66 -216 -66q-214 0 -214 250q0 89 22 169t63 142.5t106 99t145 36.5q99 0 184 -48zM424 773q-39 0 -39 36q0 28 15.5 42.5t40.5 14.5q16 0 27 -10
t11 -28q0 -27 -16 -41t-39 -14z" />
    <glyph glyph-name="cdotaccent" unicode="&#x10b;" horiz-adv-x="446" 
d="M386 283h-48l16 112q-43 19 -86 19q-78 0 -123 -71.5t-45 -175.5q0 -123 109 -123q31 0 71.5 15t70.5 36l10 -52q-76 -54 -168 -54q-79 0 -118 46.5t-39 126.5q0 130 62.5 217t173.5 87q80 0 146 -41zM311 570q-39 0 -39 36q0 28 15.5 42.5t40.5 14.5q16 0 27 -10t11 -28
q0 -27 -16 -41t-39 -14z" />
    <glyph glyph-name="Ccaron" unicode="&#x10c;" horiz-adv-x="581" 
d="M545 439h-52l21 162q-53 28 -118 28q-91 0 -153.5 -58t-89 -143t-26.5 -189q0 -192 160 -192q101 0 194 66l12 -58q-99 -66 -216 -66q-214 0 -214 250q0 89 22 169t63 142.5t106 99t145 36.5q99 0 184 -48zM447 748h-73l-64 151h54l50 -113l93 113h60z" />
    <glyph glyph-name="ccaron" unicode="&#x10d;" horiz-adv-x="446" 
d="M386 283h-48l16 112q-43 19 -86 19q-78 0 -123 -71.5t-45 -175.5q0 -123 109 -123q31 0 71.5 15t70.5 36l10 -52q-76 -54 -168 -54q-79 0 -118 46.5t-39 126.5q0 130 62.5 217t173.5 87q80 0 146 -41zM347 545h-73l-64 151h54l50 -113l93 113h60z" />
    <glyph glyph-name="Dcaron" unicode="&#x10e;" horiz-adv-x="662" 
d="M87 54l100 568h-74l9 54h229q139 0 202.5 -62.5t63.5 -182.5q0 -205 -96 -318t-284 -113h-234l10 54h74zM146 54h100q148 0 228.5 96.5t80.5 280.5q0 95 -50 143t-159 48h-101zM412 748h-73l-64 151h54l50 -113l93 113h60z" />
    <glyph glyph-name="dcaron" unicode="&#x10f;" horiz-adv-x="562" 
d="M503 696l-113 -643h76l-10 -53h-67q-61 0 -50 59q-64 -70 -152 -70q-77 0 -114 43t-37 120q0 140 64 227t174 87q80 0 121 -58l41 234h-92l10 54h149zM343 114l41 230q-27 67 -110 67q-48 0 -84 -24t-55.5 -63t-28.5 -80t-9 -84q0 -116 105 -116q77 0 141 70zM657 696
l-69 -145h-48l49 145h68z" />
    <glyph glyph-name="Dcroat" unicode="&#x110;" horiz-adv-x="673" 
d="M98 54l46 262h-74l8 47h75l45 259h-74l10 54h228q140 0 203.5 -62.5t63.5 -182.5q0 -205 -96.5 -318t-283.5 -113h-234l9 54h74zM157 54h100q148 0 229 96.5t81 280.5q0 95 -50.5 143t-159.5 48h-100l-46 -259h163l-8 -47h-163z" />
    <glyph glyph-name="dcroat" unicode="&#x111;" horiz-adv-x="526" 
d="M503 696l-23 -130h76l-8 -46h-75l-83 -467h76l-10 -53h-67q-61 0 -50 59q-64 -70 -152 -70q-77 0 -114 43t-37 120q0 140 64 227t174 87q80 0 121 -58l20 112h-86l7 46h86l14 76h-92l10 54h149zM343 114l41 230q-27 67 -110 67q-48 0 -84 -24t-55.5 -63t-28.5 -80t-9 -84
q0 -116 105 -116q77 0 141 70z" />
    <glyph glyph-name="Emacron" unicode="&#x112;" horiz-adv-x="565" 
d="M432 166h56l-29 -166h-456l10 54h74l100 568h-74l9 54h452l-27 -157h-57l18 103h-263l-43 -246h238l-10 -55h-237l-48 -267h267zM262 838h263l-9 -53h-263z" />
    <glyph glyph-name="emacron" unicode="&#x113;" horiz-adv-x="469" 
d="M360 105l19 -47q-82 -69 -176 -69q-84 0 -126 44t-42 121q0 131 63.5 221.5t171.5 90.5q76 0 114.5 -42t38.5 -106q0 -50 -20 -108h-302q-5 -33 -5 -55q0 -52 27.5 -82.5t82.5 -30.5q75 0 154 63zM110 260h245q8 24 8 58q0 47 -25 72t-70 25q-119 0 -158 -155zM180 635
h263l-9 -53h-263z" />
    <glyph glyph-name="Ebreve" unicode="&#x114;" horiz-adv-x="565" 
d="M432 166h56l-29 -166h-456l10 54h74l100 568h-74l9 54h452l-27 -157h-57l18 103h-263l-43 -246h238l-10 -55h-237l-48 -267h267zM483 884h48q-11 -58 -50.5 -94.5t-98.5 -36.5q-56 0 -84 36.5t-18 94.5h44q-6 -37 11 -60.5t54 -23.5q38 0 62 23t32 61z" />
    <glyph glyph-name="ebreve" unicode="&#x115;" horiz-adv-x="469" 
d="M360 105l19 -47q-82 -69 -176 -69q-84 0 -126 44t-42 121q0 131 63.5 221.5t171.5 90.5q76 0 114.5 -42t38.5 -106q0 -50 -20 -108h-302q-5 -33 -5 -55q0 -52 27.5 -82.5t82.5 -30.5q75 0 154 63zM110 260h245q8 24 8 58q0 47 -25 72t-70 25q-119 0 -158 -155zM397 681
h48q-11 -58 -50.5 -94.5t-98.5 -36.5q-56 0 -84 36.5t-18 94.5h44q-6 -37 11 -60.5t54 -23.5q38 0 62 23t32 61z" />
    <glyph glyph-name="Edotaccent" unicode="&#x116;" horiz-adv-x="565" 
d="M432 166h56l-29 -166h-456l10 54h74l100 568h-74l9 54h452l-27 -157h-57l18 103h-263l-43 -246h238l-10 -55h-237l-48 -267h267zM376 773q-39 0 -39 36q0 28 15.5 42.5t40.5 14.5q16 0 27 -10t11 -28q0 -27 -16 -41t-39 -14z" />
    <glyph glyph-name="edotaccent" unicode="&#x117;" horiz-adv-x="469" 
d="M360 105l19 -47q-82 -69 -176 -69q-84 0 -126 44t-42 121q0 131 63.5 221.5t171.5 90.5q76 0 114.5 -42t38.5 -106q0 -50 -20 -108h-302q-5 -33 -5 -55q0 -52 27.5 -82.5t82.5 -30.5q75 0 154 63zM110 260h245q8 24 8 58q0 47 -25 72t-70 25q-119 0 -158 -155zM295 570
q-39 0 -39 36q0 28 15.5 42.5t40.5 14.5q16 0 27 -10t11 -28q0 -27 -16 -41t-39 -14z" />
    <glyph glyph-name="Eogonek" unicode="&#x118;" horiz-adv-x="565" 
d="M432 166h56l-29 -166q-17 -12 -43 -30.5t-36.5 -26t-23.5 -19.5t-17 -22t-4 -22q0 -29 32 -29q28 0 55 17l2 -45q-41 -19 -75 -19q-35 0 -56 17t-21 47q0 54 65 96l54 36h-388l10 54h74l100 568h-74l9 54h452l-27 -157h-57l18 103h-263l-43 -246h238l-10 -55h-237
l-48 -267h267z" />
    <glyph glyph-name="eogonek" unicode="&#x119;" horiz-adv-x="470" 
d="M361 105l19 -47q-35 -32 -101 -60l-73 -53q-45 -32 -45 -65q0 -13 9 -21t25 -8q27 0 56 17l2 -45q-41 -19 -75 -19q-36 0 -57 17t-21 47q0 52 66 96l34 25q-159 4 -164 156q0 7 0.5 22t0.5 23q9 119 71.5 197.5t162.5 78.5q76 0 114.5 -42t38.5 -106q0 -47 -21 -108h-301
q-5 -25 -5 -55q0 -52 27.5 -82.5t82.5 -30.5q75 0 154 63zM111 260h245q8 24 8 58q0 47 -25.5 72t-70.5 25q-118 0 -157 -155z" />
    <glyph glyph-name="Ecaron" unicode="&#x11a;" horiz-adv-x="565" 
d="M432 166h56l-29 -166h-456l10 54h74l100 568h-74l9 54h452l-27 -157h-57l18 103h-263l-43 -246h238l-10 -55h-237l-48 -267h267zM409 748h-73l-64 151h54l50 -113l93 113h60z" />
    <glyph glyph-name="ecaron" unicode="&#x11b;" horiz-adv-x="469" 
d="M360 105l19 -47q-82 -69 -176 -69q-84 0 -126 44t-42 121q0 131 63.5 221.5t171.5 90.5q76 0 114.5 -42t38.5 -106q0 -50 -20 -108h-302q-5 -33 -5 -55q0 -52 27.5 -82.5t82.5 -30.5q75 0 154 63zM110 260h245q8 24 8 58q0 47 -25 72t-70 25q-119 0 -158 -155zM324 545
h-73l-64 151h54l50 -113l93 113h60z" />
    <glyph glyph-name="Gcircumflex" unicode="&#x11c;" horiz-adv-x="637" 
d="M576 475h-51l15 133q-56 21 -134 21q-71 0 -126.5 -33t-88 -89t-48.5 -123t-16 -142q0 -94 42.5 -144.5t145.5 -50.5q96 0 160 30l33 188h-177l10 55h237l-49 -281q-98 -50 -223 -50q-243 0 -243 253q0 121 36.5 219.5t116.5 161.5t192 63q120 0 202 -36zM415 899h73
l64 -151h-55l-50 113l-92 -113h-61z" />
    <glyph glyph-name="gcircumflex" unicode="&#x11d;" horiz-adv-x="505" 
d="M456 456l-76 -435q-43 -247 -222 -247q-154 0 -154 115q0 25 5 46h56q-5 -25 -5 -36q0 -74 99 -74q68 0 106.5 47.5t58.5 147.5l9 45q-24 -31 -64.5 -53.5t-87.5 -22.5q-73 0 -109 42.5t-36 119.5q0 140 63.5 227.5t173.5 87.5q81 0 120 -58l32 48h31zM338 123l40 221
q-27 67 -107 67q-48 0 -83.5 -24.5t-54 -64.5t-27.5 -81.5t-9 -83.5q0 -113 103 -113q40 0 76.5 23.5t61.5 55.5zM292 696h73l64 -151h-55l-50 113l-92 -113h-61z" />
    <glyph glyph-name="Gbreve" unicode="&#x11e;" horiz-adv-x="637" 
d="M576 475h-51l15 133q-56 21 -134 21q-71 0 -126.5 -33t-88 -89t-48.5 -123t-16 -142q0 -94 42.5 -144.5t145.5 -50.5q96 0 160 30l33 188h-177l10 55h237l-49 -281q-98 -50 -223 -50q-243 0 -243 253q0 121 36.5 219.5t116.5 161.5t192 63q120 0 202 -36zM531 884h48
q-11 -58 -50.5 -94.5t-98.5 -36.5q-56 0 -84 36.5t-18 94.5h44q-6 -37 11 -60.5t54 -23.5q38 0 62 23t32 61z" />
    <glyph glyph-name="gbreve" unicode="&#x11f;" horiz-adv-x="505" 
d="M456 456l-76 -435q-43 -247 -222 -247q-154 0 -154 115q0 25 5 46h56q-5 -25 -5 -36q0 -74 99 -74q68 0 106.5 47.5t58.5 147.5l9 45q-24 -31 -64.5 -53.5t-87.5 -22.5q-73 0 -109 42.5t-36 119.5q0 140 63.5 227.5t173.5 87.5q81 0 120 -58l32 48h31zM338 123l40 221
q-27 67 -107 67q-48 0 -83.5 -24.5t-54 -64.5t-27.5 -81.5t-9 -83.5q0 -113 103 -113q40 0 76.5 23.5t61.5 55.5zM410 681h48q-11 -58 -50.5 -94.5t-98.5 -36.5q-56 0 -84 36.5t-18 94.5h44q-6 -37 11 -60.5t54 -23.5q38 0 62 23t32 61z" />
    <glyph glyph-name="Gdotaccent" unicode="&#x120;" horiz-adv-x="637" 
d="M576 475h-51l15 133q-56 21 -134 21q-71 0 -126.5 -33t-88 -89t-48.5 -123t-16 -142q0 -94 42.5 -144.5t145.5 -50.5q96 0 160 30l33 188h-177l10 55h237l-49 -281q-98 -50 -223 -50q-243 0 -243 253q0 121 36.5 219.5t116.5 161.5t192 63q120 0 202 -36zM430 773
q-39 0 -39 36q0 28 15.5 42.5t40.5 14.5q16 0 27 -10t11 -28q0 -27 -16 -41t-39 -14z" />
    <glyph glyph-name="gdotaccent" unicode="&#x121;" horiz-adv-x="505" 
d="M456 456l-76 -435q-43 -247 -222 -247q-154 0 -154 115q0 25 5 46h56q-5 -25 -5 -36q0 -74 99 -74q68 0 106.5 47.5t58.5 147.5l9 45q-24 -31 -64.5 -53.5t-87.5 -22.5q-73 0 -109 42.5t-36 119.5q0 140 63.5 227.5t173.5 87.5q81 0 120 -58l32 48h31zM338 123l40 221
q-27 67 -107 67q-48 0 -83.5 -24.5t-54 -64.5t-27.5 -81.5t-9 -83.5q0 -113 103 -113q40 0 76.5 23.5t61.5 55.5zM310 570q-39 0 -39 36q0 28 15.5 42.5t40.5 14.5q16 0 27 -10t11 -28q0 -27 -16 -41t-39 -14z" />
    <glyph glyph-name="Gcommaaccent" unicode="&#x122;" horiz-adv-x="638" 
d="M576 475h-51l15 133q-56 21 -134 21q-71 0 -126.5 -33t-88 -89t-48.5 -123t-16 -142q0 -94 42.5 -144.5t145.5 -50.5q96 0 160 30l33 188h-177l10 55h237l-49 -281q-98 -50 -223 -50q-243 0 -243 253q0 121 36.5 219.5t116.5 161.5t192 63q120 0 202 -36zM332 -71
l-69 -145h-48l49 145h68z" />
    <glyph glyph-name="gcommaaccent" unicode="&#x123;" horiz-adv-x="505" 
d="M456 456l-76 -435q-43 -247 -222 -247q-154 0 -154 115q0 25 5 46h56q-5 -25 -5 -36q0 -74 99 -74q68 0 106.5 47.5t58.5 147.5l9 45q-24 -31 -64.5 -53.5t-87.5 -22.5q-73 0 -109 42.5t-36 119.5q0 140 63.5 227.5t173.5 87.5q81 0 120 -58l32 48h31zM338 123l40 221
q-27 67 -107 67q-48 0 -83.5 -24.5t-54 -64.5t-27.5 -81.5t-9 -83.5q0 -113 103 -113q40 0 76.5 23.5t61.5 55.5zM270 555l78 169h47l-56 -169h-69z" />
    <glyph glyph-name="Hcircumflex" unicode="&#x124;" horiz-adv-x="735" 
d="M525 622l9 54h213l-9 -54h-64l-100 -568h64l-10 -54h-213l10 54h90l49 275h-374l-49 -275h91l-10 -54h-214l10 54h64l100 568h-64l9 54h215l-10 -54h-91l-42 -237h374l42 237h-90zM436 899h73l64 -151h-55l-50 113l-92 -113h-61z" />
    <glyph glyph-name="hcircumflex" unicode="&#x125;" 
d="M117 53h80l-10 -53h-205l10 53h68l104 589h-69l10 54h125l-50 -283q67 53 146 53q87 0 121 -46t20 -128l-42 -239h81l-9 -53h-70q-69 0 -57 65l40 225q22 121 -99 121q-59 0 -141 -51zM348 886h73l64 -151h-55l-50 113l-92 -113h-61z" />
    <glyph glyph-name="Hbar" unicode="&#x126;" horiz-adv-x="735" 
d="M526 622l9 54h213l-9 -54h-64l-19 -102h65l-8 -44h-64l-74 -422h64l-10 -54h-213l10 54h90l49 275h-374l-49 -275h91l-10 -54h-214l10 54h64l74 422h-65l8 44h65l18 102h-64l9 54h215l-10 -54h-91l-18 -102h374l18 102h-90zM200 385h374l16 91h-374z" />
    <glyph glyph-name="hbar" unicode="&#x127;" 
d="M117 53h80l-10 -53h-205l10 53h68l82 467h-75l8 46h75l14 76h-69l10 54h125l-23 -130h88l-8 -46h-88l-19 -107q67 53 146 53q87 0 121 -46t20 -128l-42 -239h81l-9 -53h-70q-69 0 -57 65l40 225q22 121 -99 121q-59 0 -141 -51z" />
    <glyph glyph-name="Itilde" unicode="&#x128;" horiz-adv-x="318" 
d="M-2 0l9 54h84l100 568h-84l10 54h223l-9 -54h-81l-100 -568h81l-11 -54h-222zM387 828l-16 -50q-22 25 -53 25q-19 0 -64.5 -17t-74.5 -17q-40 0 -59 25l16 49q19 -24 51 -24q23 0 67 17.5t74 17.5q35 0 59 -26z" />
    <glyph glyph-name="itilde" unicode="&#x129;" horiz-adv-x="306" 
d="M-11 0l9 53h99l62 350h-99l10 53h154l-70 -403h95l-9 -53h-251zM328 625l-16 -50q-22 25 -53 25q-19 0 -64.5 -17t-74.5 -17q-40 0 -59 25l16 49q19 -24 51 -24q23 0 67 17.5t74 17.5q35 0 59 -26z" />
    <glyph glyph-name="Imacron" unicode="&#x12a;" horiz-adv-x="318" 
d="M-2 0l9 54h84l100 568h-84l10 54h223l-9 -54h-81l-100 -568h81l-11 -54h-222zM121 838h263l-9 -53h-263z" />
    <glyph glyph-name="imacron" unicode="&#x12b;" horiz-adv-x="306" 
d="M-11 0l9 53h99l62 350h-99l10 53h154l-70 -403h95l-9 -53h-251zM73 635h263l-9 -53h-263z" />
    <glyph glyph-name="Ibreve" unicode="&#x12c;" horiz-adv-x="318" 
d="M-2 0l9 54h84l100 568h-84l10 54h223l-9 -54h-81l-100 -568h81l-11 -54h-222zM344 884h48q-11 -58 -50.5 -94.5t-98.5 -36.5q-56 0 -84 36.5t-18 94.5h44q-6 -37 11 -60.5t54 -23.5q38 0 62 23t32 61z" />
    <glyph glyph-name="ibreve" unicode="&#x12d;" horiz-adv-x="306" 
d="M-11 0l9 53h99l62 350h-99l10 53h154l-70 -403h95l-9 -53h-251zM298 681h48q-11 -58 -50.5 -94.5t-98.5 -36.5q-56 0 -84 36.5t-18 94.5h44q-6 -37 11 -60.5t54 -23.5q38 0 62 23t32 61z" />
    <glyph glyph-name="Iogonek" unicode="&#x12e;" horiz-adv-x="318" 
d="M-2 0l9 54h84l100 568h-84l10 54h223l-9 -54h-81l-100 -568h81l-11 -54h-67l-82 -57q-42 -28 -42 -63q0 -29 32 -29q28 0 55 17l2 -45q-41 -19 -75 -19q-35 0 -56 17t-21 47q0 54 65 96l54 36h-87z" />
    <glyph glyph-name="iogonek" unicode="&#x12f;" horiz-adv-x="296" 
d="M-12 0l10 53h91l62 350h-89l9 53h146l-71 -403h93l-9 -53h-76l-82 -57q-42 -28 -42 -63q0 -29 32 -29q27 0 56 17l1 -45q-41 -19 -74 -19q-35 0 -56 17t-21 47q0 56 65 96l53 36h-98zM204 583q-39 0 -39 37q0 23 15 36.5t35 13.5q38 0 38 -39q0 -23 -15 -35.5t-34 -12.5z
" />
    <glyph glyph-name="Idotaccent" unicode="&#x130;" horiz-adv-x="318" 
d="M-2 0l9 54h84l100 568h-84l10 54h223l-9 -54h-81l-100 -568h81l-11 -54h-222zM243 773q-39 0 -39 36q0 28 15.5 42.5t40.5 14.5q16 0 27 -10t11 -28q0 -27 -16 -41t-39 -14z" />
    <glyph glyph-name="dotlessi" unicode="&#x131;" horiz-adv-x="306" 
d="M-11 0l9 53h99l62 350h-99l10 53h154l-70 -403h95l-9 -53h-251z" />
    <glyph glyph-name="IJ" unicode="&#x132;" horiz-adv-x="613" 
d="M-2 0l9 54h84l100 568h-84l10 54h223l-9 -54h-81l-100 -568h81l-11 -54h-222zM409 622l9 54h216l-9 -54h-64l-105 -596q-29 -170 -181 -252l-29 43q67 39 102 85.5t47 112.5l107 607h-93z" />
    <glyph glyph-name="ij" unicode="&#x133;" horiz-adv-x="537" 
d="M-12 0l10 53h91l62 350h-89l9 53h146l-71 -403h93l-9 -53h-242zM204 583q-39 0 -39 37q0 23 15 36.5t35 13.5q38 0 38 -39q0 -23 -15 -35.5t-34 -12.5zM256 -226l-19 49q50 20 73.5 50.5t36.5 100.5l75 429h-89l9 53h147l-86 -486q-14 -78 -47 -126.5t-100 -69.5z
M469 583q-39 0 -39 37q0 23 15 36.5t35 13.5q38 0 38 -39q0 -23 -15 -35.5t-34 -12.5z" />
    <glyph glyph-name="Jcircumflex" unicode="&#x134;" horiz-adv-x="295" 
d="M91 622l9 54h216l-9 -54h-64l-105 -596q-29 -170 -181 -252l-29 43q67 39 102 85.5t47 112.5l107 607h-93zM216 899h73l64 -151h-55l-50 113l-92 -113h-61z" />
    <glyph glyph-name="jcircumflex" unicode="&#x135;" horiz-adv-x="245" 
d="M146 696h73l64 -151h-55l-50 113l-92 -113h-61zM-36 -226l-19 49q50 20 73.5 50.5t36.5 100.5l75 429h-89l9 53h147l-86 -486q-14 -78 -47 -126.5t-100 -69.5z" />
    <glyph glyph-name="Kcommaaccent" unicode="&#x136;" horiz-adv-x="625" 
d="M229 353l276 269h-68l9 54h216l-9 -54h-72l-282 -271l199 -297h66l-9 -54h-218l10 54h81zM246 622l-100 -568h79l-9 -54h-214l9 54h76l100 568h-75l10 54h213l-10 -54h-79zM299 -71l-69 -145h-48l49 145h68z" />
    <glyph glyph-name="kcommaaccent" unicode="&#x137;" horiz-adv-x="537" 
d="M60 53l103 589h-68l10 54h125l-84 -467l226 174h-76l10 53h212l-10 -53h-67l-177 -138l92 -147q29 -48 41 -56q12 -9 29 -9h51l-10 -53q-29 -3 -54 -3q-36 1 -57.5 21.5t-49.5 68.5l-88 146l-81 -63l-20 -117h69l-10 -53h-194l10 53h68zM250 -71l-69 -145h-48l49 145h68z
" />
    <glyph glyph-name="kgreenlandic" unicode="&#x138;" horiz-adv-x="549" 
d="M73 53l60 349h-67l9 54h125l-42 -227l227 174h-76l10 53h211l-9 -53h-67l-177 -138l91 -147q2 -4 7.5 -12.5t7.5 -11.5t6.5 -9.5t6.5 -8.5t5.5 -6.5t6 -6t6.5 -4.5t7.5 -3.5t8 -1.5t9.5 -1h51l-10 -53q-28 -3 -54 -3q-36 1 -57.5 21t-50.5 69l-87 146l-82 -63l-19 -117
h68l-10 -53h-193l9 53h69z" />
    <glyph glyph-name="Lacute" unicode="&#x139;" horiz-adv-x="509" 
d="M410 192h55l-35 -192h-427l10 54h72l100 568h-72l9 54h220l-9 -54h-89l-100 -568h242zM311 899h69l-111 -151h-60z" />
    <glyph glyph-name="lacute" unicode="&#x13a;" horiz-adv-x="247" 
d="M72 696h140l-107 -604q-7 -43 34 -43q23 0 55 5l-9 -54q-32 -5 -60 -5q-47 0 -66.5 26t-11.5 68l99 553h-84zM261 886h69l-111 -151h-60z" />
    <glyph glyph-name="Lcommaaccent" unicode="&#x13b;" horiz-adv-x="510" 
d="M410 192h55l-35 -192h-427l10 54h72l100 568h-72l9 54h220l-9 -54h-89l-100 -568h242zM240 -71l-69 -145h-48l49 145h68z" />
    <glyph glyph-name="lcommaaccent" unicode="&#x13c;" horiz-adv-x="247" 
d="M72 696h140l-107 -604q-7 -43 34 -43q23 0 55 5l-9 -54q-32 -5 -60 -5q-47 0 -66.5 26t-11.5 68l99 553h-84zM124 -71l-69 -145h-48l49 145h68z" />
    <glyph glyph-name="Lcaron" unicode="&#x13d;" horiz-adv-x="514" 
d="M410 192h55l-35 -192h-427l10 54h72l100 568h-72l9 54h220l-9 -54h-89l-100 -568h242zM523 676l-69 -145h-48l49 145h68z" />
    <glyph glyph-name="lcaron" unicode="&#x13e;" horiz-adv-x="280" 
d="M72 696h140l-107 -604q-7 -43 34 -43q23 0 55 5l-9 -54q-32 -5 -60 -5q-47 0 -66.5 26t-11.5 68l99 553h-84zM369 696l-69 -145h-48l49 145h68z" />
    <glyph glyph-name="Ldot" unicode="&#x13f;" horiz-adv-x="509" 
d="M410 192h55l-35 -192h-427l10 54h72l100 568h-72l9 54h220l-9 -54h-89l-100 -568h242zM375 318q-19 0 -32 13t-13 31q0 24 17 40t41 16q19 0 31.5 -13t12.5 -31q0 -24 -16.5 -40t-40.5 -16z" />
    <glyph glyph-name="ldot" unicode="&#x140;" horiz-adv-x="299" 
d="M72 696h140l-107 -604q-7 -43 34 -43q23 0 55 5l-9 -54q-32 -5 -60 -5q-47 0 -66.5 26t-11.5 68l99 553h-84zM260 312q-19 0 -32 13t-13 31q0 24 17 40t41 16q19 0 31.5 -13t12.5 -31q0 -24 -16.5 -40t-40.5 -16z" />
    <glyph glyph-name="Lslash" unicode="&#x141;" horiz-adv-x="512" 
d="M413 192h55l-34 -192h-428l10 54h73l39 227l-80 -31l8 47l80 31l53 294h-73l9 54h221l-10 -54h-89l-48 -269l98 38l-8 -47l-98 -38l-44 -252h243z" />
    <glyph glyph-name="lslash" unicode="&#x142;" horiz-adv-x="251" 
d="M28 289l9 54l63 28l49 271h-84l10 54h140l-53 -298l64 29l-9 -55l-65 -29l-44 -251q-7 -43 34 -43q22 0 55 5l-10 -54q-32 -5 -59 -5q-47 0 -66.5 25.5t-12.5 68.5l41 227z" />
    <glyph glyph-name="Nacute" unicode="&#x143;" horiz-adv-x="726" 
d="M506 622l10 54h236l-9 -54h-71l-110 -622h-72l-251 599l-96 -545h109l-9 -54h-239l10 54h70l100 568h-70l9 54h148l246 -599l96 545h-107zM503 899h69l-111 -151h-60z" />
    <glyph glyph-name="nacute" unicode="&#x144;" horiz-adv-x="561" 
d="M-6 0l9 53h69l61 350h-67l10 53h108l4 -46q68 56 149 56q83 0 115 -46t18 -123l-43 -244h80l-10 -53h-69q-33 0 -47 17.5t-9 47.5l41 229q20 117 -92 117q-73 0 -139 -53l-53 -305h80l-10 -53h-205zM384 696h69l-111 -151h-60z" />
    <glyph glyph-name="Ncommaaccent" unicode="&#x145;" horiz-adv-x="726" 
d="M506 622l10 54h236l-9 -54h-71l-110 -622h-72l-251 599l-96 -545h109l-9 -54h-239l10 54h70l100 568h-70l9 54h148l246 -599l96 545h-107zM331 -71l-69 -145h-48l49 145h68z" />
    <glyph glyph-name="ncommaaccent" unicode="&#x146;" horiz-adv-x="562" 
d="M-6 0l9 53h69l61 350h-67l10 53h108l4 -46q68 56 149 56q83 0 115 -46t18 -123l-43 -244h80l-10 -53h-69q-33 0 -47 17.5t-9 47.5l41 229q20 117 -92 117q-73 0 -139 -53l-53 -305h80l-10 -53h-205zM277 -71l-69 -145h-48l49 145h68z" />
    <glyph glyph-name="Ncaron" unicode="&#x147;" horiz-adv-x="726" 
d="M506 622l10 54h236l-9 -54h-71l-110 -622h-72l-251 599l-96 -545h109l-9 -54h-239l10 54h70l100 568h-70l9 54h148l246 -599l96 545h-107zM478 748h-73l-64 151h54l50 -113l93 113h60z" />
    <glyph glyph-name="ncaron" unicode="&#x148;" horiz-adv-x="561" 
d="M-6 0l9 53h69l61 350h-67l10 53h108l4 -46q68 56 149 56q83 0 115 -46t18 -123l-43 -244h80l-10 -53h-69q-33 0 -47 17.5t-9 47.5l41 229q20 117 -92 117q-73 0 -139 -53l-53 -305h80l-10 -53h-205zM354 545h-73l-64 151h54l50 -113l93 113h60z" />
    <glyph glyph-name="napostrophe" unicode="&#x149;" horiz-adv-x="561" 
d="M-6 0l9 53h69l61 350h-67l10 53h108l4 -46q68 56 149 56q83 0 115 -46t18 -123l-43 -244h80l-10 -53h-69q-33 0 -47 17.5t-9 47.5l41 229q20 117 -92 117q-73 0 -139 -53l-53 -305h80l-10 -53h-205zM111 676l-77 -186h-47l56 186h68z" />
    <glyph glyph-name="Eng" unicode="&#x14a;" horiz-adv-x="736" 
d="M507 -30l-266 629l-97 -545h111l-9 -54h-243l10 54h72l100 568h-72l9 54h145l258 -611l98 557h-108l9 54h241l-10 -54h-73l-115 -652q-14 -77 -46.5 -126.5t-96.5 -69.5l-21 48q45 17 69 50t35 98z" />
    <glyph glyph-name="eng" unicode="&#x14b;" horiz-adv-x="543" 
d="M356 -34l57 328q20 117 -92 117q-73 0 -139 -53l-53 -305h80l-10 -53h-205l9 53h69l61 350h-67l10 53h108l4 -46q68 56 149 56q83 0 115 -46t18 -126l-56 -324q-14 -78 -46.5 -126t-101.5 -70l-18 48q50 20 73.5 49.5t34.5 94.5z" />
    <glyph glyph-name="Omacron" unicode="&#x14c;" horiz-adv-x="649" 
d="M125 219q0 -78 37.5 -126t114.5 -48q122 0 194.5 112t72.5 298q0 78 -38 126.5t-113 48.5q-87 0 -149.5 -61t-90.5 -152t-28 -198zM608 457q0 -208 -90.5 -338t-245.5 -130q-105 0 -158 64.5t-53 165.5q0 68 12 133t38.5 126t64.5 107t95 73.5t126 27.5q107 0 159 -64
t52 -165zM285 838h263l-9 -53h-263z" />
    <glyph glyph-name="omacron" unicode="&#x14d;" horiz-adv-x="490" 
d="M272 466q82 0 123 -47t41 -126q0 -125 -63 -214.5t-174 -89.5q-81 0 -122 47t-41 126q0 127 62 215.5t174 88.5zM204 43q79 0 125 71t46 178q0 120 -107 120q-80 0 -125.5 -70.5t-45.5 -178.5q0 -120 107 -120zM183 635h263l-9 -53h-263z" />
    <glyph glyph-name="Obreve" unicode="&#x14e;" horiz-adv-x="649" 
d="M125 219q0 -78 37.5 -126t114.5 -48q122 0 194.5 112t72.5 298q0 78 -38 126.5t-113 48.5q-87 0 -149.5 -61t-90.5 -152t-28 -198zM608 457q0 -208 -90.5 -338t-245.5 -130q-105 0 -158 64.5t-53 165.5q0 68 12 133t38.5 126t64.5 107t95 73.5t126 27.5q107 0 159 -64
t52 -165zM503 884h48q-11 -58 -50.5 -94.5t-98.5 -36.5q-56 0 -84 36.5t-18 94.5h44q-6 -37 11 -60.5t54 -23.5q38 0 62 23t32 61z" />
    <glyph glyph-name="obreve" unicode="&#x14f;" horiz-adv-x="490" 
d="M272 466q82 0 123 -47t41 -126q0 -125 -63 -214.5t-174 -89.5q-81 0 -122 47t-41 126q0 127 62 215.5t174 88.5zM204 43q79 0 125 71t46 178q0 120 -107 120q-80 0 -125.5 -70.5t-45.5 -178.5q0 -120 107 -120zM401 681h48q-11 -58 -50.5 -94.5t-98.5 -36.5
q-56 0 -84 36.5t-18 94.5h44q-6 -37 11 -60.5t54 -23.5q38 0 62 23t32 61z" />
    <glyph glyph-name="Ohungarumlaut" unicode="&#x150;" horiz-adv-x="649" 
d="M125 219q0 -78 37.5 -126t114.5 -48q122 0 194.5 112t72.5 298q0 78 -38 126.5t-113 48.5q-87 0 -149.5 -61t-90.5 -152t-28 -198zM608 457q0 -208 -90.5 -338t-245.5 -130q-105 0 -158 64.5t-53 165.5q0 68 12 133t38.5 126t64.5 107t95 73.5t126 27.5q107 0 159 -64
t52 -165zM402 899h69l-111 -151h-60zM541 899h69l-112 -151h-59z" />
    <glyph glyph-name="ohungarumlaut" unicode="&#x151;" horiz-adv-x="490" 
d="M272 466q82 0 123 -47t41 -126q0 -125 -63 -214.5t-174 -89.5q-81 0 -122 47t-41 126q0 127 62 215.5t174 88.5zM204 43q79 0 125 71t46 178q0 120 -107 120q-80 0 -125.5 -70.5t-45.5 -178.5q0 -120 107 -120zM301 696h69l-111 -151h-60zM440 696h69l-112 -151h-59z" />
    <glyph glyph-name="OE" unicode="&#x152;" horiz-adv-x="856" 
d="M723 166h56l-29 -166h-377q-40 -11 -102 -11q-109 0 -160 66.5t-51 175.5q0 67 13.5 131.5t41.5 123t67 103t94.5 71t119.5 26.5q56 0 98 -10h372l-28 -157h-57l19 103h-263l-43 -246h237l-9 -55h-238l-47 -267h266zM125 235q0 -190 158 -190q58 0 96 14l98 556
q-35 15 -92 15q-62 0 -113 -37.5t-82 -96.5t-48 -127t-17 -134z" />
    <glyph glyph-name="oe" unicode="&#x153;" horiz-adv-x="792" 
d="M272 466q114 0 146 -106q64 106 175 106q76 0 114.5 -42t38.5 -106q0 -47 -21 -108h-298q-5 -33 -5 -55q0 -53 26.5 -83t80.5 -30q73 0 154 63l19 -47q-84 -69 -178 -69q-65 0 -98.5 27t-48.5 76q-70 -103 -178 -103q-81 0 -122 47t-41 126q0 125 62.5 214.5t173.5 89.5z
M204 43q79 0 122.5 70.5t43.5 178.5q0 120 -102 120q-80 0 -125.5 -70.5t-45.5 -178.5q0 -120 107 -120zM436 260h242q8 24 8 58q0 47 -25.5 72t-70.5 25q-117 0 -154 -155z" />
    <glyph glyph-name="Racute" unicode="&#x154;" horiz-adv-x="625" 
d="M87 54l100 568h-75l9 54h270q187 0 187 -156q0 -89 -52 -140t-146 -63q43 -36 73.5 -108.5t39.5 -154.5h82l-10 -54h-215l10 54h69q-6 76 -37 147.5t-81 110.5h-120l-46 -258h86l-10 -54h-218l10 54h74zM515 521q0 101 -128 101h-142l-45 -256h133q182 0 182 155z
M424 899h69l-111 -151h-60z" />
    <glyph glyph-name="racute" unicode="&#x155;" horiz-adv-x="382" 
d="M65 403l9 53h122l-16 -91q23 42 63.5 71.5t82.5 29.5q39 0 67 -7l-20 -74l-66 21q-34 -3 -72 -31t-64 -71l-44 -251h108l-10 -53h-231l8 47l69 12l60 344h-66zM289 696h69l-111 -151h-60z" />
    <glyph glyph-name="Rcommaaccent" unicode="&#x156;" horiz-adv-x="623" 
d="M87 54l100 568h-75l9 54h270q187 0 187 -156q0 -89 -52 -140t-146 -63q43 -36 73.5 -108.5t39.5 -154.5h82l-10 -54h-215l10 54h69q-6 76 -37 147.5t-81 110.5h-120l-46 -258h86l-10 -54h-218l10 54h74zM515 521q0 101 -128 101h-142l-45 -256h133q182 0 182 155z
M303 -71l-69 -145h-48l49 145h68z" />
    <glyph glyph-name="rcommaaccent" unicode="&#x157;" horiz-adv-x="382" 
d="M65 403l9 53h122l-16 -91q23 42 63.5 71.5t82.5 29.5q39 0 67 -7l-20 -74l-66 21q-34 -3 -72 -31t-64 -71l-44 -251h108l-10 -53h-231l8 47l69 12l60 344h-66zM124 -71l-69 -145h-48l49 145h68z" />
    <glyph glyph-name="Rcaron" unicode="&#x158;" horiz-adv-x="625" 
d="M87 54l100 568h-75l9 54h270q187 0 187 -156q0 -89 -52 -140t-146 -63q43 -36 73.5 -108.5t39.5 -154.5h82l-10 -54h-215l10 54h69q-6 76 -37 147.5t-81 110.5h-120l-46 -258h86l-10 -54h-218l10 54h74zM515 521q0 101 -128 101h-142l-45 -256h133q182 0 182 155z
M394 748h-73l-64 151h54l50 -113l93 113h60z" />
    <glyph glyph-name="rcaron" unicode="&#x159;" horiz-adv-x="382" 
d="M65 403l9 53h122l-16 -91q23 42 63.5 71.5t82.5 29.5q39 0 67 -7l-20 -74l-66 21q-34 -3 -72 -31t-64 -71l-44 -251h108l-10 -53h-231l8 47l69 12l60 344h-66zM269 545h-73l-64 151h54l50 -113l93 113h60z" />
    <glyph glyph-name="Sacute" unicode="&#x15a;" horiz-adv-x="526" 
d="M510 647l-29 -162h-49l10 126q-47 20 -112 20q-71 0 -114 -43t-43 -100q0 -39 20 -63t62 -42l72 -29q62 -24 93 -63.5t31 -104.5q0 -80 -65.5 -138.5t-176.5 -58.5q-112 0 -179 42l21 177h50l-5 -140q44 -25 122 -25q70 0 118.5 39.5t48.5 98.5q0 78 -85 114l-77 33
q-56 23 -85.5 59t-29.5 96q0 80 62 141.5t170 61.5q94 0 170 -39zM410 899h69l-111 -151h-60z" />
    <glyph glyph-name="sacute" unicode="&#x15b;" horiz-adv-x="426" 
d="M315 322l7 64q-20 31 -83 31q-42 0 -74.5 -22.5t-32.5 -59.5q0 -39 55 -63l71 -32q48 -21 71 -46.5t23 -64.5q0 -68 -53.5 -104t-129.5 -36q-65 0 -109 23t-44 75q0 23 9 53h56l-5 -67q26 -36 100 -36q46 0 78.5 21t32.5 60q0 45 -62 72l-70 31q-87 38 -87 107
q0 63 53.5 100.5t123.5 37.5q63 0 98.5 -23t35.5 -67q0 -25 -10 -54h-54zM317 696h69l-111 -151h-60z" />
    <glyph glyph-name="Scircumflex" unicode="&#x15c;" horiz-adv-x="526" 
d="M510 647l-29 -162h-49l10 126q-47 20 -112 20q-71 0 -114 -43t-43 -100q0 -39 20 -63t62 -42l72 -29q62 -24 93 -63.5t31 -104.5q0 -80 -65.5 -138.5t-176.5 -58.5q-112 0 -179 42l21 177h50l-5 -140q44 -25 122 -25q70 0 118.5 39.5t48.5 98.5q0 78 -85 114l-77 33
q-56 23 -85.5 59t-29.5 96q0 80 62 141.5t170 61.5q94 0 170 -39zM344 899h73l64 -151h-55l-50 113l-92 -113h-61z" />
    <glyph glyph-name="scircumflex" unicode="&#x15d;" horiz-adv-x="426" 
d="M315 322l7 64q-20 31 -83 31q-42 0 -74.5 -22.5t-32.5 -59.5q0 -39 55 -63l71 -32q48 -21 71 -46.5t23 -64.5q0 -68 -53.5 -104t-129.5 -36q-65 0 -109 23t-44 75q0 23 9 53h56l-5 -67q26 -36 100 -36q46 0 78.5 21t32.5 60q0 45 -62 72l-70 31q-87 38 -87 107
q0 63 53.5 100.5t123.5 37.5q63 0 98.5 -23t35.5 -67q0 -25 -10 -54h-54zM253 696h73l64 -151h-55l-50 113l-92 -113h-61z" />
    <glyph glyph-name="Scedilla" unicode="&#x15e;" horiz-adv-x="527" 
d="M510 647l-29 -162h-49l10 126q-47 20 -112 20q-71 0 -114 -43t-43 -100q0 -39 20 -63t62 -42l72 -29q62 -24 93 -63.5t31 -104.5q0 -76 -59 -133t-161 -63l-26 -50q10 4 27 4q23 0 38 -15.5t15 -39.5q0 -37 -28 -62t-80 -25q-43 0 -89 23l16 41q40 -25 78 -25q53 0 53 41
q0 13 -9.5 21t-24.5 8t-30 -5l-22 10l38 73q-99 5 -157 42l21 177h50l-5 -140q44 -25 122 -25q70 0 118.5 39.5t48.5 98.5q0 78 -85 114l-77 33q-56 23 -85.5 59t-29.5 96q0 80 62 141.5t170 61.5q94 0 170 -39z" />
    <glyph glyph-name="scedilla" unicode="&#x15f;" horiz-adv-x="426" 
d="M315 322l7 64q-20 31 -83 31q-42 0 -74.5 -22.5t-32.5 -59.5q0 -39 55 -63l71 -32q48 -21 71 -46.5t23 -64.5q0 -64 -46 -99t-115 -40l-27 -50q12 4 27 4q23 0 38.5 -15.5t15.5 -39.5q0 -37 -28.5 -62t-80.5 -25q-43 0 -89 23l16 41q40 -25 78 -25q53 0 53 41q0 13 -9 21
t-24 8q-16 0 -31 -5l-22 10l38 74q-130 8 -130 97q0 23 9 53h56l-5 -67q26 -36 100 -36q46 0 78.5 21t32.5 60q0 45 -62 72l-70 31q-87 38 -87 107q0 63 53.5 100.5t123.5 37.5q63 0 98.5 -23t35.5 -67q0 -25 -10 -54h-54z" />
    <glyph glyph-name="Scaron" unicode="&#x160;" horiz-adv-x="526" 
d="M510 647l-29 -162h-49l10 126q-47 20 -112 20q-71 0 -114 -43t-43 -100q0 -39 20 -63t62 -42l72 -29q62 -24 93 -63.5t31 -104.5q0 -80 -65.5 -138.5t-176.5 -58.5q-112 0 -179 42l21 177h50l-5 -140q44 -25 122 -25q70 0 118.5 39.5t48.5 98.5q0 78 -85 114l-77 33
q-56 23 -85.5 59t-29.5 96q0 80 62 141.5t170 61.5q94 0 170 -39zM382 748h-73l-64 151h54l50 -113l93 113h60z" />
    <glyph glyph-name="scaron" unicode="&#x161;" horiz-adv-x="426" 
d="M315 322l7 64q-20 31 -83 31q-42 0 -74.5 -22.5t-32.5 -59.5q0 -39 55 -63l71 -32q48 -21 71 -46.5t23 -64.5q0 -68 -53.5 -104t-129.5 -36q-65 0 -109 23t-44 75q0 23 9 53h56l-5 -67q26 -36 100 -36q46 0 78.5 21t32.5 60q0 45 -62 72l-70 31q-87 38 -87 107
q0 63 53.5 100.5t123.5 37.5q63 0 98.5 -23t35.5 -67q0 -25 -10 -54h-54zM298 545h-73l-64 151h54l50 -113l93 113h60z" />
    <glyph glyph-name="Tcommaaccent" unicode="&#x162;" horiz-adv-x="548" 
d="M100 676h488l-28 -161h-53l19 107h-165l-101 -568h96l-10 -54h-112l-31 -59q10 4 26 4q23 0 38.5 -15.5t15.5 -39.5q0 -37 -28 -62t-80 -25q-43 0 -89 23l15 41q40 -25 79 -25q52 0 52 41q0 13 -9 21t-24 8t-30 -5l-22 10l43 83h-94l9 54h97l101 568h-160l-19 -107h-52z
" />
    <glyph glyph-name="tcommaaccent" unicode="&#x163;" horiz-adv-x="326" 
d="M151 572l60 12l-23 -128h130l-9 -53h-130l-50 -287q-7 -39 4.5 -55.5t43.5 -16.5q40 0 77 14l1 -52q-38 -16 -84 -17l-26 -49q10 4 27 4q23 0 38 -15.5t15 -39.5q0 -37 -28 -62t-80 -25q-43 0 -89 23l16 41q40 -25 78 -25q52 0 52 41q0 13 -9 21t-24 8t-30 -5l-22 10
l40 76q-77 18 -58 124l51 287h-84l7 40l86 13z" />
    <glyph glyph-name="Tcaron" unicode="&#x164;" horiz-adv-x="548" 
d="M100 676h488l-28 -161h-53l19 107h-165l-101 -568h96l-10 -54h-250l9 54h97l101 568h-160l-19 -107h-52zM388 748h-73l-64 151h54l50 -113l93 113h60z" />
    <glyph glyph-name="tcaron" unicode="&#x165;" horiz-adv-x="325" 
d="M150 572l60 12l-23 -128h130l-9 -53h-130l-50 -287q-7 -39 4.5 -55.5t43.5 -16.5q40 0 77 14l1 -52q-41 -17 -93 -17q-114 0 -91 127l51 287h-84l7 40l86 13zM444 696l-69 -145h-48l49 145h68z" />
    <glyph glyph-name="Tbar" unicode="&#x166;" horiz-adv-x="548" 
d="M152 350h103l48 272h-159l-19 -107h-52l28 161h488l-29 -161h-52l19 107h-165l-49 -272h103l-10 -53h-102l-43 -243h96l-10 -54h-251l10 54h97l43 243h-103z" />
    <glyph glyph-name="tbar" unicode="&#x167;" horiz-adv-x="332" 
d="M157 572l59 12l-23 -128h131l-10 -53h-129l-24 -133h122l-9 -46h-121l-18 -108q-7 -39 4.5 -55.5t43.5 -16.5q40 0 77 14l1 -52q-41 -17 -93 -17q-114 0 -91 127l19 108h-86l9 46h85l24 133h-84l7 40l85 13z" />
    <glyph glyph-name="Utilde" unicode="&#x168;" horiz-adv-x="679" 
d="M633 622l-66 -375q-44 -258 -270 -258q-111 0 -165.5 61.5t-30.5 196.5l66 375h-68l9 54h227l-10 -54h-100l-67 -379q-19 -110 19.5 -154t121.5 -44q174 0 209 198l67 379h-99l10 54h226l-10 -54h-69zM560 828l-16 -50q-22 25 -53 25q-19 0 -64.5 -17t-74.5 -17
q-40 0 -59 25l16 49q19 -24 51 -24q23 0 67 17.5t74 17.5q35 0 59 -26z" />
    <glyph glyph-name="utilde" unicode="&#x169;" horiz-adv-x="541" 
d="M53 456h124l-52 -293q-11 -62 6.5 -90t68.5 -28q47 0 89 24t68 55l50 279h-79l10 53h135l-71 -403h74l-10 -53h-62q-60 0 -51 64q-69 -75 -166 -75q-149 0 -119 171l42 243h-67zM443 625l-16 -50q-22 25 -53 25q-19 0 -64.5 -17t-74.5 -17q-40 0 -59 25l16 49
q19 -24 51 -24q23 0 67 17.5t74 17.5q35 0 59 -26z" />
    <glyph glyph-name="Umacron" unicode="&#x16a;" horiz-adv-x="679" 
d="M633 622l-66 -375q-44 -258 -270 -258q-111 0 -165.5 61.5t-30.5 196.5l66 375h-68l9 54h227l-10 -54h-100l-67 -379q-19 -110 19.5 -154t121.5 -44q174 0 209 198l67 379h-99l10 54h226l-10 -54h-69zM297 838h263l-9 -53h-263z" />
    <glyph glyph-name="umacron" unicode="&#x16b;" horiz-adv-x="541" 
d="M53 456h124l-52 -293q-11 -62 6.5 -90t68.5 -28q47 0 89 24t68 55l50 279h-79l10 53h135l-71 -403h74l-10 -53h-62q-60 0 -51 64q-69 -75 -166 -75q-149 0 -119 171l42 243h-67zM187 635h263l-9 -53h-263z" />
    <glyph glyph-name="Ubreve" unicode="&#x16c;" horiz-adv-x="679" 
d="M633 622l-66 -375q-44 -258 -270 -258q-111 0 -165.5 61.5t-30.5 196.5l66 375h-68l9 54h227l-10 -54h-100l-67 -379q-19 -110 19.5 -154t121.5 -44q174 0 209 198l67 379h-99l10 54h226l-10 -54h-69zM522 884h48q-11 -58 -50.5 -94.5t-98.5 -36.5q-56 0 -84 36.5
t-18 94.5h44q-6 -37 11 -60.5t54 -23.5q38 0 62 23t32 61z" />
    <glyph glyph-name="ubreve" unicode="&#x16d;" horiz-adv-x="541" 
d="M53 456h124l-52 -293q-11 -62 6.5 -90t68.5 -28q47 0 89 24t68 55l50 279h-79l10 53h135l-71 -403h74l-10 -53h-62q-60 0 -51 64q-69 -75 -166 -75q-149 0 -119 171l42 243h-67zM398 681h48q-11 -58 -50.5 -94.5t-98.5 -36.5q-56 0 -84 36.5t-18 94.5h44q-6 -37 11 -60.5
t54 -23.5q38 0 62 23t32 61z" />
    <glyph glyph-name="Uring" unicode="&#x16e;" horiz-adv-x="679" 
d="M633 622l-66 -375q-44 -258 -270 -258q-111 0 -165.5 61.5t-30.5 196.5l66 375h-68l9 54h227l-10 -54h-100l-67 -379q-19 -110 19.5 -154t121.5 -44q174 0 209 198l67 379h-99l10 54h226l-10 -54h-69zM336 810q0 47 33 77.5t84 30.5q38 0 60.5 -21t22.5 -53
q0 -47 -33.5 -78t-85.5 -31q-36 0 -58.5 21.5t-22.5 53.5zM380 816q0 -43 45 -43q31 0 49 18t18 47q0 19 -12 31t-34 12q-29 0 -47.5 -18t-18.5 -47z" />
    <glyph glyph-name="uring" unicode="&#x16f;" horiz-adv-x="541" 
d="M53 456h124l-52 -293q-11 -62 6.5 -90t68.5 -28q47 0 89 24t68 55l50 279h-79l10 53h135l-71 -403h74l-10 -53h-62q-60 0 -51 64q-69 -75 -166 -75q-149 0 -119 171l42 243h-67zM212 607q0 47 33 77.5t84 30.5q38 0 60.5 -21t22.5 -53q0 -47 -33.5 -78t-85.5 -31
q-36 0 -58.5 21.5t-22.5 53.5zM256 613q0 -43 45 -43q31 0 49 18t18 47q0 19 -12 31t-34 12q-29 0 -47.5 -18t-18.5 -47z" />
    <glyph glyph-name="Uhungarumlaut" unicode="&#x170;" horiz-adv-x="679" 
d="M633 622l-66 -375q-44 -258 -270 -258q-111 0 -165.5 61.5t-30.5 196.5l66 375h-68l9 54h227l-10 -54h-100l-67 -379q-19 -110 19.5 -154t121.5 -44q174 0 209 198l67 379h-99l10 54h226l-10 -54h-69zM414 899h69l-111 -151h-60zM553 899h69l-112 -151h-59z" />
    <glyph glyph-name="uhungarumlaut" unicode="&#x171;" horiz-adv-x="541" 
d="M53 456h124l-52 -293q-11 -62 6.5 -90t68.5 -28q47 0 89 24t68 55l50 279h-79l10 53h135l-71 -403h74l-10 -53h-62q-60 0 -51 64q-69 -75 -166 -75q-149 0 -119 171l42 243h-67zM300 696h69l-111 -151h-60zM439 696h69l-112 -151h-59z" />
    <glyph glyph-name="Uogonek" unicode="&#x172;" horiz-adv-x="680" 
d="M635 622l-66 -375q-44 -248 -256 -257l-64 -45q-45 -31 -45 -64q0 -29 34 -29q30 0 55 16l2 -45q-39 -18 -74 -18q-36 0 -57 16.5t-21 46.5q0 52 66 96l41 29q-189 26 -148 254l66 375h-68l9 54h227l-10 -54h-100l-67 -379q-19 -110 19.5 -154t121.5 -44q175 0 209 198
l67 379h-99l10 54h226l-10 -54h-68z" />
    <glyph glyph-name="uogonek" unicode="&#x173;" horiz-adv-x="541" 
d="M53 456h124l-52 -293q-9 -58 5.5 -88t69.5 -30q47 0 89 24t68 55l50 279h-79l10 53h135l-71 -403h74l-10 -53l-82 -57q-42 -29 -42 -63q0 -29 32 -29q28 0 55 17l2 -45q-41 -19 -75 -19q-35 0 -56 17t-21 47q0 52 64 99l57 35q-33 1 -42 17t-5 45q-69 -75 -166 -75
q-149 0 -119 171l42 243h-67z" />
    <glyph glyph-name="Wcircumflex" unicode="&#x174;" horiz-adv-x="953" 
d="M750 622l10 54h255l-10 -54h-69l-277 -622h-75l-75 463l-240 -463h-75l-61 622h-68l9 54h228l-10 -54h-100l50 -561l247 476l-20 139h64l94 -614l247 560h-124zM544 899h73l64 -151h-55l-50 113l-92 -113h-61z" />
    <glyph glyph-name="wcircumflex" unicode="&#x175;" horiz-adv-x="762" 
d="M577 403l10 53h193l-10 -53h-59l-198 -403h-61q-21 162 -50 397q-15 -30 -193 -397h-58l-59 403h-56l9 53h187l-9 -53h-74l40 -333l188 386h66l50 -386l156 333h-72zM420 696h73l64 -151h-55l-50 113l-92 -113h-61z" />
    <glyph glyph-name="Ycircumflex" unicode="&#x176;" horiz-adv-x="592" 
d="M64 622l10 54h211l-10 -54h-90l114 -295l221 295h-91l9 54h219l-9 -54h-59l-267 -348l-39 -220h92l-9 -54h-249l10 54h97l39 220l-139 348h-60zM366 899h73l64 -151h-55l-50 113l-92 -113h-61z" />
    <glyph glyph-name="ycircumflex" unicode="&#x177;" horiz-adv-x="559" 
d="M-10 -215l8 45h105l112 184l-88 389h-94l9 53h155l-8 -49l66 -330l192 326h-120l9 53h243l-10 -53h-58l-342 -565q-38 -64 -104 -64q-46 0 -75 11zM328 696h73l64 -151h-55l-50 113l-92 -113h-61z" />
    <glyph glyph-name="Ydieresis" unicode="&#x178;" horiz-adv-x="592" 
d="M64 622l10 54h211l-10 -54h-90l114 -295l221 295h-91l9 54h219l-9 -54h-59l-267 -348l-39 -220h92l-9 -54h-249l10 54h97l39 220l-139 348h-60zM292 773q-40 0 -40 36q0 28 15.5 42.5t40.5 14.5q17 0 28 -9.5t11 -28.5q0 -27 -16.5 -41t-38.5 -14zM463 773q-39 0 -39 36
q0 28 15.5 42.5t40.5 14.5q16 0 27 -10t11 -28q0 -27 -16.5 -41t-38.5 -14z" />
    <glyph glyph-name="Zacute" unicode="&#x179;" horiz-adv-x="552" 
d="M563 676l-9 -52l-465 -570h304l26 149h57l-36 -203h-441l10 52l465 570h-291l-21 -124h-56l31 178h426zM418 899h69l-111 -151h-60z" />
    <glyph glyph-name="zacute" unicode="&#x17a;" horiz-adv-x="436" 
d="M407 456l-8 -48l-317 -359h212l18 104h50l-27 -153h-336l8 48l319 359h-195l-16 -87h-49l23 136h318zM323 696h69l-111 -151h-60z" />
    <glyph glyph-name="Zdotaccent" unicode="&#x17b;" horiz-adv-x="552" 
d="M563 676l-9 -52l-465 -570h304l26 149h57l-36 -203h-441l10 52l465 570h-291l-21 -124h-56l31 178h426zM350 773q-39 0 -39 36q0 28 15.5 42.5t40.5 14.5q16 0 27 -10t11 -28q0 -27 -16 -41t-39 -14z" />
    <glyph glyph-name="zdotaccent" unicode="&#x17c;" horiz-adv-x="436" 
d="M407 456l-8 -48l-317 -359h212l18 104h50l-27 -153h-336l8 48l319 359h-195l-16 -87h-49l23 136h318zM266 570q-39 0 -39 36q0 28 15.5 42.5t40.5 14.5q16 0 27 -10t11 -28q0 -27 -16 -41t-39 -14z" />
    <glyph glyph-name="Zcaron" unicode="&#x17d;" horiz-adv-x="552" 
d="M563 676l-9 -52l-465 -570h304l26 149h57l-36 -203h-441l10 52l465 570h-291l-21 -124h-56l31 178h426zM390 748h-73l-64 151h54l50 -113l93 113h60z" />
    <glyph glyph-name="zcaron" unicode="&#x17e;" horiz-adv-x="436" 
d="M407 456l-8 -48l-317 -359h212l18 104h50l-27 -153h-336l8 48l319 359h-195l-16 -87h-49l23 136h318zM296 545h-73l-64 151h54l50 -113l93 113h60z" />
    <glyph glyph-name="florin" unicode="&#x192;" 
d="M326 404l-83 -474q-26 -156 -151 -156q-29 0 -55 7l9 55q24 -6 50 -6q41 0 61.5 26t29.5 77l83 471h-98l9 52h98l16 94q27 156 152 156q29 0 55 -7l-10 -55q-22 6 -49 6q-41 0 -61.5 -25.5t-29.5 -77.5l-16 -91h107l-8 -52h-109z" />
    <glyph glyph-name="Aringacute" unicode="&#x1fa;" horiz-adv-x="667" 
d="M337 810q0 38 21.5 65t57.5 37l76 94h64l-80 -90q28 -6 45 -25.5t17 -46.5q0 -47 -34 -78t-86 -31q-36 0 -58.5 21.5t-22.5 53.5zM381 816q0 -42 45 -42q31 0 49 17.5t18 46.5q0 19 -12 31t-34 12q-29 0 -47.5 -18t-18.5 -47zM396 0l10 54h92l-31 168h-280l-92 -168h94
l-9 -54h-222l9 54h62l312 568h-59l10 54h228l-10 -54h-57l109 -568h61l-10 -54h-217zM213 277h248l-63 339z" />
    <glyph glyph-name="aringacute" unicode="&#x1fb;" horiz-adv-x="509" 
d="M384 408l31 48h31l-65 -370q-4 -19 2 -26.5t24 -7.5h32l-10 -51q-19 -4 -50 -4q-64 0 -55 68q-62 -76 -146 -76q-70 0 -106 43.5t-36 117.5q0 140 61.5 228t167.5 88q81 0 119 -58zM219 607q0 39 24.5 67.5t63.5 36.5l74 92h65l-83 -92q26 -7 41 -26t15 -44
q0 -47 -34 -78t-86 -31q-36 0 -58 21.5t-22 53.5zM329 123l39 221q-29 67 -104 67q-45 0 -79.5 -25t-52.5 -64.5t-26.5 -81.5t-8.5 -84q0 -112 96 -112q69 0 136 79zM263 613q0 -43 45 -43q30 0 48 18t18 47q0 19 -12 31t-34 12q-28 0 -46.5 -18t-18.5 -47z" />
    <glyph glyph-name="AEacute" unicode="&#x1fc;" horiz-adv-x="969" 
d="M783 899h69l-111 -151h-60zM289 277h241l61 339zM479 676h499l-27 -157h-57l18 103h-263l-42 -246h237l-9 -55h-238l-48 -267h267l20 112h56l-29 -166h-473l9 54h92l30 168h-280l-150 -168h92l-9 -54h-221l9 54h62l505 568h-59z" />
    <glyph glyph-name="aeacute" unicode="&#x1fd;" horiz-adv-x="743" 
d="M489 696h69l-111 -151h-60zM485 42q76 0 155 55l12 -51q-80 -57 -180 -57q-56 0 -93.5 23t-48.5 64q-29 -37 -85 -62t-113 -25q-60 0 -90 26.5t-30 73.5q0 80 56.5 115.5t170.5 50.5l90 12l21 121q-33 25 -99 25q-67 0 -102 -25l-15 -85h-47q-3 13 -3 37q0 126 181 126
q126 0 135 -66q52 66 153 66q72 0 108 -42t36 -110q0 -40 -22 -104h-294q-29 -168 104 -168zM389 259h240q9 24 9 52q0 47 -23.5 75t-70.5 28q-117 0 -155 -155zM77 102q0 -61 72 -61q82 0 151 62l21 118l-87 -13q-83 -12 -120 -37.5t-37 -68.5z" />
    <glyph glyph-name="Oslashacute" unicode="&#x1fe;" horiz-adv-x="649" 
d="M608 457q0 -208 -90.5 -338t-245.5 -130q-59 0 -107 25l-31 -52h-49l2 12l39 67q-65 62 -65 178q0 68 12 133t38.5 126t64.5 107t95 73.5t126 27.5q56 0 98 -20l24 40h53l-3 -11l-33 -55q72 -60 72 -183zM544 455q0 82 -43 126l-306 -516q34 -20 82 -20q122 0 194.5 112
t72.5 298zM125 219q0 -75 35 -120l304 515q-30 16 -71 16q-87 0 -149.5 -61t-90.5 -152t-28 -198zM463 899h69l-111 -151h-60z" />
    <glyph glyph-name="oslashacute" unicode="&#x1ff;" horiz-adv-x="490" 
d="M272 466q31 0 58 -8l31 61h47l-2 -11l-35 -69q65 -44 65 -146q0 -125 -63 -214.5t-174 -89.5q-29 0 -56 8l-30 -61h-44l3 12l32 65q-68 42 -68 149q0 127 62 215.5t174 88.5zM350 696h69l-111 -151h-60zM204 43q79 0 125 71t46 178q0 64 -36 91l-168 -336q12 -4 33 -4z
M97 163q0 -67 39 -93l166 338q-20 4 -34 4q-80 0 -125.5 -70.5t-45.5 -178.5z" />
    <glyph glyph-name="Scommaaccent" unicode="&#x218;" horiz-adv-x="526" 
d="M510 647l-29 -162h-49l10 126q-47 20 -112 20q-71 0 -114 -43t-43 -100q0 -39 20 -63t62 -42l72 -29q62 -24 93 -63.5t31 -104.5q0 -80 -65.5 -138.5t-176.5 -58.5q-112 0 -179 42l21 177h50l-5 -140q44 -25 122 -25q70 0 118.5 39.5t48.5 98.5q0 78 -85 114l-77 33
q-56 23 -85.5 59t-29.5 96q0 80 62 141.5t170 61.5q94 0 170 -39zM246 -71l-69 -145h-48l49 145h68z" />
    <glyph glyph-name="scommaaccent" unicode="&#x219;" horiz-adv-x="426" 
d="M315 322l7 64q-20 31 -83 31q-42 0 -74.5 -22.5t-32.5 -59.5q0 -39 55 -63l71 -32q48 -21 71 -46.5t23 -64.5q0 -68 -53.5 -104t-129.5 -36q-65 0 -109 23t-44 75q0 23 9 53h56l-5 -67q26 -36 100 -36q46 0 78.5 21t32.5 60q0 45 -62 72l-70 31q-87 38 -87 107
q0 63 53.5 100.5t123.5 37.5q63 0 98.5 -23t35.5 -67q0 -25 -10 -54h-54zM185 -71l-69 -145h-48l49 145h68z" />
    <glyph glyph-name="uni021A" unicode="&#x21a;" horiz-adv-x="549" 
d="M101 676h488l-28 -161h-53l19 107h-165l-101 -568h96l-10 -54h-250l9 54h97l101 568h-160l-19 -107h-52zM243 -71l-69 -145h-48l49 145h68z" />
    <glyph glyph-name="uni021B" unicode="&#x21b;" horiz-adv-x="326" 
d="M151 572l60 12l-23 -128h130l-9 -53h-130l-50 -287q-7 -39 4.5 -55.5t43.5 -16.5q40 0 77 14l1 -52q-41 -17 -93 -17q-114 0 -91 127l51 287h-84l7 40l86 13zM171 -71l-69 -145h-48l49 145h68z" />
    <glyph glyph-name="dotlessj" unicode="&#x237;" horiz-adv-x="245" 
d="M-36 -226l-19 49q50 20 73.5 50.5t36.5 100.5l75 429h-89l9 53h147l-86 -486q-14 -78 -47 -126.5t-100 -69.5z" />
    <glyph glyph-name="circumflex" unicode="&#x2c6;" horiz-adv-x="582" 
d="M379 696h73l64 -151h-55l-50 113l-92 -113h-61z" />
    <glyph glyph-name="caron" unicode="&#x2c7;" horiz-adv-x="582" 
d="M423 545h-73l-64 151h54l50 -113l93 113h60z" />
    <glyph glyph-name="breve" unicode="&#x2d8;" horiz-adv-x="582" 
d="M488 681h48q-11 -58 -50.5 -94.5t-98.5 -36.5q-56 0 -84 36.5t-18 94.5h44q-6 -37 11 -60.5t54 -23.5q38 0 62 23t32 61z" />
    <glyph glyph-name="dotaccent" unicode="&#x2d9;" horiz-adv-x="582" 
d="M390 570q-39 0 -39 36q0 28 15.5 42.5t40.5 14.5q16 0 27 -10t11 -28q0 -27 -16 -41t-39 -14z" />
    <glyph glyph-name="ring" unicode="&#x2da;" horiz-adv-x="582" 
d="M299 607q0 47 33 77.5t84 30.5q38 0 60.5 -21t22.5 -53q0 -47 -33.5 -78t-85.5 -31q-36 0 -58.5 21.5t-22.5 53.5zM343 613q0 -43 45 -43q31 0 49 18t18 47q0 19 -12 31t-34 12q-29 0 -47.5 -18t-18.5 -47z" />
    <glyph glyph-name="ogonek" unicode="&#x2db;" horiz-adv-x="582" 
d="M371 1v-1l-81 -57q-43 -28 -43 -63q0 -29 32 -29q27 0 56 17l1 -45q-38 -19 -74 -19q-35 0 -56 17t-21 47q0 56 65 96l80 51z" />
    <glyph glyph-name="tilde" unicode="&#x2dc;" horiz-adv-x="582" 
d="M530 625l-16 -50q-22 25 -53 25q-19 0 -64.5 -17t-74.5 -17q-40 0 -59 25l16 49q19 -24 51 -24q23 0 67 17.5t74 17.5q35 0 59 -26z" />
    <glyph glyph-name="hungarumlaut" unicode="&#x2dd;" horiz-adv-x="582" 
d="M346 696h69l-111 -151h-60zM485 696h69l-112 -151h-59z" />
    <glyph glyph-name="uni0394" unicode="&#x394;" horiz-adv-x="701" 
d="M-10 0l395 676h78l155 -676h-628zM536 54l-119 564l-324 -564h443z" />
    <glyph glyph-name="uni03A9" unicode="&#x3a9;" horiz-adv-x="683" 
d="M25 54h161q-44 38 -74.5 108t-30.5 148q0 71 20 136.5t59 120t103.5 87t146.5 32.5q113 0 169.5 -71t56.5 -179q0 -127 -64 -226.5t-152 -155.5h161l-9 -54h-233l10 54q97 61 160 156t63 223q0 89 -41.5 143t-126.5 54q-66 0 -117.5 -27t-82 -73.5t-45.5 -103t-15 -120.5
q0 -78 31.5 -145t81.5 -107l-10 -54h-232z" />
    <glyph glyph-name="uni03BC" unicode="&#x3bc;" horiz-adv-x="584" 
d="M90 -216h-57l109 619h-75l9 53h133l-52 -291q-11 -60 6.5 -90t76.5 -30q45 0 85.5 23t64.5 55l49 280h-94l9 53h152l-72 -403h69l-9 -53h-120l13 69q-76 -80 -165 -80q-64 0 -91 30z" />
    <glyph glyph-name="pi" unicode="&#x3c0;" horiz-adv-x="541" 
d="M59 0l71 403h-89l9 53h489l-10 -53h-98l-50 -281q-7 -41 4.5 -59.5t45.5 -18.5q17 0 28 2l-9 -51q-18 -6 -40 -6q-109 0 -87 129l51 285h-187l-71 -403h-57z" />
    <glyph glyph-name="Wgrave" unicode="&#x1e80;" horiz-adv-x="953" 
d="M750 622l10 54h255l-10 -54h-69l-277 -622h-75l-75 463l-240 -463h-75l-61 622h-68l9 54h228l-10 -54h-100l50 -561l247 476l-20 139h64l94 -614l247 560h-124zM473 899h66l48 -151h-55z" />
    <glyph glyph-name="wgrave" unicode="&#x1e81;" horiz-adv-x="762" 
d="M577 403l10 53h193l-10 -53h-59l-198 -403h-61q-21 162 -50 397q-15 -30 -193 -397h-58l-59 403h-56l9 53h187l-9 -53h-74l40 -333l188 386h66l50 -386l156 333h-72zM339 696h66l48 -151h-55z" />
    <glyph glyph-name="Wacute" unicode="&#x1e82;" horiz-adv-x="953" 
d="M750 622l10 54h255l-10 -54h-69l-277 -622h-75l-75 463l-240 -463h-75l-61 622h-68l9 54h228l-10 -54h-100l50 -561l247 476l-20 139h64l94 -614l247 560h-124zM621 899h69l-111 -151h-60z" />
    <glyph glyph-name="wacute" unicode="&#x1e83;" horiz-adv-x="762" 
d="M577 403l10 53h193l-10 -53h-59l-198 -403h-61q-21 162 -50 397q-15 -30 -193 -397h-58l-59 403h-56l9 53h187l-9 -53h-74l40 -333l188 386h66l50 -386l156 333h-72zM491 696h69l-111 -151h-60z" />
    <glyph glyph-name="Wdieresis" unicode="&#x1e84;" horiz-adv-x="953" 
d="M750 622l10 54h255l-10 -54h-69l-277 -622h-75l-75 463l-240 -463h-75l-61 622h-68l9 54h228l-10 -54h-100l50 -561l247 476l-20 139h64l94 -614l247 560h-124zM462 773q-40 0 -40 36q0 28 15.5 42.5t40.5 14.5q17 0 28 -9.5t11 -28.5q0 -27 -16.5 -41t-38.5 -14z
M633 773q-39 0 -39 36q0 28 15.5 42.5t40.5 14.5q16 0 27 -10t11 -28q0 -27 -16.5 -41t-38.5 -14z" />
    <glyph glyph-name="wdieresis" unicode="&#x1e85;" horiz-adv-x="762" 
d="M577 403l10 53h193l-10 -53h-59l-198 -403h-61q-21 162 -50 397q-15 -30 -193 -397h-58l-59 403h-56l9 53h187l-9 -53h-74l40 -333l188 386h66l50 -386l156 333h-72zM345 570q-40 0 -40 36q0 28 15.5 42.5t40.5 14.5q17 0 28 -9.5t11 -28.5q0 -27 -16.5 -41t-38.5 -14z
M516 570q-39 0 -39 36q0 28 15.5 42.5t40.5 14.5q16 0 27 -10t11 -28q0 -27 -16.5 -41t-38.5 -14z" />
    <glyph glyph-name="Ygrave" unicode="&#x1ef2;" horiz-adv-x="592" 
d="M64 622l10 54h211l-10 -54h-90l114 -295l221 295h-91l9 54h219l-9 -54h-59l-267 -348l-39 -220h92l-9 -54h-249l10 54h97l39 220l-139 348h-60zM285 899h66l48 -151h-55z" />
    <glyph glyph-name="ygrave" unicode="&#x1ef3;" horiz-adv-x="559" 
d="M-10 -215l8 45h105l112 184l-88 389h-94l9 53h155l-8 -49l66 -330l192 326h-120l9 53h243l-10 -53h-58l-342 -565q-38 -64 -104 -64q-46 0 -75 11zM237 696h66l48 -151h-55z" />
    <glyph glyph-name="endash" unicode="&#x2013;" horiz-adv-x="585" 
d="M69 298h444v-57h-444v57z" />
    <glyph glyph-name="emdash" unicode="&#x2014;" horiz-adv-x="725" 
d="M69 298h584v-57h-584v57z" />
    <glyph glyph-name="quoteleft" unicode="&#x2018;" horiz-adv-x="193" 
d="M84 469l78 207h46l-55 -207h-69z" />
    <glyph glyph-name="quoteright" unicode="&#x2019;" horiz-adv-x="189" 
d="M214 676l-78 -207h-47l57 207h68z" />
    <glyph glyph-name="quotesinglbase" unicode="&#x201a;" horiz-adv-x="198" 
d="M107 94l-78 -208h-47l56 208h69z" />
    <glyph glyph-name="quotedblleft" unicode="&#x201c;" horiz-adv-x="310" 
d="M201 469l79 207h46l-56 -207h-69zM84 469l78 207h46l-55 -207h-69z" />
    <glyph glyph-name="quotedblright" unicode="&#x201d;" horiz-adv-x="306" 
d="M214 676l-78 -207h-47l57 207h68zM331 676l-78 -207h-46l56 207h68z" />
    <glyph glyph-name="quotedblbase" unicode="&#x201e;" horiz-adv-x="315" 
d="M107 93l-78 -207h-47l56 207h69zM224 93l-78 -207h-47l56 207h69z" />
    <glyph glyph-name="dagger" unicode="&#x2020;" horiz-adv-x="427" 
d="M43 293h148l71 403h51l-71 -403h148l-9 -48h-148l-80 -461h-52l81 461h-147z" />
    <glyph glyph-name="daggerdbl" unicode="&#x2021;" horiz-adv-x="443" 
d="M78 449h148l44 247h50l-44 -247h149l-9 -48h-148l-56 -324h147l-8 -48h-148l-43 -245h-51l43 245h-148l9 48h147l57 324h-147z" />
    <glyph glyph-name="bullet" unicode="&#x2022;" 
d="M277 173q-43 0 -71 27t-28 69t28 69.5t71 27.5q44 0 72 -27.5t28 -69.5t-28 -69t-72 -27z" />
    <glyph glyph-name="ellipsis" unicode="&#x2026;" horiz-adv-x="558" 
d="M59 -7q-19 0 -31 12t-12 30q0 24 17.5 41t41.5 17q19 0 31 -12t12 -30q0 -24 -17.5 -41t-41.5 -17zM405 -7q-19 0 -31 12t-12 30q0 25 17 41.5t41 16.5q19 0 31.5 -12t12.5 -30q0 -24 -17.5 -41t-41.5 -17zM234 -7q-19 0 -31 12t-12 30q0 25 17.5 41.5t42.5 16.5
q19 0 30.5 -12t11.5 -30q0 -25 -17 -41.5t-42 -16.5z" />
    <glyph glyph-name="perthousand" unicode="&#x2030;" horiz-adv-x="973" 
d="M634 676l-2 -7l-517 -669h-51l2 7l514 669h54zM259 686q58 0 87 -34.5t29 -86.5q0 -80 -43 -133.5t-124 -53.5q-56 0 -85 34t-29 88q0 79 43.5 132.5t121.5 53.5zM215 429q53 0 79.5 37t26.5 92q0 34 -17 55t-53 21q-52 0 -78 -36.5t-26 -91.5q0 -34 17 -55.5t51 -21.5z
M490 297q58 0 87 -34t29 -87q0 -80 -43 -133.5t-124 -53.5q-56 0 -85 34.5t-29 87.5q0 79 43.5 132.5t121.5 53.5zM446 41q54 0 80.5 36.5t26.5 91.5q0 35 -17 56t-53 21q-52 0 -78 -36.5t-26 -91.5q0 -35 16.5 -56t50.5 -21zM793 297q58 0 87 -34.5t29 -86.5
q0 -79 -43 -133t-124 -54q-56 0 -85 34t-29 88q0 79 43.5 132.5t121.5 53.5zM749 41q53 0 79.5 36.5t26.5 91.5q0 35 -17 56t-53 21q-52 0 -78 -36.5t-26 -91.5q0 -35 17 -56t51 -21z" />
    <glyph glyph-name="guilsinglleft" unicode="&#x2039;" horiz-adv-x="298" 
d="M42 270l201 207l33 -37l-158 -173l97 -172l-44 -32z" />
    <glyph glyph-name="guilsinglright" unicode="&#x203a;" horiz-adv-x="298" 
d="M124 477l129 -207l-202 -207l-33 36l159 173l-98 173z" />
    <glyph glyph-name="fraction" unicode="&#x2044;" horiz-adv-x="102" 
d="M355 676l-1 -7l-518 -669h-50l1 7l515 669h53z" />
    <glyph glyph-name="zerosuperior" unicode="&#x2070;" horiz-adv-x="344" 
d="M145 564q0 -81 63 -81q51 0 80 52t29 129q0 84 -63 84q-47 0 -78 -53t-31 -131zM371 669q0 -98 -44.5 -165t-127.5 -67q-52 0 -80 33t-28 90q0 97 46.5 165t124.5 68q52 0 80.5 -33t28.5 -91z" />
    <glyph glyph-name="foursuperior" unicode="&#x2074;" horiz-adv-x="318" 
d="M346 559l-7 -42h-56l-13 -74h-50l13 74h-174l7 38l165 179q12 13 22.5 26.5t14.5 20.5l5 7h58l-40 -229h55zM127 558l113 1l27 154z" />
    <glyph glyph-name="fivesuperior" unicode="&#x2075;" horiz-adv-x="306" 
d="M67 466l16 74h43l-9 -46q24 -12 59 -12q43 0 67.5 22.5t24.5 61.5q0 53 -64 53q-35 0 -80 -18l-20 5l56 182h190l-8 -45h-150l-28 -93q26 14 66 14q44 0 67.5 -23.5t23.5 -63.5q0 -62 -40.5 -101t-112.5 -39q-60 0 -101 29z" />
    <glyph glyph-name="sixsuperior" unicode="&#x2076;" horiz-adv-x="328" 
d="M272 748q-53 0 -86 -33t-40 -89q14 19 43.5 32t63.5 13q42 0 66.5 -27t24.5 -70q0 -58 -38.5 -97.5t-104.5 -39.5q-56 0 -82 36t-26 97q0 58 16.5 105.5t60.5 82.5t111 35q50 0 91 -25l-26 -42q-37 22 -74 22zM207 482q41 0 62.5 25t21.5 60q0 55 -57 55q-58 0 -89 -46
q-4 -40 10 -67t52 -27z" />
    <glyph glyph-name="sevensuperior" unicode="&#x2077;" horiz-adv-x="279" 
d="M98 443l186 303h-129l-11 -63h-47l18 105h240l-7 -36q-24 -27 -53 -77l-138 -232h-59z" />
    <glyph glyph-name="eightsuperior" unicode="&#x2078;" horiz-adv-x="330" 
d="M359 713q0 -58 -67 -93q47 -24 47 -73q0 -50 -40 -80t-107 -30q-52 0 -81.5 22.5t-29.5 60.5q0 34 21 59.5t51 39.5q-35 22 -35 66q0 45 37.5 76.5t99.5 31.5q51 0 77.5 -22.5t26.5 -57.5zM245 584l-55 19q-57 -32 -57 -71q0 -50 71 -50q41 0 61 16.5t20 42.5
q0 31 -40 43zM170 693q0 -28 36 -40l46 -17q57 30 57 68q0 46 -65 46q-37 0 -55.5 -16t-18.5 -41z" />
    <glyph glyph-name="ninesuperior" unicode="&#x2079;" horiz-adv-x="328" 
d="M175 482q53 0 86.5 34t36.5 90q-15 -20 -43 -33.5t-62 -13.5q-42 0 -66.5 26.5t-24.5 66.5q0 61 39 101t105 40q55 0 81.5 -35.5t26.5 -93.5q0 -44 -9.5 -82t-29.5 -72t-58.5 -53.5t-91.5 -19.5q-51 0 -90 25l25 43q36 -23 75 -23zM239 748q-42 0 -62.5 -25t-20.5 -62
q0 -53 57 -53q55 0 88 48q8 92 -62 92z" />
    <glyph glyph-name="zeroinferior" unicode="&#x2080;" horiz-adv-x="344" 
d="M49 21q0 -82 63 -82q51 0 80 52t29 130q0 83 -63 83q-47 0 -78 -53t-31 -130zM275 125q0 -97 -44.5 -164t-127.5 -67q-52 0 -80 33t-28 90q0 97 46.5 165t124.5 68q52 0 80.5 -33t28.5 -92z" />
    <glyph glyph-name="oneinferior" unicode="&#x2081;" horiz-adv-x="263" 
d="M-34 -100l9 45h90l44 249l-86 -30l-4 41l104 40h46l-53 -300h76l-7 -45h-219z" />
    <glyph glyph-name="twoinferior" unicode="&#x2082;" horiz-adv-x="311" 
d="M65 129l-50 -4q-1 6 -1 13q0 46 37.5 79t93.5 33q50 0 75 -23.5t25 -59.5q0 -41 -25.5 -74t-83.5 -78q-15 -11 -36.5 -28.5t-35.5 -28.5t-17 -13h126l8 41h43l-16 -86h-239l7 39q21 14 122 97q44 36 57.5 48.5t25 32t11.5 42.5q0 47 -54 47q-34 0 -53.5 -19t-19.5 -49v-9
z" />
    <glyph glyph-name="threeinferior" unicode="&#x2083;" horiz-adv-x="307" 
d="M59 152h-39l8 66q52 32 108 32q52 0 77.5 -23.5t25.5 -58.5q0 -39 -22.5 -62.5t-55.5 -31.5q26 -5 42.5 -23t16.5 -47q0 -50 -36.5 -80t-105.5 -30q-75 0 -110 38l30 38q31 -31 84 -31q86 0 86 65q0 45 -74 45h-39l7 44h37q39 0 63 17.5t24 49.5q0 45 -57 45
q-31 0 -63 -14z" />
    <glyph glyph-name="fourinferior" unicode="&#x2084;" horiz-adv-x="318" 
d="M251 16l-8 -42h-55l-14 -74h-49l12 74h-174l8 38l164 179l43 54h57l-40 -229h56zM31 15l114 1l27 154z" />
    <glyph glyph-name="fiveinferior" unicode="&#x2085;" horiz-adv-x="306" 
d="M-29 -77l16 74h43l-8 -47q24 -11 58 -11q43 0 68 22.5t25 61.5q0 52 -65 52q-39 0 -80 -18l-20 5l56 183h191l-9 -45h-149l-29 -93q26 14 67 14q44 0 67.5 -24t23.5 -63q0 -62 -41 -101t-113 -39q-61 0 -101 29z" />
    <glyph glyph-name="sixinferior" unicode="&#x2086;" horiz-adv-x="328" 
d="M176 205q-53 0 -86 -33t-40 -89q14 19 43.5 32t63.5 13q42 0 66.5 -27t24.5 -70q0 -58 -38.5 -97.5t-104.5 -39.5q-55 0 -81.5 36t-26.5 97q0 42 10 79.5t31 71t59 53t88 19.5t91 -25l-26 -43q-35 23 -74 23zM112 -61q41 0 62 25t21 60q0 55 -57 55q-58 0 -89 -46
q-4 -40 10 -67t53 -27z" />
    <glyph glyph-name="seveninferior" unicode="&#x2087;" horiz-adv-x="278" 
d="M1 -100l187 303h-130l-11 -63h-47l19 105h239l-7 -36q-18 -21 -53 -77l-138 -232h-59z" />
    <glyph glyph-name="eightinferior" unicode="&#x2088;" horiz-adv-x="329" 
d="M263 170q0 -59 -66 -94q46 -22 46 -72t-40 -80t-106 -30q-53 0 -82.5 22t-29.5 61q0 33 21.5 59t51.5 39q-35 21 -35 67q0 45 37 76.5t99 31.5q51 0 77.5 -22.5t26.5 -57.5zM150 41l-56 19q-57 -32 -57 -72q0 -22 18 -35.5t53 -13.5q41 0 61.5 16.5t20.5 42.5
q0 29 -40 43zM75 150q0 -27 35 -41l46 -17q57 28 57 68q0 20 -16 33.5t-48 13.5q-37 0 -55.5 -16t-18.5 -41z" />
    <glyph glyph-name="nineinferior" unicode="&#x2089;" horiz-adv-x="328" 
d="M79 -61q53 0 86.5 34t36.5 90q-15 -20 -43 -33.5t-61 -13.5q-42 0 -66.5 26.5t-24.5 66.5q0 61 38.5 101t104.5 40q55 0 81.5 -35.5t26.5 -93.5q0 -44 -9 -82t-29.5 -72t-58.5 -53.5t-91 -19.5q-50 0 -91 25l26 42q36 -22 74 -22zM143 205q-41 0 -62 -25t-21 -62
q0 -53 57 -53q55 0 88 48q10 92 -62 92z" />
    <glyph glyph-name="rupee" unicode="&#x20a8;" horiz-adv-x="535" 
d="M129 676h409l-9 -49h-130q48 -42 39 -117h70l-9 -49h-69q-18 -67 -70 -110.5t-128 -53.5q48 -38 81 -101.5t42 -141.5h85l-10 -54h-220l10 54h69q-8 73 -41.5 135.5t-87.5 102.5h-99l9 54h107q154 0 189 115h-275l8 49h276q2 55 -28 83.5t-105 28.5h-123z" />
    <glyph glyph-name="Euro" unicode="&#x20ac;" 
d="M75 427h43q31 119 105 189t187 70q91 0 160 -43l-25 -54q-62 40 -140 40q-86 0 -142 -54.5t-82 -147.5h280l-21 -49h-270q-7 -34 -11 -87h250l-19 -49h-232q1 -86 36 -140.5t110 -54.5q88 0 166 48l7 -57q-90 -49 -180 -49q-101 0 -150.5 67t-51.5 186h-53l9 49h46
q1 38 10 87h-41z" />
    <glyph glyph-name="afii61289" unicode="&#x2113;" horiz-adv-x="428" 
d="M357 37q-58 -48 -125 -48q-102 0 -102 128v132q-43 -37 -83 -63l-23 38q52 35 106 83v228q0 86 30 128.5t81 42.5q50 0 74.5 -35t24.5 -96q0 -137 -162 -291v-161q0 -85 56 -85q52 0 100 41zM290 571q0 84 -51 84q-29 0 -45 -29.5t-16 -81.5v-199q112 117 112 226z" />
    <glyph glyph-name="uni2117" unicode="&#x2117;" horiz-adv-x="821" 
d="M75 338q0 158 98.5 255t248.5 97t248 -97t98 -255t-98 -256.5t-248 -98.5t-248.5 98.5t-98.5 256.5zM127 338q0 -139 82.5 -222.5t212.5 -83.5q129 0 211.5 83.5t82.5 222.5t-82 221t-212 82t-212.5 -82t-82.5 -221zM277 540h174q73 0 110 -34.5t37 -91.5
q0 -56 -37.5 -90t-109.5 -34h-75v-116h78v-43h-177v43h49v322h-49v44zM545 415q0 81 -93 81h-76v-161h76q93 0 93 80z" />
    <glyph glyph-name="trademark" unicode="&#x2122;" horiz-adv-x="686" 
d="M143 607h188l-12 -70h-32l7 37h-45l-30 -172h33l-5 -32h-105l4 32h35l30 172h-41l-7 -37h-32zM477 414l90 193h81l-7 -33h-24l-9 -172h26l-6 -32h-92l6 32h29l11 162l-94 -194h-41l-22 193l-48 -161h31l-5 -32h-91l5 32h24l53 172h-25l6 33h82z" />
    <glyph glyph-name="Omega" unicode="&#x2126;" horiz-adv-x="683" 
d="M25 54h161q-44 38 -74.5 108t-30.5 148q0 71 20 136.5t59 120t103.5 87t146.5 32.5q113 0 169.5 -71t56.5 -179q0 -127 -64 -226.5t-152 -155.5h161l-9 -54h-233l10 54q97 61 160 156t63 223q0 89 -41.5 143t-126.5 54q-66 0 -117.5 -27t-82 -73.5t-45.5 -103t-15 -120.5
q0 -78 31.5 -145t81.5 -107l-10 -54h-232z" />
    <glyph glyph-name="estimated" unicode="&#x212e;" horiz-adv-x="766" 
d="M718 338h-511v-230q74 -74 183 -74q80 0 139 36.5t106 115.5l45 -27q-59 -92 -125 -131.5t-165 -39.5q-146 0 -236.5 100t-90.5 250q0 151 90 250.5t237 99.5q146 0 236.5 -98t91.5 -252zM207 384h369v184q-81 75 -187 75q-107 0 -182 -75v-184z" />
    <glyph glyph-name="onethird" unicode="&#x2153;" horiz-adv-x="681" 
d="M455 252h-39l8 66q52 32 108 32q52 0 77.5 -23.5t25.5 -58.5q0 -39 -22.5 -62.5t-55.5 -31.5q26 -5 42.5 -23t16.5 -47q0 -50 -36.5 -80t-105.5 -30q-75 0 -110 38l30 38q31 -31 84 -31q86 0 86 65q0 45 -74 45h-39l7 44h37q39 0 63 17.5t24 49.5q0 45 -57 45
q-31 0 -63 -14zM62 336l8 45h91l43 249l-85 -30l-5 41l105 40h45l-52 -300h76l-8 -45h-218zM659 676l-1 -7l-518 -669h-50l1 7l515 669h53z" />
    <glyph glyph-name="twothirds" unicode="&#x2154;" horiz-adv-x="698" 
d="M162 565l-51 -4q-1 6 -1 13q0 47 37 79.5t93 32.5q50 0 76 -23t26 -60q0 -40 -21.5 -70t-64.5 -64l-112 -88h126l7 41h43l-15 -86h-239l7 39q7 5 122 97q58 48 75.5 69.5t17.5 54.5q0 46 -54 46q-34 0 -53.5 -19t-19.5 -49q0 -5 1 -9zM675 676l-1 -7l-518 -669h-50l1 7
l515 669h53zM472 252h-39l8 66q52 32 108 32q52 0 77.5 -23.5t25.5 -58.5q0 -39 -22.5 -62.5t-55.5 -31.5q26 -5 42.5 -23t16.5 -47q0 -50 -36.5 -80t-105.5 -30q-75 0 -110 38l30 38q31 -31 84 -31q86 0 86 65q0 45 -74 45h-39l7 44h37q39 0 63 17.5t24 49.5q0 45 -57 45
q-32 0 -63 -14z" />
    <glyph glyph-name="oneeighth" unicode="&#x215b;" horiz-adv-x="683" 
d="M62 336l8 45h91l43 249l-85 -30l-5 41l105 40h45l-52 -300h76l-8 -45h-218zM659 676l-1 -7l-518 -669h-50l1 7l515 669h53zM646 270q0 -59 -66 -94q46 -22 46 -72t-40 -80t-106 -30q-53 0 -82.5 22t-29.5 61q0 33 21.5 59t51.5 39q-35 21 -35 67q0 45 37 76.5t99 31.5
q51 0 77.5 -22.5t26.5 -57.5zM533 141l-56 19q-57 -32 -57 -72q0 -22 18 -35.5t53 -13.5q41 0 61.5 16.5t20.5 42.5q0 29 -40 43zM458 250q0 -27 35 -41l46 -17q57 28 57 68q0 20 -16 33.5t-48 13.5q-37 0 -55.5 -16t-18.5 -41z" />
    <glyph glyph-name="threeeighths" unicode="&#x215c;" horiz-adv-x="677" 
d="M653 676l-1 -7l-518 -669h-50l1 7l515 669h53zM155 588h-39l8 66q49 32 108 32q52 0 77.5 -23t25.5 -58q0 -39 -22.5 -62.5t-55.5 -31.5q26 -6 42.5 -24t16.5 -47q0 -50 -36.5 -80t-105.5 -30q-74 0 -110 38l30 39q30 -32 84 -32q86 0 86 66q0 44 -74 44h-39l7 45h37
q39 0 63 17t24 49q0 45 -57 45q-35 0 -63 -14zM640 270q0 -59 -66 -94q46 -22 46 -72t-40 -80t-106 -30q-53 0 -82.5 22t-29.5 61q0 33 21.5 59t51.5 39q-35 21 -35 67q0 45 37 76.5t99 31.5q51 0 77.5 -22.5t26.5 -57.5zM527 141l-56 19q-57 -32 -57 -72q0 -22 18 -35.5
t53 -13.5q41 0 61.5 16.5t20.5 42.5q0 29 -40 43zM452 250q0 -27 35 -41l46 -17q57 28 57 68q0 20 -16 33.5t-48 13.5q-37 0 -55.5 -16t-18.5 -41z" />
    <glyph glyph-name="fiveeighths" unicode="&#x215d;" horiz-adv-x="679" 
d="M642 270q0 -59 -66 -94q46 -22 46 -72t-40 -80t-106 -30q-53 0 -82.5 22t-29.5 61q0 33 21.5 59t51.5 39q-35 21 -35 67q0 45 37 76.5t99 31.5q51 0 77.5 -22.5t26.5 -57.5zM529 141l-56 19q-57 -32 -57 -72q0 -22 18 -35.5t53 -13.5q41 0 61.5 16.5t20.5 42.5
q0 29 -40 43zM454 250q0 -27 35 -41l46 -17q57 28 57 68q0 20 -16 33.5t-48 13.5q-37 0 -55.5 -16t-18.5 -41zM655 676l-1 -7l-518 -669h-50l1 7l515 669h53zM90 359l16 74h43l-9 -46q24 -12 59 -12q43 0 67.5 22.5t24.5 61.5q0 53 -64 53q-35 0 -80 -18l-20 5l56 182h190
l-8 -45h-150l-28 -93q26 14 66 14q44 0 67.5 -23.5t23.5 -63.5q0 -62 -40.5 -101t-112.5 -39q-60 0 -101 29z" />
    <glyph glyph-name="seveneighths" unicode="&#x215e;" horiz-adv-x="674" 
d="M649 676l-1 -7l-518 -669h-50l1 7l515 669h53zM637 270q0 -59 -66 -94q46 -22 46 -72t-40 -80t-106 -30q-53 0 -82.5 22t-29.5 61q0 33 21.5 59t51.5 39q-35 21 -35 67q0 45 37 76.5t99 31.5q51 0 77.5 -22.5t26.5 -57.5zM524 141l-56 19q-57 -32 -57 -72q0 -22 18 -35.5
t53 -13.5q41 0 61.5 16.5t20.5 42.5q0 29 -40 43zM449 250q0 -27 35 -41l46 -17q57 28 57 68q0 20 -16 33.5t-48 13.5q-37 0 -55.5 -16t-18.5 -41zM174 336l186 303h-129l-11 -63h-47l18 105h240l-7 -36q-24 -27 -53 -77l-138 -232h-59z" />
    <glyph glyph-name="arrowleft" unicode="&#x2190;" horiz-adv-x="750" 
d="M81 252v46l236 237l37 -38l-196 -195h515v-54h-515l195 -195l-36 -37z" />
    <glyph glyph-name="arrowup" unicode="&#x2191;" horiz-adv-x="750" 
d="M353 574h46l237 -236l-37 -37l-196 195v-515h-54v515l-194 -195l-38 37z" />
    <glyph glyph-name="arrowright" unicode="&#x2192;" horiz-adv-x="750" 
d="M676 301v-46l-236 -237l-37 38l195 195h-515v54h515l-195 195l37 37z" />
    <glyph glyph-name="arrowdown" unicode="&#x2193;" horiz-adv-x="750" 
d="M402 -21h-46l-236 236l37 37l195 -196v515h54v-515l195 195l37 -36z" />
    <glyph glyph-name="uni2196" unicode="&#x2196;" horiz-adv-x="750" 
d="M152 470l32 32h334v-52h-277l365 -365l-37 -37l-365 365v-277h-52v334z" />
    <glyph glyph-name="uni2197" unicode="&#x2197;" horiz-adv-x="750" 
d="M572 502l31 -31v-335h-52v277l-365 -365l-37 37l365 365h-276v52h334z" />
    <glyph glyph-name="uni2198" unicode="&#x2198;" horiz-adv-x="750" 
d="M604 83l-31 -32h-335v52h277l-365 365l37 37l365 -365v277h52v-334z" />
    <glyph glyph-name="uni2199" unicode="&#x2199;" horiz-adv-x="750" 
d="M184 50l-32 32v334h52v-277l365 365l37 -37l-365 -365h277v-52h-334z" />
    <glyph glyph-name="partialdiff" unicode="&#x2202;" horiz-adv-x="506" 
d="M283 696h76q39 -38 63 -113t24 -156q0 -79 -12.5 -151t-40 -139.5t-80 -107.5t-124.5 -40q-76 0 -114.5 49.5t-38.5 131.5q0 114 54.5 195.5t154.5 81.5q53 0 87.5 -32t49.5 -79q5 40 5 94q0 168 -104 266zM196 45q72 0 111.5 56.5t61.5 159.5q-29 127 -125 127
q-74 0 -111 -64t-37 -151q0 -56 24.5 -92t75.5 -36z" />
    <glyph glyph-name="Delta" unicode="&#x2206;" horiz-adv-x="701" 
d="M-10 0l395 676h78l155 -676h-628zM536 54l-119 564l-324 -564h443z" />
    <glyph glyph-name="product" unicode="&#x220f;" horiz-adv-x="741" 
d="M124 676h633l-10 -54h-65l-138 -784h65l-9 -54h-217l10 54h92l138 784h-384l-138 -784h93l-10 -54h-217l10 54h66l138 784h-66z" />
    <glyph glyph-name="summation" unicode="&#x2211;" horiz-adv-x="585" 
d="M413 -51h56l-30 -165h-479l12 71l328 388l-195 368l13 65h476l-28 -157h-56l17 103h-363l204 -383l-342 -401h367z" />
    <glyph glyph-name="minus" unicode="&#x2212;" 
d="M53 242v57h449v-57h-449z" />
    <glyph glyph-name="uni2215" unicode="&#x2215;" horiz-adv-x="102" 
d="M355 676l-1 -7l-518 -669h-50l1 7l515 669h53z" />
    <glyph glyph-name="uni2219" unicode="&#x2219;" horiz-adv-x="230" 
d="M106 219q-19 0 -32 13t-13 31q0 24 17 40t41 16q19 0 31.5 -13t12.5 -31q0 -24 -16.5 -40t-40.5 -16z" />
    <glyph glyph-name="radical" unicode="&#x221a;" horiz-adv-x="567" 
d="M627 696l-398 -912h-67l-93 361l-78 -37l-14 50l136 62l88 -369l363 845h63z" />
    <glyph glyph-name="infinity" unicode="&#x221e;" horiz-adv-x="762" 
d="M690 290q0 -79 -50.5 -130t-126.5 -51q-88 0 -141 113q-94 -112 -178 -112q-56 0 -91.5 36t-35.5 92q0 78 50 129t124 51q87 0 144 -117q98 119 177 119q56 0 92 -37t36 -93zM634 284q0 38 -21.5 61.5t-59.5 23.5q-9 0 -18 -2t-18.5 -6.5t-16.5 -8.5t-16.5 -12.5
t-15.5 -13.5t-16 -16t-14 -15.5t-14.5 -17t-13.5 -15.5q15 -31 27 -50.5t33.5 -35.5t46.5 -16q51 0 84 34.5t33 89.5zM349 262q-57 107 -111 107q-48 0 -82.5 -36.5t-34.5 -89.5q0 -38 22.5 -61t59.5 -23q61 0 146 103z" />
    <glyph glyph-name="integral" unicode="&#x222b;" horiz-adv-x="331" 
d="M381 644q-22 6 -49 6q-40 0 -60.5 -25.5t-30.5 -77.5l-109 -617q-27 -156 -153 -156q-27 0 -53 7l10 55q23 -6 49 -6q40 0 60.5 25.5t30.5 77.5l109 617q26 156 154 156q26 0 52 -7z" />
    <glyph glyph-name="approxequal" unicode="&#x2248;" 
d="M453 410l20 -49q-38 -56 -99 -56q-32 0 -102.5 35.5t-93.5 35.5q-20 0 -37 -11t-29 -23l-11 -13l-20 48q38 56 101 56q26 0 95.5 -35.5t100.5 -35.5q14 0 28.5 7t22.5 15t16 17zM453 215l20 -48q-38 -56 -99 -56q-32 0 -102.5 35.5t-93.5 35.5q-15 0 -29.5 -7t-23 -15.5
t-16 -16.5t-8.5 -9l-20 49q39 56 101 56q26 0 95.5 -35.5t100.5 -35.5q14 0 28.5 7t22.5 15l16 16z" />
    <glyph glyph-name="notequal" unicode="&#x2260;" 
d="M87 186h139l42 168h-181v57h195l33 129l42 -10l-31 -119h137v-57h-151l-43 -168h194v-57h-208l-34 -134l-40 10l31 124h-125v57z" />
    <glyph glyph-name="lessequal" unicode="&#x2264;" 
d="M81 338v59l376 181v-60l-319 -151l319 -150v-60zM81 92h376v-57h-376v57z" />
    <glyph glyph-name="greaterequal" unicode="&#x2265;" 
d="M477 397v-59l-377 -181v60l320 150l-320 151v60zM100 92h377v-57h-377v57z" />
    <glyph glyph-name="lozenge" unicode="&#x25ca;" horiz-adv-x="601" 
d="M506 349l-141 289l-245 -289l142 -292zM574 349l-295 -349h-53l-173 349l296 347h53z" />
    <glyph glyph-name="circle" unicode="&#x25cb;" horiz-adv-x="806" 
d="M75 339q0 156 95.5 251.5t243.5 95.5t243 -95.5t95 -251.5t-95.5 -253t-242.5 -97t-243 97t-96 253zM145 339q0 -132 73.5 -207t195.5 -75t195.5 75t73.5 207q0 131 -73 205t-196 74t-196 -74t-73 -205z" />
    <glyph glyph-name="commaaccent" unicode="&#xf6c3;" horiz-adv-x="582" 
d="M318 -71l-69 -145h-48l49 145h68z" />
    <glyph glyph-name="uniF8FF" unicode="&#xf8ff;" horiz-adv-x="641" 
d="M122 0v656h413v-656h-413zM160 38h337v580h-337v-580z" />
    <glyph glyph-name="exclam.sc" horiz-adv-x="250" 
d="M126 158h-47l52 349h68zM76 -5q-17 0 -27.5 10.5t-10.5 25.5q0 20 15.5 34t36.5 14q17 0 27.5 -10t10.5 -25q0 -20 -15.5 -34.5t-36.5 -14.5z" />
    <glyph glyph-name="numbersign.sc" horiz-adv-x="504" 
d="M101 152h-78l15 52h81l38 115h-76l14 52h80l45 136h55l-45 -136h108l47 136h54l-46 -136h82l-14 -52h-85l-39 -115h82l-15 -52h-85l-50 -152h-55l52 152h-110l-51 -152h-55zM212 319l-39 -115h110l39 115h-110z" />
    <glyph glyph-name="dollar.sc" horiz-adv-x="462" 
d="M187 -77h-38l12 69q-80 3 -131 33l15 133h49v-99q31 -15 76 -17l34 190l-25 10q-91 35 -91 113q0 62 43.5 108t121.5 51l10 55h38l-10 -54q72 -5 125 -32l-22 -125h-48l5 92q-33 12 -69 13l-33 -183l26 -10q99 -36 99 -123q0 -60 -45 -104.5t-130 -49.5zM310 140
q0 26 -18.5 47.5t-52.5 30.5l-31 -175q47 5 74.5 31t27.5 66zM151 363q0 -25 14 -39t49 -31l30 168q-43 -6 -68 -33t-25 -65z" />
    <glyph glyph-name="percent.sc" horiz-adv-x="570" 
d="M508 507l-2 -7l-408 -500h-46l1 7l406 500h49zM198 515q48 0 73 -27t25 -68q0 -61 -34.5 -101t-100.5 -40q-46 0 -71 27t-25 68q0 60 34.5 100.5t98.5 40.5zM167 327q39 0 59 24.5t20 61.5q0 24 -14 38.5t-41 14.5q-38 0 -57 -24t-19 -62q0 -24 13 -38.5t39 -14.5z
M399 227q48 0 73.5 -27t25.5 -67q0 -61 -35 -101t-101 -40q-47 0 -71.5 27t-24.5 68q0 60 34.5 100t98.5 40zM369 40q39 0 58.5 24.5t19.5 61.5q0 52 -54 52q-39 0 -58 -24t-19 -61q0 -53 53 -53z" />
    <glyph glyph-name="ampersand.sc" horiz-adv-x="537" 
d="M382 -8q-62 0 -70 54q-59 -54 -137 -54q-68 0 -105.5 33t-37.5 88q0 64 36.5 102t89.5 51q-68 19 -68 92q0 70 46 113.5t139 43.5q62 0 118 -29l-27 -50q-45 25 -99 25q-118 0 -118 -101q0 -73 98 -73h101l15 82l56 10l-16 -92h81l-10 -50h-80l-25 -144q-5 -25 3 -36.5
t33 -11.5q16 0 46 10l-4 -51q-36 -12 -65 -12zM190 45q68 0 125 50l24 142h-106q-139 0 -139 -115q0 -77 96 -77z" />
    <glyph glyph-name="section.sc" horiz-adv-x="462" 
d="M388 213q0 -66 -79 -107q46 -31 46 -72q0 -56 -51.5 -88t-138.5 -32q-91 0 -152 37l16 97h45l-2 -64q40 -22 102 -22q117 0 117 60q0 8 -2 14t-8 12t-10.5 10t-15.5 9.5t-16.5 8t-19.5 8.5t-19 8l-51 21q-95 39 -95 100q0 31 21 59t56 46q-43 30 -43 75q0 51 48.5 86.5
t137.5 35.5q75 0 146 -31l-16 -91h-44v55q-43 18 -95 18q-53 0 -83 -17.5t-30 -46.5q0 -23 19 -36.5t64 -30.5l54 -20q49 -19 74 -43t25 -59zM172 297q-55 -29 -55 -71q0 -6 1.5 -11.5t5.5 -11t7.5 -9.5t10.5 -8.5t11.5 -7.5t14.5 -7.5t14.5 -6.5t16 -7t15.5 -7l52 -22
q24 11 41.5 30t17.5 43q0 23 -18.5 37t-53.5 27z" />
    <glyph glyph-name="paragraph.sc" horiz-adv-x="431" 
d="M257 342l-66 -377h-52l28 158q-74 0 -106.5 20t-32.5 68q0 59 37.5 95t110.5 36h81zM177 -173l-21 39q39 16 57.5 40t27.5 73l64 363h50l-63 -366q-5 -25 -10 -42t-17 -39t-34 -39.5t-54 -28.5z" />
    <glyph glyph-name="parenleft.sc" horiz-adv-x="269" 
d="M157 -91l-47 -16q-56 120 -56 250q0 76 12.5 138.5t40 117t54 93.5t72.5 95l41 -15q-82 -115 -121 -207t-39 -222q0 -120 43 -234z" />
    <glyph glyph-name="slash.sc" horiz-adv-x="301" 
d="M297 503l-1 -8l-246 -495h-55l2 9l243 494h57z" />
    <glyph glyph-name="parenright.sc" horiz-adv-x="271" 
d="M-16 -91q89 124 123.5 215.5t34.5 210.5q0 113 -43 237l47 15q55 -117 55 -249q0 -135 -41.5 -232t-135.5 -213z" />
    <glyph glyph-name="bracketleft.sc" horiz-adv-x="297" 
d="M148 582h153l-10 -51h-93l-103 -582h94l-9 -51h-152z" />
    <glyph glyph-name="backslash.sc" horiz-adv-x="298" 
d="M80 495l1 8h57l70 -494l-2 -9h-54z" />
    <glyph glyph-name="bracketright.sc" horiz-adv-x="298" 
d="M104 582h152l-120 -684h-152l9 51h94l103 582h-94z" />
    <glyph glyph-name="braceleft.sc" horiz-adv-x="282" 
d="M205 475l-28 -156q-11 -66 -75 -79q20 -3 37 -22t10 -57l-27 -158q-6 -34 4.5 -45t39.5 -12l-8 -48q-59 0 -81.5 23t-12.5 80l27 155q11 60 -59 60l8 48q70 0 81 60l27 155q10 56 40.5 79.5t89.5 23.5l-8 -48q-29 -1 -44 -12.5t-21 -46.5z" />
    <glyph glyph-name="bar.sc" horiz-adv-x="254" 
d="M140 -102h-41v684h41v-684z" />
    <glyph glyph-name="braceright.sc" horiz-adv-x="282" 
d="M236 264l-8 -48q-69 0 -80 -60l-27 -155q-10 -57 -40.5 -80t-90.5 -23l8 48q30 1 45 12t21 45l28 158q6 37 29 56t46 23q-59 13 -48 79l28 156q6 35 -5 46.5t-40 12.5l9 48q59 0 81.5 -23.5t12.5 -79.5l-27 -155q-6 -33 9 -46.5t49 -13.5z" />
    <glyph glyph-name="zero.sc" horiz-adv-x="512" 
d="M114 172q0 -126 101 -126q174 0 174 285q0 130 -103 130q-78 0 -125 -68t-47 -221zM450 332q0 -340 -241 -340q-156 0 -156 178q0 70 11 127t36.5 108.5t74.5 80.5t118 29q157 0 157 -183z" />
    <glyph glyph-name="one.sc" horiz-adv-x="377" 
d="M3 0l9 53h131l69 393l-125 -41l-6 48l148 54h52l-81 -454h113l-8 -53h-302z" />
    <glyph glyph-name="two.sc" horiz-adv-x="448" 
d="M132 342l-58 -3q-1 74 52 125t130 51q69 0 104.5 -33.5t35.5 -86.5q0 -32 -13 -63.5t-30.5 -56t-51.5 -56.5t-59.5 -52.5t-71.5 -56.5t-72 -57h201l11 65h50l-20 -118h-335l9 47q36 27 175 147q92 78 119 112t27 82q0 34 -21 54.5t-65 20.5q-49 0 -82.5 -34t-34.5 -87z
" />
    <glyph glyph-name="three.sc" horiz-adv-x="453" 
d="M131 377h-47l12 89q64 49 155 49q70 0 104.5 -31.5t34.5 -82.5q0 -62 -32.5 -96.5t-80.5 -47.5q38 -8 62 -34.5t24 -67.5q0 -74 -52.5 -118.5t-151.5 -44.5q-102 0 -151 54l35 47q45 -49 123 -49q70 0 102.5 29.5t32.5 79.5q0 74 -112 74h-56l9 54h53q59 0 96.5 27.5
t37.5 82.5q0 34 -25 52.5t-63 18.5q-54 0 -100 -24z" />
    <glyph glyph-name="four.sc" horiz-adv-x="464" 
d="M406 162l-9 -49h-82l-20 -113h-57l20 113h-253l8 45l246 272q18 20 33.5 39t21.5 29l7 9h63l-60 -345h82zM81 162h186l46 259z" />
    <glyph glyph-name="five.sc" horiz-adv-x="444" 
d="M13 34l22 103h50l-13 -71q40 -22 90 -22q70 0 107.5 37t37.5 103q0 40 -23.5 62.5t-70.5 22.5q-62 0 -117 -30l-29 5l79 263h266l-9 -53h-219l-49 -159q42 27 102 27q63 0 97.5 -34.5t34.5 -92.5q0 -92 -56 -147.5t-156 -55.5q-89 0 -144 42z" />
    <glyph glyph-name="six.sc" horiz-adv-x="473" 
d="M304 462q-84 0 -133 -63t-58 -149q19 31 59.5 54.5t91.5 23.5q66 0 101 -36.5t35 -96.5q0 -89 -53.5 -146t-142.5 -57q-79 0 -117.5 46.5t-38.5 130.5q0 50 8.5 97.5t28.5 93t49.5 79.5t75 55t102.5 21q70 0 128 -31l-30 -50q-50 28 -106 28zM208 44q66 0 99 41.5
t33 101.5q0 38 -22 61.5t-68 23.5q-85 0 -142 -83q-15 -145 100 -145z" />
    <glyph glyph-name="seven.sc" horiz-adv-x="406" 
d="M64 0l273 458h-207l-17 -96h-54l25 145h334l-9 -44q-28 -35 -70 -106l-209 -357h-66z" />
    <glyph glyph-name="eight.sc" horiz-adv-x="489" 
d="M430 399q0 -50 -29.5 -86.5t-72.5 -57.5q71 -31 71 -104q0 -72 -55.5 -115.5t-146.5 -43.5q-76 0 -118.5 31t-42.5 87q0 53 31.5 92.5t79.5 61.5q-54 29 -54 94q0 64 51 110t136 46q75 0 112.5 -32t37.5 -83zM193 244q-30 -16 -48 -29t-33.5 -37.5t-15.5 -54.5
q0 -36 27.5 -57.5t80.5 -21.5q66 0 99.5 27t33.5 74q0 51 -60 71zM279 275q92 45 92 114q0 33 -24 53.5t-74 20.5q-60 0 -90 -27t-30 -69q0 -50 51 -67z" />
    <glyph glyph-name="nine.sc" horiz-adv-x="475" 
d="M53 75q54 -31 109 -31q87 0 135.5 58t54.5 149q-18 -31 -61.5 -55.5t-91.5 -24.5q-66 0 -100.5 36.5t-34.5 95.5q0 93 54 152.5t146 59.5q76 0 113.5 -53t37.5 -143q0 -145 -63 -236t-196 -91q-83 0 -132 33zM257 462q-66 0 -99.5 -42.5t-33.5 -104.5q0 -40 22 -64
t67 -24q82 0 140 84q9 151 -96 151z" />
    <glyph glyph-name="question.sc" horiz-adv-x="375" 
d="M114 375h-47l10 91q73 49 147 49q58 0 90.5 -29.5t32.5 -74.5q0 -110 -150 -168l-15 -85h-52l21 117q136 42 136 123q0 27 -19 45.5t-56 18.5q-45 0 -87 -23zM129 -5q-17 0 -27.5 10.5t-10.5 25.5q0 20 16 34t37 14q17 0 27.5 -10t10.5 -25q0 -20 -15.5 -34.5
t-37.5 -14.5z" />
    <glyph glyph-name="a.sc" horiz-adv-x="562" 
d="M316 0l8 51h71l-23 111h-216l-64 -111h71l-8 -51h-184l9 51h48l234 405h-47l9 51h198l-9 -51h-44l88 -405h48l-9 -51h-180zM180 212h184l-49 236z" />
    <glyph glyph-name="b.sc" horiz-adv-x="513" 
d="M6 0l9 51h58l72 405h-59l9 51h215q65 0 99 -28t34 -77q0 -54 -29 -91.5t-72 -44.5q36 -7 59 -35t23 -71q0 -85 -54.5 -122.5t-143.5 -37.5h-220zM131 51h95q139 0 139 110q0 77 -108 77h-93zM173 287h87q59 0 90.5 27t31.5 79q0 63 -89 63h-91z" />
    <glyph glyph-name="c.sc" horiz-adv-x="504" 
d="M397 325l15 114q-47 21 -93 21q-105 0 -155.5 -73.5t-50.5 -189.5q0 -66 30 -107.5t96 -41.5q88 0 161 42l9 -52q-86 -46 -180 -46q-89 0 -133.5 53.5t-44.5 145.5q0 145 69.5 234.5t205.5 89.5q78 0 152 -36l-30 -154h-51z" />
    <glyph glyph-name="d.sc" horiz-adv-x="559" 
d="M73 51l72 405h-59l10 51h180q223 0 223 -188q0 -155 -76.5 -237t-225.5 -82h-190l8 51h58zM131 51h78q229 0 229 265q0 140 -163 140h-73z" />
    <glyph glyph-name="e.sc" horiz-adv-x="485" 
d="M347 132h54l-24 -132h-371l8 51h59l72 405h-59l9 51h369l-22 -127h-55l13 76h-198l-30 -171h183l-9 -51h-183l-32 -183h201z" />
    <glyph glyph-name="f.sc" horiz-adv-x="462" 
d="M7 0l8 51h58l72 405h-58l9 51h363l-23 -132h-55l15 81h-194l-34 -192h190l-9 -52h-190l-28 -161h88l-10 -51h-202z" />
    <glyph glyph-name="g.sc" horiz-adv-x="539" 
d="M274 243h195l-39 -213q-86 -38 -182 -38q-97 0 -147.5 54t-50.5 149q0 138 72 229t211 91q88 0 158 -28l-27 -137h-51l12 96q-45 13 -102 13q-107 0 -159 -73t-52 -185q0 -72 34.5 -113.5t108.5 -41.5q66 0 124 21l22 125h-137z" />
    <glyph glyph-name="h.sc" horiz-adv-x="621" 
d="M412 456l9 51h180l-9 -51h-51l-71 -405h50l-8 -51h-180l9 51h71l33 188h-283l-33 -188h71l-9 -51h-180l9 51h51l71 405h-50l9 51h180l-9 -51h-72l-29 -164h284l29 164h-72z" />
    <glyph glyph-name="i.sc" horiz-adv-x="291" 
d="M2 0l10 51h65l72 405h-66l8 51h187l-9 -51h-63l-71 -405h63l-10 -51h-186z" />
    <glyph glyph-name="j.sc" horiz-adv-x="273" 
d="M70 456l9 51h182l-9 -51h-51l-79 -446q-23 -128 -141 -180l-28 40q95 49 111 141l79 445h-73z" />
    <glyph glyph-name="k.sc" horiz-adv-x="546" 
d="M191 264l207 192h-45l9 51h182l-9 -51h-62l-215 -194l153 -211h61l-9 -51h-183l9 51h55zM203 456l-71 -405h60l-10 -51h-177l10 51h58l71 405h-58l9 51h176l-8 -51h-60z" />
    <glyph glyph-name="l.sc" horiz-adv-x="441" 
d="M329 152h54l-27 -152h-349l8 51h58l72 405h-58l9 51h183l-9 -51h-68l-71 -405h180z" />
    <glyph glyph-name="m.sc" horiz-adv-x="747" 
d="M335 71l223 436h144l-9 -51h-58l-15 -405h57l-10 -51h-184l9 51h72l19 392l-229 -443h-61l-66 443l-125 -392h76l-9 -51h-184l9 51h52l131 405h-58l9 51h143z" />
    <glyph glyph-name="n.sc" horiz-adv-x="613" 
d="M400 456l10 51h195l-10 -51h-54l-80 -456h-64l-201 425l-66 -374h85l-8 -51h-199l8 51h56l72 405h-56l9 51h121l199 -426l66 375h-83z" />
    <glyph glyph-name="o.sc" horiz-adv-x="548" 
d="M112 183q0 -137 121 -137q91 0 142.5 72t51.5 205q0 138 -121 138q-87 0 -140.5 -76t-53.5 -202zM489 326q0 -154 -68 -244t-194 -90q-91 0 -134.5 52t-43.5 136q0 145 68.5 240t194.5 95q92 0 134.5 -52t42.5 -137z" />
    <glyph glyph-name="p.sc" horiz-adv-x="488" 
d="M202 456l-71 -405h95l-9 -51h-211l9 51h58l72 405h-58l9 51h214q75 0 112.5 -33.5t37.5 -88.5q0 -184 -199 -184h-49l9 52h49q74 0 102 34t28 90q0 79 -94 79h-104z" />
    <glyph glyph-name="q.sc" horiz-adv-x="555" 
d="M489 326q0 -140 -60 -234q23 -43 35 -92h-60q-29 88 -88.5 139.5t-149.5 51.5q-18 0 -54 -4v-4q0 -137 121 -137q55 0 100 29q16 -13 26 -49q-56 -34 -132 -34q-91 0 -134.5 52t-43.5 136q0 145 68.5 240t194.5 95q92 0 134.5 -52t42.5 -137zM306 461q-78 0 -129 -61
t-62 -165q32 5 63 5q130 0 212 -93q37 76 37 176q0 138 -121 138z" />
    <glyph glyph-name="r.sc" horiz-adv-x="534" 
d="M73 50l73 407h-59l8 50h219q155 0 155 -121q0 -65 -40 -102.5t-112 -48.5q32 -26 55.5 -77.5t31.5 -107.5h65l-9 -50h-178l8 50h54q-5 52 -30 102t-62 78h-90l-31 -180h64l-9 -50h-179l8 50h58zM408 385q0 72 -95 72h-110l-33 -178h103q135 0 135 106z" />
    <glyph glyph-name="s.sc" horiz-adv-x="449" 
d="M410 483l-21 -125h-49l6 92q-41 13 -85 13q-53 0 -84.5 -28.5t-31.5 -71.5q0 -45 60 -68l65 -25q98 -37 98 -123q0 -63 -50 -109t-144 -46q-93 0 -150 33l15 133h49v-99q40 -18 93 -18q55 0 89.5 27.5t34.5 71.5q0 50 -66 76l-66 26q-91 35 -91 113q0 65 49.5 112.5
t136.5 47.5q81 0 142 -32z" />
    <glyph glyph-name="t.sc" horiz-adv-x="471" 
d="M78 507h396l-22 -130h-50l14 79h-123l-71 -405h75l-9 -51h-209l10 51h76l71 405h-117l-14 -79h-49z" />
    <glyph glyph-name="u.sc" horiz-adv-x="574" 
d="M242 -8q-86 0 -131.5 48t-28.5 149l48 267h-54l10 51h187l-9 -51h-77l-48 -271q-13 -75 16 -107t93 -32q130 0 155 139l48 271h-76l9 51h187l-8 -51h-55l-48 -271q-35 -193 -218 -193z" />
    <glyph glyph-name="v.sc" horiz-adv-x="552" 
d="M374 456l9 51h191l-9 -51h-56l-245 -456h-79l-85 456h-52l9 51h185l-9 -51h-73l72 -401l212 401h-70z" />
    <glyph glyph-name="w.sc" horiz-adv-x="789" 
d="M594 456l9 51h206l-9 -51h-53l-210 -456h-72l-60 334l-180 -334h-71l-51 456h-55l10 51h190l-9 -51h-78l40 -396l185 344l-20 103h66l75 -447l182 396h-95z" />
    <glyph glyph-name="x.sc" horiz-adv-x="540" 
d="M72 456l8 51h183l-9 -51h-55l73 -156l127 156h-56l9 51h185l-9 -51h-61l-167 -194l108 -211h60l-9 -51h-182l9 51h56l-81 168l-138 -168h58l-8 -51h-187l9 51h59l179 211l-99 194h-62z" />
    <glyph glyph-name="y.sc" horiz-adv-x="507" 
d="M49 456l9 51h176l-8 -51h-71l90 -203l162 203h-71l9 51h186l-10 -51h-47l-207 -253l-27 -152h71l-9 -51h-204l9 51h75l28 152l-114 253h-47z" />
    <glyph glyph-name="z.sc" horiz-adv-x="475" 
d="M454 507l-8 -48l-363 -408h235l20 112h54l-29 -163h-360l8 48l363 408h-224l-16 -90h-53l25 141h348z" />
    <glyph glyph-name="agrave.sc" horiz-adv-x="562" 
d="M316 0l8 51h71l-23 111h-216l-64 -111h71l-8 -51h-184l9 51h48l234 405h-47l9 51h198l-9 -51h-44l88 -405h48l-9 -51h-180zM180 212h184l-49 236zM259 726h62l48 -151h-51z" />
    <glyph glyph-name="aacute.sc" horiz-adv-x="562" 
d="M316 0l8 51h71l-23 111h-216l-64 -111h71l-8 -51h-184l9 51h48l234 405h-47l9 51h198l-9 -51h-44l88 -405h48l-9 -51h-180zM180 212h184l-49 236zM404 726h69l-111 -151h-60z" />
    <glyph glyph-name="acircumflex.sc" horiz-adv-x="562" 
d="M316 0l8 51h71l-23 111h-216l-64 -111h71l-8 -51h-184l9 51h48l234 405h-47l9 51h198l-9 -51h-44l88 -405h48l-9 -51h-180zM180 212h184l-49 236zM326 726h73l64 -151h-55l-50 113l-92 -113h-61z" />
    <glyph glyph-name="atilde.sc" horiz-adv-x="562" 
d="M316 0l8 51h71l-23 111h-216l-64 -111h71l-8 -51h-184l9 51h48l234 405h-47l9 51h198l-9 -51h-44l88 -405h48l-9 -51h-180zM180 212h184l-49 236zM482 655l-16 -50q-22 25 -53 25q-19 0 -64.5 -17t-74.5 -17q-42 0 -59 25l16 49q19 -24 51 -24q23 0 67 17.5t74 17.5
q35 0 59 -26z" />
    <glyph glyph-name="adieresis.sc" horiz-adv-x="562" 
d="M316 0l8 51h71l-23 111h-216l-64 -111h71l-8 -51h-184l9 51h48l234 405h-47l9 51h198l-9 -51h-44l88 -405h48l-9 -51h-180zM180 212h184l-49 236zM257 600q-40 0 -40 36q0 28 15.5 42.5t40.5 14.5q17 0 28 -9.5t11 -28.5q0 -27 -16.5 -41t-38.5 -14zM428 600
q-39 0 -39 36q0 28 15.5 42.5t40.5 14.5q16 0 27 -10t11 -28q0 -27 -16.5 -41t-38.5 -14z" />
    <glyph glyph-name="amacron.sc" horiz-adv-x="562" 
d="M316 0l8 51h71l-23 111h-216l-64 -111h71l-8 -51h-184l9 51h48l234 405h-47l9 51h198l-9 -51h-44l88 -405h48l-9 -51h-180zM180 212h184l-49 236zM220 663h264l-10 -53h-263z" />
    <glyph glyph-name="abreve.sc" horiz-adv-x="562" 
d="M316 0l8 51h71l-23 111h-216l-64 -111h71l-8 -51h-184l9 51h48l234 405h-47l9 51h198l-9 -51h-44l88 -405h48l-9 -51h-180zM180 212h184l-49 236zM435 701h46q-11 -58 -51.5 -94.5t-97.5 -36.5q-56 0 -84 36.5t-18 94.5h44q-6 -37 11 -60.5t54 -23.5q38 0 63 23.5
t33 60.5z" />
    <glyph glyph-name="aring.sc" horiz-adv-x="562" 
d="M316 0l8 51h71l-23 111h-216l-64 -111h71l-8 -51h-184l9 51h48l234 405h-47l9 51h198l-9 -51h-44l88 -405h48l-9 -51h-180zM180 212h184l-49 236zM251 634q0 47 33 78t85 31q39 0 60.5 -21t21.5 -54q0 -47 -33.5 -78t-84.5 -31q-38 0 -60 21t-22 54zM295 640
q0 -19 12 -30.5t33 -11.5q31 0 49.5 17.5t18.5 46.5q0 19 -12.5 31t-34.5 12q-29 0 -47.5 -18t-18.5 -47z" />
    <glyph glyph-name="aringacute.sc" horiz-adv-x="562" 
d="M316 0l8 51h71l-23 111h-216l-64 -111h71l-8 -51h-184l9 51h48l234 405h-47l9 51h198l-9 -51h-44l88 -405h48l-9 -51h-180zM251 634q0 39 24.5 68t64.5 37l71 89h66l-81 -90q26 -6 41 -25t15 -45q0 -47 -33.5 -78t-85.5 -31q-38 0 -60 21t-22 54zM180 212h184l-49 236z
M295 640q0 -19 12 -30.5t33 -11.5q31 0 49.5 17.5t18.5 46.5q0 19 -12.5 31t-33.5 12q-29 0 -48 -18t-19 -47z" />
    <glyph glyph-name="aogonek.sc" horiz-adv-x="562" 
d="M316 0l8 51h71l-23 111h-216l-64 -111h71l-8 -51h-184l9 51h48l234 405h-47l9 51h198l-9 -51h-44l88 -405h48l-9 -51h-43l-81 -57q-43 -28 -43 -63q0 -29 32 -29q27 0 56 17l1 -45q-38 -19 -74 -19q-35 0 -56 17t-21 47q0 56 65 96l54 36h-70zM180 212h184l-49 236z" />
    <glyph glyph-name="ae.sc" horiz-adv-x="805" 
d="M374 507h410l-22 -127h-54l13 76h-198l-30 -171h183l-10 -51h-182l-32 -183h201l14 81h54l-23 -132h-389l9 51h76l20 111h-213l-108 -111h65l-9 -51h-183l9 51h48l390 405h-47zM243 212h179l41 230z" />
    <glyph glyph-name="aeacute.sc" horiz-adv-x="805" 
d="M374 507h410l-22 -127h-54l13 76h-198l-30 -171h183l-10 -51h-182l-32 -183h201l14 81h54l-23 -132h-389l9 51h76l20 111h-213l-108 -111h65l-9 -51h-183l9 51h48l390 405h-47zM243 212h179l41 230zM652 726h69l-111 -151h-60z" />
    <glyph glyph-name="cacute.sc" horiz-adv-x="504" 
d="M397 325l15 114q-47 21 -93 21q-105 0 -155.5 -73.5t-50.5 -189.5q0 -66 30 -107.5t96 -41.5q88 0 161 42l9 -52q-86 -46 -180 -46q-89 0 -133.5 53.5t-44.5 145.5q0 145 69.5 234.5t205.5 89.5q78 0 152 -36l-30 -154h-51zM403 726h69l-111 -151h-60z" />
    <glyph glyph-name="ccircumflex.sc" horiz-adv-x="504" 
d="M397 325l15 114q-47 21 -93 21q-105 0 -155.5 -73.5t-50.5 -189.5q0 -66 30 -107.5t96 -41.5q88 0 161 42l9 -52q-86 -46 -180 -46q-89 0 -133.5 53.5t-44.5 145.5q0 145 69.5 234.5t205.5 89.5q78 0 152 -36l-30 -154h-51zM323 726h73l64 -151h-55l-50 113l-92 -113h-61
z" />
    <glyph glyph-name="ccaron.sc" horiz-adv-x="504" 
d="M397 325l15 114q-47 21 -93 21q-105 0 -155.5 -73.5t-50.5 -189.5q0 -66 30 -107.5t96 -41.5q88 0 161 42l9 -52q-86 -46 -180 -46q-89 0 -133.5 53.5t-44.5 145.5q0 145 69.5 234.5t205.5 89.5q78 0 152 -36l-30 -154h-51zM373 575h-73l-64 151h55l50 -113l92 113h61z
" />
    <glyph glyph-name="cdotaccent.sc" horiz-adv-x="504" 
d="M397 325l15 114q-47 21 -93 21q-105 0 -155.5 -73.5t-50.5 -189.5q0 -66 30 -107.5t96 -41.5q88 0 161 42l9 -52q-86 -46 -180 -46q-89 0 -133.5 53.5t-44.5 145.5q0 145 69.5 234.5t205.5 89.5q78 0 152 -36l-30 -154h-51zM338 600q-39 0 -39 36q0 28 15.5 42.5
t40.5 14.5q16 0 27 -10t11 -28q0 -27 -16 -41t-39 -14z" />
    <glyph glyph-name="ccedilla.sc" horiz-adv-x="503" 
d="M397 325l15 114q-47 21 -93 21q-105 0 -155.5 -73.5t-50.5 -189.5q0 -66 30 -107.5t96 -41.5q88 0 161 42l9 -52q-74 -41 -155 -45l-29 -53q12 4 27 4q23 0 38.5 -15.5t15.5 -39.5q0 -37 -28 -62t-80 -25q-44 0 -90 23l16 41q40 -25 78 -25q53 0 53 41q0 13 -9 21t-24 8
q-17 0 -30 -5q-12 5 -23 10l41 77q-79 5 -119 58t-40 140q0 145 69.5 234.5t205.5 89.5q78 0 152 -36l-30 -154h-51z" />
    <glyph glyph-name="dcaron.sc" horiz-adv-x="559" 
d="M73 51l72 405h-59l10 51h180q223 0 223 -188q0 -155 -76.5 -237t-225.5 -82h-190l8 51h58zM131 51h78q229 0 229 265q0 140 -163 140h-73zM349 575h-73l-64 151h55l50 -113l92 113h61z" />
    <glyph glyph-name="dcroat.sc" horiz-adv-x="566" 
d="M81 51l34 194h-56l9 48h55l29 163h-58l9 51h180q224 0 224 -188q0 -155 -77 -237t-226 -82h-190l8 51h59zM138 51h79q229 0 229 265q0 140 -164 140h-73l-28 -163h118l-8 -48h-119z" />
    <glyph glyph-name="eth.sc" horiz-adv-x="566" 
d="M81 51l34 194h-56l9 48h55l29 163h-58l9 51h180q224 0 224 -188q0 -155 -77 -237t-226 -82h-190l8 51h59zM138 51h79q229 0 229 265q0 140 -164 140h-73l-28 -163h118l-8 -48h-119z" />
    <glyph glyph-name="egrave.sc" horiz-adv-x="485" 
d="M347 132h54l-24 -132h-371l8 51h59l72 405h-59l9 51h369l-22 -127h-55l13 76h-198l-30 -171h183l-9 -51h-183l-32 -183h201zM220 726h62l48 -151h-51z" />
    <glyph glyph-name="eacute.sc" horiz-adv-x="485" 
d="M347 132h54l-24 -132h-371l8 51h59l72 405h-59l9 51h369l-22 -127h-55l13 76h-198l-30 -171h183l-9 -51h-183l-32 -183h201zM370 726h69l-111 -151h-60z" />
    <glyph glyph-name="ecircumflex.sc" horiz-adv-x="485" 
d="M347 132h54l-24 -132h-371l8 51h59l72 405h-59l9 51h369l-22 -127h-55l13 76h-198l-30 -171h183l-9 -51h-183l-32 -183h201zM289 726h73l64 -151h-55l-50 113l-92 -113h-61z" />
    <glyph glyph-name="ecaron.sc" horiz-adv-x="485" 
d="M347 132h54l-24 -132h-371l8 51h59l72 405h-59l9 51h369l-22 -127h-55l13 76h-198l-30 -171h183l-9 -51h-183l-32 -183h201zM339 575h-73l-64 151h55l50 -113l92 113h61z" />
    <glyph glyph-name="edieresis.sc" horiz-adv-x="485" 
d="M347 132h54l-24 -132h-371l8 51h59l72 405h-59l9 51h369l-22 -127h-55l13 76h-198l-30 -171h183l-9 -51h-183l-32 -183h201zM219 600q-40 0 -40 36q0 28 15.5 42.5t40.5 14.5q17 0 28 -9.5t11 -28.5q0 -27 -16.5 -41t-38.5 -14zM390 600q-39 0 -39 36q0 28 15.5 42.5
t40.5 14.5q16 0 27 -10t11 -28q0 -27 -16.5 -41t-38.5 -14z" />
    <glyph glyph-name="emacron.sc" horiz-adv-x="485" 
d="M347 132h54l-24 -132h-371l8 51h59l72 405h-59l9 51h369l-22 -127h-55l13 76h-198l-30 -171h183l-9 -51h-183l-32 -183h201zM180 663h264l-10 -53h-263z" />
    <glyph glyph-name="ebreve.sc" horiz-adv-x="485" 
d="M347 132h54l-24 -132h-371l8 51h59l72 405h-59l9 51h369l-22 -127h-55l13 76h-198l-30 -171h183l-9 -51h-183l-32 -183h201zM396 701h46q-11 -58 -51.5 -94.5t-97.5 -36.5q-56 0 -84 36.5t-18 94.5h44q-6 -37 11 -60.5t54 -23.5q38 0 63 23.5t33 60.5z" />
    <glyph glyph-name="edotaccent.sc" horiz-adv-x="485" 
d="M347 132h54l-24 -132h-371l8 51h59l72 405h-59l9 51h369l-22 -127h-55l13 76h-198l-30 -171h183l-9 -51h-183l-32 -183h201zM303 600q-39 0 -39 36q0 28 15.5 42.5t40.5 14.5q16 0 27 -10t11 -28q0 -27 -16 -41t-39 -14z" />
    <glyph glyph-name="eogonek.sc" horiz-adv-x="485" 
d="M347 132h54l-24 -131l-82 -58q-42 -28 -42 -63q0 -29 32 -29q27 0 56 17l1 -45q-35 -19 -74 -19q-36 0 -57 17t-21 47q0 54 65 96l54 36h-303l8 51h59l72 405h-59l9 51h369l-22 -127h-55l13 76h-198l-30 -171h183l-9 -51h-183l-32 -183h201z" />
    <glyph glyph-name="gcircumflex.sc" horiz-adv-x="539" 
d="M274 243h195l-39 -213q-86 -38 -182 -38q-97 0 -147.5 54t-50.5 149q0 138 72 229t211 91q88 0 158 -28l-27 -137h-51l12 96q-45 13 -102 13q-107 0 -159 -73t-52 -185q0 -72 34.5 -113.5t108.5 -41.5q66 0 124 21l22 125h-137zM336 726h73l64 -151h-55l-50 113l-92 -113
h-61z" />
    <glyph glyph-name="gbreve.sc" horiz-adv-x="539" 
d="M274 243h195l-39 -213q-86 -38 -182 -38q-97 0 -147.5 54t-50.5 149q0 138 72 229t211 91q88 0 158 -28l-27 -137h-51l12 96q-45 13 -102 13q-107 0 -159 -73t-52 -185q0 -72 34.5 -113.5t108.5 -41.5q66 0 124 21l22 125h-137zM446 701h46q-11 -58 -51.5 -94.5
t-97.5 -36.5q-56 0 -84 36.5t-18 94.5h44q-6 -37 11 -60.5t54 -23.5q38 0 63 23.5t33 60.5z" />
    <glyph glyph-name="gdotaccent.sc" horiz-adv-x="539" 
d="M274 243h195l-39 -213q-86 -38 -182 -38q-97 0 -147.5 54t-50.5 149q0 138 72 229t211 91q88 0 158 -28l-27 -137h-51l12 96q-45 13 -102 13q-107 0 -159 -73t-52 -185q0 -72 34.5 -113.5t108.5 -41.5q66 0 124 21l22 125h-137zM351 600q-39 0 -39 36q0 28 15.5 42.5
t40.5 14.5q16 0 27 -10t11 -28q0 -27 -16 -41t-39 -14z" />
    <glyph glyph-name="gcommaaccent.sc" horiz-adv-x="539" 
d="M274 243h195l-39 -213q-86 -38 -182 -38q-97 0 -147.5 54t-50.5 149q0 138 72 229t211 91q88 0 158 -28l-27 -137h-51l12 96q-45 13 -102 13q-107 0 -159 -73t-52 -185q0 -72 34.5 -113.5t108.5 -41.5q66 0 124 21l22 125h-137zM274 -71l-69 -145h-48l49 145h68z" />
    <glyph glyph-name="hcircumflex.sc" horiz-adv-x="621" 
d="M412 456l9 51h180l-9 -51h-51l-71 -405h50l-8 -51h-180l9 51h71l33 188h-283l-33 -188h71l-9 -51h-180l9 51h51l71 405h-50l9 51h180l-9 -51h-72l-29 -164h284l29 164h-72zM350 726h73l64 -151h-55l-50 113l-92 -113h-61z" />
    <glyph glyph-name="hbar.sc" horiz-adv-x="621" 
d="M83 392h49l11 64h-51l10 51h180l-9 -51h-72l-12 -64h284l12 64h-72l9 51h180l-10 -51h-50l-11 -64h52l-7 -39h-53l-53 -302h51l-8 -51h-180l9 51h71l33 188h-284l-33 -188h72l-9 -51h-180l9 51h51l53 302h-50zM172 292h284l10 61h-284z" />
    <glyph glyph-name="igrave.sc" horiz-adv-x="291" 
d="M2 0l10 51h65l72 405h-66l8 51h187l-9 -51h-63l-71 -405h63l-10 -51h-186zM122 726h62l48 -151h-51z" />
    <glyph glyph-name="iacute.sc" horiz-adv-x="291" 
d="M2 0l10 51h65l72 405h-66l8 51h187l-9 -51h-63l-71 -405h63l-10 -51h-186zM269 726h69l-111 -151h-60z" />
    <glyph glyph-name="ibreve.sc" horiz-adv-x="291" 
d="M2 0l10 51h65l72 405h-66l8 51h187l-9 -51h-63l-71 -405h63l-10 -51h-186zM297 701h46q-11 -58 -51.5 -94.5t-97.5 -36.5q-56 0 -84 36.5t-18 94.5h44q-6 -37 11 -60.5t54 -23.5q38 0 63 23.5t33 60.5z" />
    <glyph glyph-name="icircumflex.sc" horiz-adv-x="291" 
d="M2 0l10 51h65l72 405h-66l8 51h187l-9 -51h-63l-71 -405h63l-10 -51h-186zM188 726h73l64 -151h-55l-50 113l-92 -113h-61z" />
    <glyph glyph-name="itilde.sc" horiz-adv-x="291" 
d="M2 0l10 51h65l72 405h-66l8 51h187l-9 -51h-63l-71 -405h63l-10 -51h-186zM344 655l-16 -50q-22 25 -53 25q-19 0 -64.5 -17t-74.5 -17q-42 0 -59 25l16 49q19 -24 51 -24q23 0 67 17.5t74 17.5q35 0 59 -26z" />
    <glyph glyph-name="idieresis.sc" horiz-adv-x="291" 
d="M2 0l10 51h65l72 405h-66l8 51h187l-9 -51h-63l-71 -405h63l-10 -51h-186zM118 600q-40 0 -40 36q0 28 15.5 42.5t40.5 14.5q17 0 28 -9.5t11 -28.5q0 -27 -16.5 -41t-38.5 -14zM289 600q-39 0 -39 36q0 28 15.5 42.5t40.5 14.5q16 0 27 -10t11 -28q0 -27 -16.5 -41
t-38.5 -14z" />
    <glyph glyph-name="imacron.sc" horiz-adv-x="291" 
d="M2 0l10 51h65l72 405h-66l8 51h187l-9 -51h-63l-71 -405h63l-10 -51h-186zM80 663h264l-10 -53h-263z" />
    <glyph glyph-name="idotaccent.sc" horiz-adv-x="291" 
d="M2 0l10 51h65l72 405h-66l8 51h187l-9 -51h-63l-71 -405h63l-10 -51h-186zM203 600q-39 0 -39 36q0 28 15.5 42.5t40.5 14.5q16 0 27 -10t11 -28q0 -27 -16 -41t-39 -14z" />
    <glyph glyph-name="iogonek.sc" horiz-adv-x="291" 
d="M2 0l10 51h65l72 405h-66l8 51h187l-9 -51h-63l-71 -405h63l-10 -51h-49l-82 -57q-42 -28 -42 -63q0 -29 32 -29q28 0 55 17l2 -45q-41 -19 -75 -19q-35 0 -56 17t-21 47q0 54 65 96l54 36h-69z" />
    <glyph glyph-name="jcircumflex.sc" horiz-adv-x="273" 
d="M70 456l9 51h182l-9 -51h-51l-79 -446q-23 -128 -141 -180l-28 40q95 49 111 141l79 445h-73zM176 726h73l64 -151h-55l-50 113l-92 -113h-61z" />
    <glyph glyph-name="kcommaaccent.sc" horiz-adv-x="546" 
d="M191 264l207 192h-45l9 51h182l-9 -51h-62l-215 -194l153 -211h61l-9 -51h-183l9 51h55zM203 456l-71 -405h60l-10 -51h-177l10 51h58l71 405h-58l9 51h176l-8 -51h-60zM239 -71l-69 -145h-48l49 145h68z" />
    <glyph glyph-name="lacute.sc" horiz-adv-x="441" 
d="M329 152h54l-27 -152h-349l8 51h58l72 405h-58l9 51h183l-9 -51h-68l-71 -405h180zM265 726h69l-111 -151h-60z" />
    <glyph glyph-name="lcaron.sc" horiz-adv-x="450" 
d="M329 152h54l-27 -152h-349l8 51h58l72 405h-58l9 51h183l-9 -51h-68l-71 -405h180zM430 507l-72 -149h-47l50 149h69z" />
    <glyph glyph-name="lcommaaccent.sc" horiz-adv-x="441" 
d="M328 152h54l-27 -152h-349l8 51h58l72 405h-58l9 51h183l-9 -51h-68l-71 -405h180zM215 -71l-69 -145h-48l49 145h68z" />
    <glyph glyph-name="lslash.sc" horiz-adv-x="443" 
d="M45 228l68 30l34 198h-57l9 51h182l-8 -51h-68l-31 -172l72 34l-10 -51l-71 -33l-31 -183h180l18 101h53l-27 -152h-348l8 51h58l28 156l-67 -30z" />
    <glyph glyph-name="ldot.sc" horiz-adv-x="442" 
d="M329 152h54l-27 -152h-349l8 51h58l72 405h-58l9 51h183l-9 -51h-68l-71 -405h180zM311 231q-39 0 -39 36q0 28 15.5 42.5t40.5 14.5q16 0 27 -10t11 -28q0 -27 -16 -41t-39 -14z" />
    <glyph glyph-name="nacute.sc" horiz-adv-x="613" 
d="M400 456l10 51h195l-10 -51h-54l-80 -456h-64l-201 425l-66 -374h85l-8 -51h-199l8 51h56l72 405h-56l9 51h121l199 -426l66 375h-83zM429 726h69l-111 -151h-60z" />
    <glyph glyph-name="ncaron.sc" horiz-adv-x="613" 
d="M400 456l10 51h195l-10 -51h-54l-80 -456h-64l-201 425l-66 -374h85l-8 -51h-199l8 51h56l72 405h-56l9 51h121l199 -426l66 375h-83zM400 575h-73l-64 151h55l50 -113l92 113h61z" />
    <glyph glyph-name="ntilde.sc" horiz-adv-x="613" 
d="M400 456l10 51h195l-10 -51h-54l-80 -456h-64l-201 425l-66 -374h85l-8 -51h-199l8 51h56l72 405h-56l9 51h121l199 -426l66 375h-83zM504 655l-16 -50q-22 25 -53 25q-19 0 -64.5 -17t-74.5 -17q-42 0 -59 25l16 49q19 -24 51 -24q23 0 67 17.5t74 17.5q35 0 59 -26z
" />
    <glyph glyph-name="ncommaaccent.sc" horiz-adv-x="612" 
d="M399 456l10 51h195l-10 -51h-54l-80 -456h-64l-201 425l-66 -374h85l-8 -51h-199l8 51h56l72 405h-56l9 51h121l199 -426l66 375h-83zM299 -71l-69 -145h-48l49 145h68z" />
    <glyph glyph-name="ograve.sc" horiz-adv-x="548" 
d="M112 183q0 -137 121 -137q91 0 142.5 72t51.5 205q0 138 -121 138q-87 0 -140.5 -76t-53.5 -202zM489 326q0 -154 -68 -244t-194 -90q-91 0 -134.5 52t-43.5 136q0 145 68.5 240t194.5 95q92 0 134.5 -52t42.5 -137zM250 726h62l48 -151h-51z" />
    <glyph glyph-name="oacute.sc" horiz-adv-x="548" 
d="M112 183q0 -137 121 -137q91 0 142.5 72t51.5 205q0 138 -121 138q-87 0 -140.5 -76t-53.5 -202zM489 326q0 -154 -68 -244t-194 -90q-91 0 -134.5 52t-43.5 136q0 145 68.5 240t194.5 95q92 0 134.5 -52t42.5 -137zM397 726h69l-111 -151h-60z" />
    <glyph glyph-name="ocircumflex.sc" horiz-adv-x="548" 
d="M112 183q0 -137 121 -137q91 0 142.5 72t51.5 205q0 138 -121 138q-87 0 -140.5 -76t-53.5 -202zM489 326q0 -154 -68 -244t-194 -90q-91 0 -134.5 52t-43.5 136q0 145 68.5 240t194.5 95q92 0 134.5 -52t42.5 -137zM317 726h73l64 -151h-55l-50 113l-92 -113h-61z" />
    <glyph glyph-name="otilde.sc" horiz-adv-x="548" 
d="M112 183q0 -137 121 -137q91 0 142.5 72t51.5 205q0 138 -121 138q-87 0 -140.5 -76t-53.5 -202zM489 326q0 -154 -68 -244t-194 -90q-91 0 -134.5 52t-43.5 136q0 145 68.5 240t194.5 95q92 0 134.5 -52t42.5 -137zM472 655l-16 -50q-22 25 -53 25q-19 0 -64.5 -17
t-74.5 -17q-42 0 -59 25l16 49q19 -24 51 -24q23 0 67 17.5t74 17.5q35 0 59 -26z" />
    <glyph glyph-name="odieresis.sc" horiz-adv-x="548" 
d="M112 183q0 -137 121 -137q91 0 142.5 72t51.5 205q0 138 -121 138q-87 0 -140.5 -76t-53.5 -202zM489 326q0 -154 -68 -244t-194 -90q-91 0 -134.5 52t-43.5 136q0 145 68.5 240t194.5 95q92 0 134.5 -52t42.5 -137zM247 600q-40 0 -40 36q0 28 15.5 42.5t40.5 14.5
q17 0 28 -9.5t11 -28.5q0 -27 -16.5 -41t-38.5 -14zM418 600q-39 0 -39 36q0 28 15.5 42.5t40.5 14.5q16 0 27 -10t11 -28q0 -27 -16.5 -41t-38.5 -14z" />
    <glyph glyph-name="omacron.sc" horiz-adv-x="548" 
d="M112 183q0 -137 121 -137q91 0 142.5 72t51.5 205q0 138 -121 138q-87 0 -140.5 -76t-53.5 -202zM489 326q0 -154 -68 -244t-194 -90q-91 0 -134.5 52t-43.5 136q0 145 68.5 240t194.5 95q92 0 134.5 -52t42.5 -137zM210 663h264l-10 -53h-263z" />
    <glyph glyph-name="obreve.sc" horiz-adv-x="548" 
d="M112 183q0 -137 121 -137q91 0 142.5 72t51.5 205q0 138 -121 138q-87 0 -140.5 -76t-53.5 -202zM489 326q0 -154 -68 -244t-194 -90q-91 0 -134.5 52t-43.5 136q0 145 68.5 240t194.5 95q92 0 134.5 -52t42.5 -137zM425 701h46q-11 -58 -51.5 -94.5t-97.5 -36.5
q-56 0 -84 36.5t-18 94.5h44q-6 -37 11 -60.5t54 -23.5q38 0 63 23.5t33 60.5z" />
    <glyph glyph-name="ohungarumlaut.sc" horiz-adv-x="548" 
d="M112 183q0 -137 121 -137q91 0 142.5 72t51.5 205q0 138 -121 138q-87 0 -140.5 -76t-53.5 -202zM489 326q0 -154 -68 -244t-194 -90q-91 0 -134.5 52t-43.5 136q0 145 68.5 240t194.5 95q92 0 134.5 -52t42.5 -137zM325 726h70l-111 -151h-60zM464 726h70l-112 -151h-59
z" />
    <glyph glyph-name="oslash.sc" horiz-adv-x="548" 
d="M490 326q0 -154 -68.5 -244t-194.5 -90q-37 0 -61 8l-19 -38h-44l2 12l22 42q-78 45 -78 164q0 145 68.5 240t194.5 95q34 0 64 -8l19 38h46l-1 -11l-24 -46q74 -45 74 -162zM427 323q0 77 -42 108l-191 -381q16 -4 40 -4q90 0 141.5 72t51.5 205zM112 183q0 -82 46 -110
l191 383q-22 5 -43 5q-87 0 -140.5 -76t-53.5 -202z" />
    <glyph glyph-name="oslashacute.sc" horiz-adv-x="548" 
d="M490 326q0 -154 -68.5 -244t-194.5 -90q-37 0 -61 8l-19 -38h-44l2 12l22 42q-78 45 -78 164q0 145 68.5 240t194.5 95q34 0 64 -8l19 38h46l-1 -11l-24 -46q74 -45 74 -162zM395 726h69l-111 -151h-60zM427 323q0 77 -42 108l-191 -381q16 -4 40 -4q90 0 141.5 72
t51.5 205zM112 183q0 -82 46 -110l191 383q-22 5 -43 5q-87 0 -140.5 -76t-53.5 -202z" />
    <glyph glyph-name="oe.sc" horiz-adv-x="713" 
d="M575 132h54l-23 -132h-316q-32 -8 -69 -8q-90 0 -132 51t-42 135q0 86 27.5 160.5t90 125.5t149.5 51q36 0 68 -8h310l-22 -127h-55l13 76h-197l-31 -171h183l-9 -51h-182l-33 -183h201zM232 46q41 0 71 12l69 391q-29 12 -68 12q-59 0 -105 -43t-67.5 -105.5
t-21.5 -129.5q0 -137 122 -137z" />
    <glyph glyph-name="racute.sc" horiz-adv-x="534" 
d="M73 50l73 407h-59l8 50h219q155 0 155 -121q0 -65 -40 -102.5t-112 -48.5q32 -26 55.5 -77.5t31.5 -107.5h65l-9 -50h-178l8 50h54q-5 52 -30 102t-62 78h-90l-31 -180h64l-9 -50h-179l8 50h58zM408 385q0 72 -95 72h-110l-33 -178h103q135 0 135 106zM366 726h69
l-111 -151h-60z" />
    <glyph glyph-name="rcaron.sc" horiz-adv-x="534" 
d="M73 50l73 407h-59l8 50h219q155 0 155 -121q0 -65 -40 -102.5t-112 -48.5q32 -26 55.5 -77.5t31.5 -107.5h65l-9 -50h-178l8 50h54q-5 52 -30 102t-62 78h-90l-31 -180h64l-9 -50h-179l8 50h58zM408 385q0 72 -95 72h-110l-33 -178h103q135 0 135 106zM335 575h-73
l-64 151h55l50 -113l92 113h61z" />
    <glyph glyph-name="rcommaaccent.sc" horiz-adv-x="533" 
d="M72 50l73 407h-59l8 50h219q155 0 155 -121q0 -65 -40 -102.5t-112 -48.5q32 -26 55.5 -77.5t31.5 -107.5h65l-9 -50h-178l8 50h54q-5 52 -30 102t-62 78h-90l-31 -180h64l-9 -50h-179l8 50h58zM407 385q0 72 -95 72h-110l-33 -178h103q135 0 135 106zM258 -71l-69 -145
h-48l49 145h68z" />
    <glyph glyph-name="sacute.sc" horiz-adv-x="449" 
d="M410 483l-21 -125h-49l6 92q-41 13 -85 13q-53 0 -84.5 -28.5t-31.5 -71.5q0 -45 60 -68l65 -25q98 -37 98 -123q0 -63 -50 -109t-144 -46q-93 0 -150 33l15 133h49v-99q40 -18 93 -18q55 0 89.5 27.5t34.5 71.5q0 50 -66 76l-66 26q-91 35 -91 113q0 65 49.5 112.5
t136.5 47.5q81 0 142 -32zM352 726h69l-111 -151h-60z" />
    <glyph glyph-name="scircumflex.sc" horiz-adv-x="449" 
d="M410 483l-21 -125h-49l6 92q-41 13 -85 13q-53 0 -84.5 -28.5t-31.5 -71.5q0 -45 60 -68l65 -25q98 -37 98 -123q0 -63 -50 -109t-144 -46q-93 0 -150 33l15 133h49v-99q40 -18 93 -18q55 0 89.5 27.5t34.5 71.5q0 50 -66 76l-66 26q-91 35 -91 113q0 65 49.5 112.5
t136.5 47.5q81 0 142 -32zM272 726h73l64 -151h-55l-50 113l-92 -113h-61z" />
    <glyph glyph-name="scaron.sc" horiz-adv-x="449" 
d="M410 483l-21 -125h-49l6 92q-41 13 -85 13q-53 0 -84.5 -28.5t-31.5 -71.5q0 -45 60 -68l65 -25q98 -37 98 -123q0 -63 -50 -109t-144 -46q-93 0 -150 33l15 133h49v-99q40 -18 93 -18q55 0 89.5 27.5t34.5 71.5q0 50 -66 76l-66 26q-91 35 -91 113q0 65 49.5 112.5
t136.5 47.5q81 0 142 -32zM322 575h-73l-64 151h55l50 -113l92 113h61z" />
    <glyph glyph-name="scedilla.sc" horiz-adv-x="449" 
d="M410 483l-21 -125h-49l6 92q-41 13 -85 13q-53 0 -84.5 -28.5t-31.5 -71.5q0 -45 60 -68l65 -25q98 -37 98 -123q0 -58 -42.5 -102t-121.5 -51l-28 -54q10 4 26 4q23 0 38.5 -15.5t15.5 -39.5q0 -37 -28 -62t-80 -25q-43 0 -89 23l15 41q40 -25 79 -25q52 0 52 41
q0 13 -9 21t-24 8t-30 -5l-22 10l40 76q-86 3 -136 33l15 133h49v-99q40 -18 93 -18q55 0 89.5 27.5t34.5 71.5q0 50 -66 76l-66 26q-91 35 -91 113q0 65 49.5 112.5t136.5 47.5q81 0 142 -32z" />
    <glyph glyph-name="scommaaccent.sc" horiz-adv-x="449" 
d="M410 483l-21 -125h-49l6 92q-41 13 -85 13q-53 0 -84.5 -28.5t-31.5 -71.5q0 -45 60 -68l65 -25q98 -37 98 -123q0 -63 -50 -109t-144 -46q-93 0 -150 33l15 133h49v-99q40 -18 93 -18q55 0 89.5 27.5t34.5 71.5q0 50 -66 76l-66 26q-91 35 -91 113q0 65 49.5 112.5
t136.5 47.5q81 0 142 -32zM208 -71l-69 -145h-48l49 145h68z" />
    <glyph glyph-name="tcaron.sc" horiz-adv-x="471" 
d="M78 507h396l-22 -130h-50l14 79h-123l-71 -405h75l-9 -51h-209l10 51h76l71 405h-117l-14 -79h-49zM323 575h-73l-64 151h55l50 -113l92 113h61z" />
    <glyph glyph-name="tcommaaccent.sc" horiz-adv-x="471" 
d="M78 507h396l-22 -130h-50l14 79h-123l-71 -405h75l-9 -51h-84l-31 -59q10 4 26 4q23 0 38.5 -15.5t15.5 -39.5q0 -37 -28 -62t-80 -25q-43 0 -89 23l15 41q40 -25 79 -25q52 0 52 41q0 13 -9 21t-24 8t-30 -5l-22 10l43 83h-81l10 51h76l71 405h-117l-14 -79h-49z" />
    <glyph glyph-name="uni021A.sc" horiz-adv-x="470" 
d="M77 507h396l-22 -130h-50l14 79h-123l-71 -405h75l-9 -51h-209l10 51h76l71 405h-117l-14 -79h-49zM205 -29l-69 -145h-48l49 145h68z" />
    <glyph glyph-name="tbar.sc" horiz-adv-x="471" 
d="M97 288h110l30 168h-117l-14 -79h-50l23 130h396l-22 -130h-50l14 79h-123l-30 -168h121l-10 -51h-120l-32 -186h75l-9 -51h-209l9 51h76l33 186h-110z" />
    <glyph glyph-name="thorn.sc" horiz-adv-x="519" 
d="M154 456h-74l10 51h225l-10 -51h-92l-8 -48h130q138 0 138 -118q0 -189 -192 -189h-130l-8 -50h92l-9 -51h-226l10 51h74zM419 282q0 79 -94 79h-128l-38 -212h130q41 0 68.5 11t40 32t17 41.5t4.5 48.5z" />
    <glyph glyph-name="ugrave.sc" horiz-adv-x="575" 
d="M243 -8q-86 0 -131.5 48t-28.5 149l48 267h-54l10 51h187l-9 -51h-77l-48 -271q-13 -75 16 -107t93 -32q130 0 155 139l48 271h-76l9 51h187l-8 -51h-55l-48 -271q-35 -193 -218 -193zM260 726h62l48 -151h-51z" />
    <glyph glyph-name="uacute.sc" horiz-adv-x="575" 
d="M243 -8q-86 0 -131.5 48t-28.5 149l48 267h-54l10 51h187l-9 -51h-77l-48 -271q-13 -75 16 -107t93 -32q130 0 155 139l48 271h-76l9 51h187l-8 -51h-55l-48 -271q-35 -193 -218 -193zM411 726h69l-111 -151h-60z" />
    <glyph glyph-name="ucircumflex.sc" horiz-adv-x="575" 
d="M243 -8q-86 0 -131.5 48t-28.5 149l48 267h-54l10 51h187l-9 -51h-77l-48 -271q-13 -75 16 -107t93 -32q130 0 155 139l48 271h-76l9 51h187l-8 -51h-55l-48 -271q-35 -193 -218 -193zM331 726h73l64 -151h-55l-50 113l-92 -113h-61z" />
    <glyph glyph-name="utilde.sc" horiz-adv-x="575" 
d="M243 -8q-86 0 -131.5 48t-28.5 149l48 267h-54l10 51h187l-9 -51h-77l-48 -271q-13 -75 16 -107t93 -32q130 0 155 139l48 271h-76l9 51h187l-8 -51h-55l-48 -271q-35 -193 -218 -193zM485 655l-16 -50q-22 25 -53 25q-19 0 -64.5 -17t-74.5 -17q-42 0 -59 25l16 49
q19 -24 51 -24q23 0 67 17.5t74 17.5q35 0 59 -26z" />
    <glyph glyph-name="udieresis.sc" horiz-adv-x="575" 
d="M243 -8q-86 0 -131.5 48t-28.5 149l48 267h-54l10 51h187l-9 -51h-77l-48 -271q-13 -75 16 -107t93 -32q130 0 155 139l48 271h-76l9 51h187l-8 -51h-55l-48 -271q-35 -193 -218 -193zM260 600q-40 0 -40 36q0 28 15.5 42.5t40.5 14.5q17 0 28 -9.5t11 -28.5
q0 -27 -16.5 -41t-38.5 -14zM431 600q-39 0 -39 36q0 28 15.5 42.5t40.5 14.5q16 0 27 -10t11 -28q0 -27 -16.5 -41t-38.5 -14z" />
    <glyph glyph-name="umacron.sc" horiz-adv-x="575" 
d="M243 -8q-86 0 -131.5 48t-28.5 149l48 267h-54l10 51h187l-9 -51h-77l-48 -271q-13 -75 16 -107t93 -32q130 0 155 139l48 271h-76l9 51h187l-8 -51h-55l-48 -271q-35 -193 -218 -193zM223 663h264l-10 -53h-263z" />
    <glyph glyph-name="ubreve.sc" horiz-adv-x="575" 
d="M243 -8q-86 0 -131.5 48t-28.5 149l48 267h-54l10 51h187l-9 -51h-77l-48 -271q-13 -75 16 -107t93 -32q130 0 155 139l48 271h-76l9 51h187l-8 -51h-55l-48 -271q-35 -193 -218 -193zM439 701h46q-11 -58 -51.5 -94.5t-97.5 -36.5q-56 0 -84 36.5t-18 94.5h44
q-6 -37 11 -60.5t54 -23.5q38 0 63 23.5t33 60.5z" />
    <glyph glyph-name="uring.sc" horiz-adv-x="575" 
d="M243 -8q-86 0 -131.5 48t-28.5 149l48 267h-54l10 51h187l-9 -51h-77l-48 -271q-13 -75 16 -107t93 -32q130 0 155 139l48 271h-76l9 51h187l-8 -51h-55l-48 -271q-35 -193 -218 -193zM255 634q0 47 33 78t85 31q39 0 60.5 -21t21.5 -54q0 -47 -33.5 -78t-84.5 -31
q-38 0 -60 21t-22 54zM299 640q0 -19 12 -30.5t33 -11.5q31 0 49.5 17.5t18.5 46.5q0 19 -12.5 31t-34.5 12q-29 0 -47.5 -18t-18.5 -47z" />
    <glyph glyph-name="uhungarumlaut.sc" horiz-adv-x="575" 
d="M243 -8q-86 0 -131.5 48t-28.5 149l48 267h-54l10 51h187l-9 -51h-77l-48 -271q-13 -75 16 -107t93 -32q130 0 155 139l48 271h-76l9 51h187l-8 -51h-55l-48 -271q-35 -193 -218 -193zM341 726h70l-111 -151h-60zM480 726h70l-112 -151h-59z" />
    <glyph glyph-name="uogonek.sc" horiz-adv-x="573" 
d="M121 -132q0 50 66 96l41 29q-80 3 -122 51t-25 145l48 267h-53l9 51h187l-9 -51h-77l-47 -271q-14 -75 15 -107t93 -32q131 0 155 139l49 271h-77l10 51h186l-8 -51h-55l-48 -271q-29 -162 -160 -187l-72 -53q-45 -31 -45 -65q0 -29 33 -29q28 0 57 17l1 -45
q-41 -19 -74 -19q-36 0 -57 17t-21 47z" />
    <glyph glyph-name="wacute.sc" horiz-adv-x="789" 
d="M594 456l9 51h206l-9 -51h-53l-210 -456h-72l-60 334l-180 -334h-71l-51 456h-55l10 51h190l-9 -51h-78l40 -396l185 344l-20 103h66l75 -447l182 396h-95zM514 726h69l-111 -151h-60z" />
    <glyph glyph-name="wcircumflex.sc" horiz-adv-x="789" 
d="M594 456l9 51h206l-9 -51h-53l-210 -456h-72l-60 334l-180 -334h-71l-51 456h-55l10 51h190l-9 -51h-78l40 -396l185 344l-20 103h66l75 -447l182 396h-95zM434 726h73l64 -151h-55l-50 113l-92 -113h-61z" />
    <glyph glyph-name="wdieresis.sc" horiz-adv-x="789" 
d="M594 456l9 51h206l-9 -51h-53l-210 -456h-72l-60 334l-180 -334h-71l-51 456h-55l10 51h190l-9 -51h-78l40 -396l185 344l-20 103h66l75 -447l182 396h-95zM365 600q-40 0 -40 36q0 28 15.5 42.5t40.5 14.5q17 0 28 -9.5t11 -28.5q0 -27 -16.5 -41t-38.5 -14zM536 600
q-39 0 -39 36q0 28 15.5 42.5t40.5 14.5q16 0 27 -10t11 -28q0 -27 -16.5 -41t-38.5 -14z" />
    <glyph glyph-name="wgrave.sc" horiz-adv-x="789" 
d="M594 456l9 51h206l-9 -51h-53l-210 -456h-72l-60 334l-180 -334h-71l-51 456h-55l10 51h190l-9 -51h-78l40 -396l185 344l-20 103h66l75 -447l182 396h-95zM365 726h62l48 -151h-51z" />
    <glyph glyph-name="yacute.sc" horiz-adv-x="507" 
d="M49 456l9 51h176l-8 -51h-71l90 -203l162 203h-71l9 51h186l-10 -51h-47l-207 -253l-27 -152h71l-9 -51h-204l9 51h75l28 152l-114 253h-47zM372 726h69l-111 -151h-60z" />
    <glyph glyph-name="ycircumflex.sc" horiz-adv-x="507" 
d="M49 456l9 51h176l-8 -51h-71l90 -203l162 203h-71l9 51h186l-10 -51h-47l-207 -253l-27 -152h71l-9 -51h-204l9 51h75l28 152l-114 253h-47zM290 726h73l64 -151h-55l-50 113l-92 -113h-61z" />
    <glyph glyph-name="ydieresis.sc" horiz-adv-x="507" 
d="M49 456l9 51h176l-8 -51h-71l90 -203l162 203h-71l9 51h186l-10 -51h-47l-207 -253l-27 -152h71l-9 -51h-204l9 51h75l28 152l-114 253h-47zM220 600q-40 0 -40 36q0 28 15.5 42.5t40.5 14.5q17 0 28 -9.5t11 -28.5q0 -27 -16.5 -41t-38.5 -14zM391 600q-39 0 -39 36
q0 28 15.5 42.5t40.5 14.5q16 0 27 -10t11 -28q0 -27 -16.5 -41t-38.5 -14z" />
    <glyph glyph-name="ygrave.sc" horiz-adv-x="507" 
d="M49 456l9 51h176l-8 -51h-71l90 -203l162 203h-71l9 51h186l-10 -51h-47l-207 -253l-27 -152h71l-9 -51h-204l9 51h75l28 152l-114 253h-47zM224 726h62l48 -151h-51z" />
    <glyph glyph-name="zacute.sc" horiz-adv-x="475" 
d="M454 507l-8 -48l-363 -408h235l20 112h54l-29 -163h-360l8 48l363 408h-224l-16 -90h-53l25 141h348zM359 726h69l-111 -151h-60z" />
    <glyph glyph-name="zcaron.sc" horiz-adv-x="475" 
d="M454 507l-8 -48l-363 -408h235l20 112h54l-29 -163h-360l8 48l363 408h-224l-16 -90h-53l25 141h348zM328 575h-73l-64 151h55l50 -113l92 113h61z" />
    <glyph glyph-name="zdotaccent.sc" horiz-adv-x="475" 
d="M454 507l-8 -48l-363 -408h235l20 112h54l-29 -163h-360l8 48l363 408h-224l-16 -90h-53l25 141h348zM293 600q-39 0 -39 36q0 28 15.5 42.5t40.5 14.5q16 0 27 -10t11 -28q0 -27 -16 -41t-39 -14z" />
    <glyph glyph-name="ij.sc" horiz-adv-x="577" 
d="M2 0l10 51h65l72 405h-66l8 51h187l-9 -51h-63l-71 -405h63l-10 -51h-186zM374 456l9 51h182l-9 -51h-51l-79 -446q-23 -128 -141 -180l-28 40q95 49 111 141l79 445h-73z" />
    <glyph glyph-name="germandbls.sc" horiz-adv-x="882" 
d="M842 483l-21 -125h-49l6 92q-41 13 -85 13q-53 0 -84.5 -28.5t-31.5 -71.5q0 -45 60 -68l65 -25q98 -37 98 -123q0 -63 -50 -109t-144 -46q-93 0 -150 33l15 133h49v-99q40 -18 93 -18q55 0 89.5 27.5t34.5 71.5q0 50 -66 76l-66 26q-91 35 -91 113q0 65 49.5 112.5
t136.5 47.5q81 0 142 -32zM410 483l-21 -125h-49l6 92q-41 13 -85 13q-53 0 -84.5 -28.5t-31.5 -71.5q0 -45 60 -68l65 -25q98 -37 98 -123q0 -63 -50 -109t-144 -46q-93 0 -150 33l15 133h49v-99q40 -18 93 -18q55 0 89.5 27.5t34.5 71.5q0 50 -66 76l-66 26
q-91 35 -91 113q0 65 49.5 112.5t136.5 47.5q81 0 142 -32z" />
    <glyph glyph-name="fi.sc" horiz-adv-x="756" 
d="M7 0l8 51h58l72 405h-58l9 51h363l-23 -132h-55l15 81h-194l-34 -192h190l-9 -52h-190l-28 -161h88l-10 -51h-202zM468 0l10 51h65l72 405h-66l8 51h187l-9 -51h-63l-71 -405h63l-10 -51h-186z" />
    <glyph glyph-name="fl.sc" horiz-adv-x="903" 
d="M7 0l8 51h58l72 405h-58l9 51h363l-23 -132h-55l15 81h-194l-34 -192h190l-9 -52h-190l-28 -161h88l-10 -51h-202zM791 152h54l-27 -152h-349l8 51h58l72 405h-58l9 51h183l-9 -51h-68l-71 -405h180z" />
    <glyph glyph-name="eng.sc" horiz-adv-x="622" 
d="M407 -18l-210 445l-66 -376h86l-8 -51h-202l8 51h58l72 405h-58l9 51h128l200 -433l67 382h-84l9 51h199l-9 -51h-57l-84 -474q-21 -120 -119 -155l-24 43q38 16 57.5 41.5t27.5 70.5z" />
    <glyph glyph-name="grave.sc" horiz-adv-x="582" 
d="M348 726h62l48 -151h-51z" />
    <glyph glyph-name="acute.sc" horiz-adv-x="582" 
d="M421 726h69l-111 -151h-60z" />
    <glyph glyph-name="circumflex.sc" horiz-adv-x="582" 
d="M383 726h73l64 -151h-55l-50 113l-92 -113h-61z" />
    <glyph glyph-name="caron.sc" horiz-adv-x="582" 
d="M429 575h-73l-64 151h55l50 -113l92 113h61z" />
    <glyph glyph-name="caronalt.sc" horiz-adv-x="582" 
d="M427 507l-72 -149h-47l50 149h69z" />
    <glyph glyph-name="tilde.sc" horiz-adv-x="582" 
d="M536 655l-16 -50q-22 25 -53 25q-19 0 -64.5 -17t-74.5 -17q-42 0 -59 25l16 49q19 -24 51 -24q23 0 67 17.5t74 17.5q35 0 59 -26z" />
    <glyph glyph-name="dieresis.sc" horiz-adv-x="582" 
d="M310 600q-40 0 -40 36q0 28 15.5 42.5t40.5 14.5q17 0 28 -9.5t11 -28.5q0 -27 -16.5 -41t-38.5 -14zM481 600q-39 0 -39 36q0 28 15.5 42.5t40.5 14.5q16 0 27 -10t11 -28q0 -27 -16.5 -41t-38.5 -14z" />
    <glyph glyph-name="macron.sc" horiz-adv-x="582" 
d="M273 663h264l-10 -53h-263z" />
    <glyph glyph-name="breve.sc" horiz-adv-x="582" 
d="M492 701h46q-11 -58 -51.5 -94.5t-97.5 -36.5q-56 0 -84 36.5t-18 94.5h44q-6 -37 11 -60.5t54 -23.5q38 0 63 23.5t33 60.5z" />
    <glyph glyph-name="ring.sc" horiz-adv-x="582" 
d="M304 634q0 47 33 78t85 31q39 0 60.5 -21t21.5 -54q0 -47 -33.5 -78t-84.5 -31q-38 0 -60 21t-22 54zM348 640q0 -19 12 -30.5t33 -11.5q31 0 49.5 17.5t18.5 46.5q0 19 -12.5 31t-34.5 12q-29 0 -47.5 -18t-18.5 -47z" />
    <glyph glyph-name="hungarumlaut.sc" horiz-adv-x="582" 
d="M351 726h70l-111 -151h-60zM490 726h70l-112 -151h-59z" />
    <glyph glyph-name="dotaccent.sc" horiz-adv-x="582" 
d="M395 600q-39 0 -39 36q0 28 15.5 42.5t40.5 14.5q16 0 27 -10t11 -28q0 -27 -16 -41t-39 -14z" />
    <glyph glyph-name="exclamdown.sc" horiz-adv-x="252" 
d="M115 345h46l-51 -350h-69zM165 507q17 0 27.5 -10.5t10.5 -25.5q0 -20 -15.5 -34t-37.5 -14q-17 0 -27 10t-10 25q0 21 15 35t37 14z" />
    <glyph glyph-name="questiondown.sc" horiz-adv-x="376" 
d="M255 135h47l-10 -91q-73 -49 -147 -49q-58 0 -90.5 30t-32.5 74q0 110 150 168l15 86h52l-21 -118q-136 -40 -136 -123q0 -27 19 -45.5t56 -18.5q45 0 86 22zM240 515q17 0 27.5 -10.5t10.5 -25.5q0 -20 -16 -34t-37 -14q-17 0 -27.5 10t-10.5 26q0 20 15.5 34t37.5 14z
" />
    <glyph glyph-name="Euro.sc" horiz-adv-x="479" 
d="M62 323h34q49 192 233 192q73 0 130 -31l-25 -51q-44 27 -110 27q-123 0 -165 -137h217l-22 -43h-206q-4 -28 -6 -59h186l-21 -44h-164q2 -58 29.5 -93.5t82.5 -35.5q65 0 127 33l5 -53q-72 -36 -137 -36q-80 0 -123.5 51t-46.5 134h-43l7 44h36q1 21 7 59h-32z" />
    <glyph glyph-name="cent.sc" horiz-adv-x="425" 
d="M349 261q-33 24 -71 32l-105 -246q11 -3 24 -3q62 0 121 36l7 -50q-68 -38 -139 -38q-13 0 -35 4l-20 -48l-34 8l22 50q-77 36 -77 133q0 91 51.5 151t144.5 60q10 0 26 -2l24 57l35 -8l-23 -54q47 -12 74 -32zM103 140q0 -60 37 -83l102 240q-72 -1 -105.5 -43.5
t-33.5 -113.5z" />
    <glyph glyph-name="sterling.sc" horiz-adv-x="461" 
d="M46 221h52l20 113q33 181 188 181q80 0 138 -29l-32 -113h-42l13 78q-38 12 -79 12q-104 0 -128 -131l-20 -111h152l-7 -44h-153l-22 -126h233l-9 -51h-343l7 42l56 19l20 116h-52z" />
    <glyph glyph-name="florin.sc" horiz-adv-x="307" 
d="M172 292l-61 -345q-20 -117 -121 -117q-27 0 -50 7l10 50q24 -4 41 -4q30 0 45 17t21 51l60 341h-76l8 50h76l13 71q22 117 122 117q29 0 48 -7l-9 -50q-24 4 -41 4q-30 0 -45 -17t-21 -51l-11 -67h84l-9 -50h-84z" />
    <glyph glyph-name="yen.sc" horiz-adv-x="523" 
d="M84 221h127l-25 60h-91l7 42h67l-55 134h-45l8 50h168l-8 -50h-65l80 -204l155 204h-66l8 50h173l-8 -50h-45l-105 -134h67l-7 -42h-93l-47 -60h129l-7 -43h-137l-24 -128h66l-8 -50h-193l8 50h70l23 128h-134z" />
    <glyph glyph-name="rupee.sc" horiz-adv-x="459" 
d="M98 507h339l-8 -43h-101q34 -31 28 -84h59l-7 -39h-59q-14 -49 -53 -80.5t-98 -40.5q81 -63 95 -169h67l-9 -51h-184l8 51h54q-5 46 -32 90.5t-67 72.5h-84l9 50h92q113 0 140 77h-218l7 39h218q1 38 -22.5 57.5t-80.5 19.5h-102z" />
    <glyph glyph-name="perthousand.sc" horiz-adv-x="816" 
d="M508 507l-1 -7l-409 -500h-46l2 7l405 500h49zM198 515q48 0 73 -27t25 -68q0 -61 -34.5 -101t-100.5 -40q-46 0 -71 27t-25 68q0 60 34.5 100.5t98.5 40.5zM167 327q40 0 59.5 24.5t19.5 61.5q0 24 -13.5 38.5t-40.5 14.5q-38 0 -57.5 -24t-19.5 -62q0 -24 13 -38.5
t39 -14.5zM399 227q48 0 73.5 -27t25.5 -67q0 -61 -35 -101t-101 -40q-47 0 -71.5 27t-24.5 68q0 60 34.5 100t98.5 40zM369 40q39 0 58.5 24.5t19.5 61.5q0 52 -54 52q-39 0 -58 -24t-19 -61q0 -53 53 -53zM652 226q48 0 73 -27t25 -67q0 -61 -34.5 -101t-100.5 -40
q-47 0 -72 27t-25 68q0 60 34.5 100t99.5 40zM621 40q39 0 58.5 24t19.5 61q0 53 -54 53q-39 0 -57.5 -23.5t-18.5 -61.5q0 -53 52 -53z" />
    <glyph glyph-name="zero.tf" 
d="M118 209q0 -74 29 -119t88 -45q102 0 164 116.5t62 303.5q0 73 -29 119t-87 46q-71 0 -124.5 -63.5t-78 -157.5t-24.5 -200zM525 468q0 -138 -34 -245.5t-102.5 -170.5t-161.5 -63q-86 0 -129.5 62t-43.5 157q0 85 17 166.5t51.5 153t94 115t135.5 43.5q87 0 130 -61.5
t43 -156.5z" />
    <glyph glyph-name="one.tf" 
d="M64 0l10 56h165l97 554l-159 -57l-6 57l182 66h55l-110 -620h144l-9 -56h-369z" />
    <glyph glyph-name="two.tf" 
d="M460 148l-26 -148h-412l10 52q6 5 47.5 42.5t103 94t96.5 87.5q107 97 138.5 140t31.5 107q0 72 -55 96q-29 12 -70 9q-66 -3 -105 -49.5t-44 -115.5l-61 -4q3 100 64 163.5t161 63.5q83 0 128 -43.5t45 -112.5q0 -41 -13 -77t-44.5 -75t-54 -61t-72.5 -68l-211 -193h274
l16 92h53z" />
    <glyph glyph-name="three.tf" 
d="M172 509h-50l18 116q91 61 185 61q86 0 131 -40.5t45 -112.5q0 -79 -43.5 -126t-102.5 -62q47 -10 76 -46t29 -95q0 -97 -63.5 -156t-187.5 -59q-59 0 -108.5 19.5t-78.5 52.5l38 50q55 -66 154 -66q96 0 139 42.5t43 114.5q0 110 -145 110h-69l10 57h65q80 0 130 39
t50 116q0 107 -116 107q-71 0 -133 -36z" />
    <glyph glyph-name="four.tf" 
d="M507 209l-10 -54h-106l-27 -155h-58l27 155h-319l8 50l319 369q24 27 43.5 52.5t27.5 37.5l8 12h63l-82 -467h106zM95 209h247l65 364z" />
    <glyph glyph-name="five.tf" 
d="M37 45l26 132h52l-18 -100q45 -32 121 -32q92 0 143.5 54.5t51.5 152.5q0 55 -30.5 87t-90.5 32q-79 0 -147 -44l-36 3l86 346h340l-9 -56h-289l-56 -231q47 38 126 38q84 0 126.5 -45t42.5 -127q0 -117 -70.5 -191.5t-187.5 -74.5q-116 0 -181 56z" />
    <glyph glyph-name="six.tf" 
d="M548 647l-31 -52q-59 36 -131 36q-76 0 -132 -46.5t-84 -113.5t-35 -148q23 48 76.5 81t114.5 33q84 0 125.5 -47t41.5 -127q0 -119 -64.5 -196.5t-179.5 -77.5q-92 0 -137.5 61.5t-45.5 175.5q0 63 9.5 124.5t33.5 123t60.5 108t94.5 75.5t131 29q89 0 153 -39zM251 45
q93 0 137 61.5t44 150.5q0 54 -28 87.5t-86 33.5q-61 0 -110.5 -36.5t-78.5 -88.5q-5 -55 2 -98.5t37 -76.5t83 -33z" />
    <glyph glyph-name="seven.tf" 
d="M125 0l349 623h-272l-22 -125h-57l32 178h409l-11 -49q-18 -19 -86 -135l-271 -492h-71z" />
    <glyph glyph-name="eight.tf" 
d="M529 531q0 -126 -137 -195q93 -46 93 -141q0 -93 -67 -149.5t-178 -56.5q-95 0 -149.5 42t-54.5 118q0 137 154 208q-78 40 -78 130q0 81 60 139.5t170 58.5q92 0 139.5 -43t47.5 -111zM341 297l-103 39q-66 -35 -102.5 -74.5t-36.5 -103.5q0 -54 36 -84t106 -30
q88 0 134 40t46 105q0 78 -80 108zM175 490q0 -67 67 -94l97 -37q127 60 127 165q0 107 -128 107q-82 0 -122.5 -40.5t-40.5 -100.5z" />
    <glyph glyph-name="nine.tf" 
d="M32 28l31 52q59 -36 131 -36q76 0 132 46.5t84 113.5t35 148q-23 -48 -76.5 -81t-114.5 -33q-84 0 -125.5 47t-41.5 127q0 119 64.5 196.5t179.5 77.5q92 0 137.5 -61.5t45.5 -175.5q0 -63 -9.5 -124.5t-33.5 -123t-60.5 -108t-94.5 -75.5t-131 -29q-89 0 -153 39z
M329 630q-93 0 -137 -61.5t-44 -150.5q0 -54 28 -87.5t86 -33.5q61 0 110.5 36.5t78.5 88.5q5 55 -2 98.5t-37 76.5t-83 33z" />
    <glyph glyph-name="zero.tosf" 
d="M109 207q0 -73 31 -116.5t98 -43.5q52 0 91 20.5t62 52.5t37 76t18.5 83.5t4.5 83.5q0 75 -31.5 120t-98.5 45q-58 0 -101.5 -29.5t-66.5 -79t-33.5 -102.5t-10.5 -110zM514 366q0 -72 -14.5 -135.5t-45 -119.5t-87.5 -89t-133 -33q-94 0 -140.5 60.5t-46.5 155.5
q0 70 15.5 135t47 121.5t87 90.5t128.5 34q94 0 141.5 -62t47.5 -158z" />
    <glyph glyph-name="one.tosf" 
d="M68 0l9 55h165l80 454l-157 -53l-9 53l182 66h55l-92 -520h144l-9 -55h-368z" />
    <glyph glyph-name="two.tosf" 
d="M456 127l-22 -127h-411l8 45q81 60 301 239q62 50 83 83t21 73q0 45 -33.5 68t-85.5 23q-63 0 -107.5 -37.5t-45.5 -99.5l-60 -2q-1 83 63 138.5t156 55.5q85 0 130.5 -39t45.5 -103q0 -57 -34 -102t-98 -97q-37 -31 -134 -107.5t-111 -84.5h268l14 74h52z" />
    <glyph glyph-name="three.tosf" 
d="M156 410h-50l18 116q89 61 185 61q86 0 130.5 -40.5t44.5 -112.5q0 -79 -43 -126.5t-102 -61.5q47 -11 76 -46.5t29 -94.5q0 -97 -63.5 -156t-187.5 -59q-59 0 -108.5 19.5t-78.5 52.5l38 50q56 -67 154 -67q95 0 138.5 43t43.5 115q0 110 -145 110h-69l10 57h65
q80 0 130 39t50 116q0 106 -116 106q-69 0 -134 -35z" />
    <glyph glyph-name="four.tosf" 
d="M489 109l-10 -54h-106l-27 -155h-58l27 155h-320l9 50l319 369q23 27 42.5 52.5t27.5 37.5l8 12h64l-83 -467h107zM77 109h247l64 364z" />
    <glyph glyph-name="five.tosf" 
d="M17 -55l26 132h52l-18 -100q45 -32 121 -32q93 0 144 54.5t51 152.5q0 55 -30 87t-90 32q-80 0 -148 -44l-36 3l86 346h341l-10 -56h-288l-56 -231q47 38 126 38q84 0 126 -45t42 -127q0 -117 -70 -191.5t-188 -74.5q-116 0 -181 56z" />
    <glyph glyph-name="six.tosf" 
d="M548 647l-31 -52q-59 36 -131 36q-76 0 -132 -46.5t-84 -113.5t-35 -148q23 48 76.5 81t114.5 33q84 0 125.5 -47t41.5 -127q0 -119 -64.5 -196.5t-179.5 -77.5q-92 0 -137.5 61.5t-45.5 175.5q0 63 9.5 124.5t33.5 123t60.5 108t94.5 75.5t131 29q89 0 153 -39zM251 45
q93 0 137 61.5t44 150.5q0 54 -28 87.5t-86 33.5q-61 0 -110.5 -36.5t-78.5 -88.5q-5 -55 2 -98.5t37 -76.5t83 -33z" />
    <glyph glyph-name="seven.tosf" 
d="M106 -100l349 623h-273l-21 -125h-57l31 178h410l-11 -49q-10 -10 -23 -29.5t-22.5 -35t-23.5 -40t-17 -30.5l-272 -492h-70z" />
    <glyph glyph-name="eight.tosf" 
d="M529 531q0 -126 -137 -195q93 -46 93 -141q0 -93 -67 -149.5t-178 -56.5q-95 0 -149.5 42t-54.5 118q0 137 154 208q-78 40 -78 130q0 81 60 139.5t170 58.5q92 0 139.5 -43t47.5 -111zM341 297l-103 39q-66 -35 -102.5 -74.5t-36.5 -103.5q0 -54 36 -84t106 -30
q88 0 134 40t46 105q0 78 -80 108zM175 490q0 -67 67 -94l97 -37q127 60 127 165q0 107 -128 107q-82 0 -122.5 -40.5t-40.5 -100.5z" />
    <glyph glyph-name="nine.tosf" 
d="M15 -72l31 52q59 -36 131 -36q76 0 132 46.5t84 113.5t35 148q-23 -48 -76.5 -81t-114.5 -33q-84 0 -125.5 47t-41.5 127q0 119 64.5 196.5t179.5 77.5q92 0 137.5 -61.5t45.5 -175.5q0 -63 -9.5 -124.5t-33.5 -123t-60.5 -108t-94.5 -75.5t-131 -29q-89 0 -153 39z
M312 530q-93 0 -137 -61.5t-44 -150.5q0 -54 28 -87.5t86 -33.5q61 0 110.5 36.5t78.5 88.5q5 55 -2 98.5t-37 76.5t-83 33z" />
    <glyph glyph-name="Euro.tf" 
d="M75 427h43q32 119 106 189t189 70q88 0 157 -43l-25 -54q-62 40 -140 40q-86 0 -142 -54.5t-82 -147.5h272l-21 -49h-262q-8 -46 -11 -87h242l-19 -49h-223q1 -86 35.5 -140.5t109.5 -54.5q88 0 166 48l7 -57q-90 -49 -180 -49q-199 0 -202 253h-53l9 49h46q1 38 10 87
h-41z" />
    <glyph glyph-name="cent.tf" 
d="M432 530l-30 -73q60 -14 96 -45l-28 -51q-37 33 -89 45l-148 -358q11 -4 35 -4q83 0 155 50l10 -51q-84 -54 -178 -54q-22 0 -44 5l-25 -62l-39 10l26 64q-88 42 -88 172q0 122 63.5 205t180.5 83q10 0 32 -2l31 76zM148 179q0 -83 48 -117l143 350q-101 -1 -146 -64.5
t-45 -168.5z" />
    <glyph glyph-name="sterling.tf" 
d="M65 291h67l28 155q19 108 77 174t159 66q100 0 168 -37l-38 -140h-45l18 104q-49 18 -107 18q-140 0 -173 -188l-27 -152h197l-9 -49h-197l-33 -189h299l-9 -53h-426l8 44l70 19l31 179h-67z" />
    <glyph glyph-name="florin.tf" 
d="M330 404l-83 -474q-12 -70 -49.5 -113t-104.5 -43q-27 0 -53 7l10 55q23 -6 49 -6q41 0 61.5 26t29.5 77l84 471h-99l10 52h97l17 94q28 156 153 156q30 0 53 -7l-9 -55q-24 6 -50 6q-41 0 -61.5 -26t-29.5 -77l-16 -91h108l-9 -52h-108z" />
    <glyph glyph-name="yen.tf" 
d="M82 291h161l-34 87h-112l9 49h86l-74 195h-57l10 54h204l-9 -54h-86l104 -292l210 292h-87l9 54h210l-10 -54h-55l-146 -195h85l-8 -49h-113l-66 -87h163l-8 -49h-170l-32 -188h86l-9 -54h-237l9 54h92l33 188h-167z" />
    <glyph glyph-name="rupee.tf" 
d="M141 676h409l-9 -49h-130q48 -42 39 -117h70l-9 -49h-69q-18 -67 -70 -110.5t-128 -53.5q48 -38 81 -101.5t42 -141.5h85l-10 -54h-220l10 54h69q-8 73 -41.5 135.5t-87.5 102.5h-99l9 54h107q154 0 189 115h-275l8 49h276q2 55 -28 83.5t-105 28.5h-123z" />
    <glyph glyph-name="dollar.tf" 
d="M237 -103h-48l16 92q-100 5 -158 42l21 177h50l-5 -140q40 -22 101 -25l48 274l-22 11q-56 23 -85.5 59t-29.5 96q0 74 54 133.5t149 68.5l13 74h48l-13 -73q81 -4 151 -39l-29 -162h-49l10 126q-41 17 -93 20l-47 -267l24 -10q62 -24 93.5 -63.5t31.5 -104.5
q0 -75 -57.5 -131.5t-157.5 -64.5zM402 181q0 79 -95 117l-45 -254q61 8 100.5 45.5t39.5 91.5zM189 488q0 -75 85 -106l43 246q-58 -9 -93 -49.5t-35 -90.5z" />
    <glyph glyph-name="zero.osf" horiz-adv-x="569" 
d="M114 207q0 -73 31 -116.5t98 -43.5q52 0 91 20.5t62 52.5t37 76t18.5 83.5t4.5 83.5q0 75 -31.5 120t-98.5 45q-58 0 -101.5 -29.5t-66.5 -79t-33.5 -102.5t-10.5 -110zM519 366q0 -72 -14 -135.5t-45 -119.5t-87.5 -89t-133.5 -33q-94 0 -140.5 60.5t-46.5 155.5
q0 70 15.5 135t47 121.5t87 90.5t128.5 34q94 0 141.5 -62t47.5 -158z" />
    <glyph glyph-name="one.osf" horiz-adv-x="427" 
d="M-3 0l9 55h166l79 454l-157 -53l-9 53l183 66h54l-92 -520h144l-9 -55h-368z" />
    <glyph glyph-name="two.osf" horiz-adv-x="507" 
d="M429 127l-22 -127h-411l8 45q81 60 301 239q62 50 83 83t21 73q0 45 -33.5 68t-85.5 23q-63 0 -107.5 -37t-45.5 -99l-60 -3q-1 83 63 138.5t156 55.5q85 0 130.5 -39t45.5 -103q0 -57 -34 -102t-98 -97q-37 -31 -133.5 -107.5t-109.5 -84.5h266l14 74h52z" />
    <glyph glyph-name="three.osf" horiz-adv-x="512" 
d="M132 410h-50l17 116q91 61 186 61q86 0 131 -40.5t45 -112.5q0 -79 -43.5 -126.5t-102.5 -61.5q47 -11 76 -46.5t29 -94.5q0 -97 -63.5 -156t-187.5 -59q-59 0 -108.5 19.5t-78.5 52.5l38 50q56 -67 154 -67q95 0 138.5 43t43.5 115q0 110 -145 110h-69l10 57h65
q80 0 130 39t50 116q0 106 -116 106q-70 0 -133 -35z" />
    <glyph glyph-name="four.osf" horiz-adv-x="522" 
d="M471 109l-10 -54h-106l-27 -155h-58l27 155h-320l9 50l319 369q23 27 42.5 52.5t27.5 37.5l8 12h64l-83 -467h107zM59 109h247l64 364z" />
    <glyph glyph-name="five.osf" horiz-adv-x="508" 
d="M-8 -55l26 132h52l-18 -100q45 -32 121 -32q93 0 144 54.5t51 152.5q0 55 -30 87t-90 32q-80 0 -148 -44l-36 3l86 346h341l-10 -56h-288l-56 -231q47 38 126 38q84 0 126 -45t42 -127q0 -117 -70 -191.5t-188 -74.5q-116 0 -181 56z" />
    <glyph glyph-name="six.osf" horiz-adv-x="537" 
d="M537 647l-30 -52q-59 36 -132 36q-75 0 -131.5 -46.5t-84 -113.5t-35.5 -148q24 48 77.5 81t113.5 33q85 0 126.5 -47t41.5 -127q0 -119 -65 -196.5t-180 -77.5q-92 0 -137.5 61.5t-45.5 175.5q0 63 9.5 124.5t34 123t60.5 108t94 75.5t131 29q90 0 153 -39zM241 45
q63 0 105.5 32t59 78t16.5 102q0 55 -28.5 88t-86.5 33q-60 0 -110 -36.5t-78 -88.5q-5 -55 2 -98.5t37 -76.5t83 -33z" />
    <glyph glyph-name="seven.osf" horiz-adv-x="467" 
d="M59 -100l349 623h-272l-22 -125h-56l31 178h410l-12 -49q-28 -30 -86 -135l-271 -492h-71z" />
    <glyph glyph-name="eight.osf" horiz-adv-x="553" 
d="M525 531q0 -126 -136 -195q92 -47 92 -141q0 -93 -66.5 -149.5t-178.5 -56.5q-95 0 -149.5 42t-54.5 118q0 136 154 208q-78 41 -78 130q0 81 60.5 139.5t170.5 58.5q92 0 139 -43t47 -111zM235 336q-66 -35 -102.5 -74.5t-36.5 -103.5q0 -54 36 -84t106 -30
q88 0 133.5 40t45.5 105q0 78 -80 108zM172 490q0 -67 67 -94l96 -37q128 61 128 165q0 107 -128 107q-83 0 -123 -40.5t-40 -100.5z" />
    <glyph glyph-name="nine.osf" horiz-adv-x="538" 
d="M4 -72l30 52q59 -36 132 -36q57 0 103.5 26.5t76 71t47.5 98t23 112.5q-23 -48 -76.5 -81t-114.5 -33q-84 0 -125.5 47t-41.5 127q0 119 65 196.5t180 77.5q92 0 137 -61.5t45 -175.5q0 -63 -9.5 -124.5t-33.5 -123t-60 -108t-94 -75.5t-131 -29q-90 0 -153 39zM300 530
q-63 0 -105.5 -32t-59 -78t-16.5 -102q0 -55 28.5 -88t86.5 -33q60 0 110 36.5t78 88.5q5 55 -2 98.5t-37 76.5t-83 33z" />
    <glyph glyph-name="zero.denom" horiz-adv-x="344" 
d="M67 121q0 -82 63 -82q51 0 80 52t29 130q0 83 -63 83q-47 0 -78 -53t-31 -130zM293 225q0 -97 -44.5 -164t-127.5 -67q-52 0 -80 33t-28 90q0 97 46.5 165t124.5 68q52 0 80.5 -33t28.5 -92z" />
    <glyph glyph-name="one.denom" horiz-adv-x="262" 
d="M-17 0l9 45h90l44 249l-86 -30l-4 41l104 40h46l-53 -300h76l-7 -45h-219z" />
    <glyph glyph-name="two.denom" horiz-adv-x="311" 
d="M83 229l-50 -4q-1 6 -1 13q0 46 37.5 79t93.5 33q50 0 75 -23.5t25 -59.5q0 -41 -25.5 -74t-83.5 -78q-15 -11 -36.5 -28.5t-35.5 -28.5t-17 -13h126l8 41h43l-16 -86h-239l7 39q21 14 122 97q44 36 57.5 48.5t25 32t11.5 42.5q0 47 -54 47q-34 0 -53.5 -19t-19.5 -49v-9
z" />
    <glyph glyph-name="three.denom" horiz-adv-x="309" 
d="M77 252h-39l8 66q52 32 108 32q52 0 77.5 -23.5t25.5 -58.5q0 -39 -22.5 -62.5t-55.5 -31.5q26 -5 42.5 -23t16.5 -47q0 -50 -36.5 -80t-105.5 -30q-75 0 -110 38l30 38q31 -31 84 -31q86 0 86 65q0 45 -74 45h-39l7 44h37q39 0 63 17.5t24 49.5q0 45 -57 45
q-31 0 -63 -14z" />
    <glyph glyph-name="four.denom" horiz-adv-x="317" 
d="M268 116l-8 -42h-55l-14 -74h-49l12 74h-174l8 38l164 179l43 54h57l-40 -229h56zM48 115l114 1l27 154z" />
    <glyph glyph-name="five.denom" horiz-adv-x="306" 
d="M-11 23l16 74h43l-8 -47q24 -11 58 -11q43 0 68 22.5t25 61.5q0 52 -65 52q-39 0 -80 -18l-20 5l56 183h191l-9 -45h-149l-29 -93q26 14 67 14q44 0 67.5 -24t23.5 -63q0 -62 -41 -101t-113 -39q-61 0 -101 29z" />
    <glyph glyph-name="six.denom" horiz-adv-x="328" 
d="M194 305q-53 0 -86 -33t-40 -89q14 19 43.5 32t63.5 13q42 0 66.5 -27t24.5 -70q0 -58 -38.5 -97.5t-104.5 -39.5q-55 0 -81.5 36t-26.5 97q0 42 10 79.5t31 71t59 53t88 19.5t91 -25l-26 -43q-35 23 -74 23zM130 39q41 0 62 25t21 60q0 55 -57 55q-58 0 -89 -46
q-4 -40 10 -67t53 -27z" />
    <glyph glyph-name="seven.denom" horiz-adv-x="278" 
d="M19 0l187 303h-130l-11 -63h-47l19 105h239l-7 -36q-18 -21 -53 -77l-138 -232h-59z" />
    <glyph glyph-name="eight.denom" horiz-adv-x="330" 
d="M280 270q0 -59 -66 -94q46 -22 46 -72t-40 -80t-106 -30q-53 0 -82.5 22t-29.5 61q0 33 21.5 59t51.5 39q-35 21 -35 67q0 45 37 76.5t99 31.5q51 0 77.5 -22.5t26.5 -57.5zM167 141l-56 19q-57 -32 -57 -72q0 -22 18 -35.5t53 -13.5q41 0 61.5 16.5t20.5 42.5
q0 29 -40 43zM92 250q0 -27 35 -41l46 -17q57 28 57 68q0 20 -16 33.5t-48 13.5q-37 0 -55.5 -16t-18.5 -41z" />
    <glyph glyph-name="nine.denom" horiz-adv-x="328" 
d="M96 39q53 0 86.5 34t36.5 90q-15 -20 -43 -33.5t-61 -13.5q-42 0 -66.5 26.5t-24.5 66.5q0 61 38.5 101t104.5 40q55 0 81.5 -35.5t26.5 -93.5q0 -44 -9 -82t-29.5 -72t-58.5 -53.5t-91 -19.5q-50 0 -91 25l26 42q36 -22 74 -22zM160 305q-41 0 -62 -25t-21 -62
q0 -53 57 -53q55 0 88 48q10 92 -62 92z" />
    <glyph glyph-name="zero.num" horiz-adv-x="344" 
d="M126 452q0 -82 63 -82q51 0 80 52t29 130q0 83 -63 83q-47 0 -78 -53t-31 -130zM352 556q0 -97 -44.5 -164t-127.5 -67q-52 0 -80 33t-28 90q0 97 46.5 165t124.5 68q52 0 80.5 -33t28.5 -92z" />
    <glyph glyph-name="one.num" horiz-adv-x="264" 
d="M43 331l8 45h91l43 249l-85 -30l-5 41l105 40h45l-52 -300h76l-8 -45h-218z" />
    <glyph glyph-name="two.num" horiz-adv-x="311" 
d="M142 560l-51 -4q-1 6 -1 13q0 47 37 79.5t93 32.5q50 0 76 -23t26 -60q0 -40 -21.5 -70t-64.5 -64l-112 -88h126l7 41h43l-15 -86h-239l7 39q7 5 122 97q58 48 75.5 69.5t17.5 54.5q0 46 -54 46q-34 0 -53.5 -19t-19.5 -49q0 -5 1 -9z" />
    <glyph glyph-name="three.num" horiz-adv-x="307" 
d="M136 583h-39l8 66q49 32 108 32q52 0 77.5 -23t25.5 -58q0 -39 -22.5 -62.5t-55.5 -31.5q26 -6 42.5 -24t16.5 -47q0 -50 -36.5 -80t-105.5 -30q-74 0 -110 38l30 39q30 -32 84 -32q86 0 86 66q0 44 -74 44h-39l7 45h37q39 0 63 17t24 49q0 45 -57 45q-35 0 -63 -14z" />
    <glyph glyph-name="four.num" horiz-adv-x="318" 
d="M327 447l-8 -42h-55l-14 -74h-49l12 74h-174l8 38l164 179l43 54h57l-40 -229h56zM107 446l114 1l27 154z" />
    <glyph glyph-name="five.num" horiz-adv-x="305" 
d="M47 354l16 74h43l-8 -47q24 -11 58 -11q43 0 68 22.5t25 61.5q0 52 -65 52q-39 0 -80 -18l-20 5l56 183h191l-9 -45h-149l-29 -93q26 14 67 14q44 0 67.5 -24t23.5 -63q0 -62 -41 -101t-113 -39q-61 0 -101 29z" />
    <glyph glyph-name="six.num" horiz-adv-x="329" 
d="M253 636q-53 0 -86 -33t-40 -89q14 19 43.5 32t63.5 13q42 0 66.5 -27t24.5 -70q0 -58 -38.5 -97.5t-104.5 -39.5q-55 0 -81.5 36t-26.5 97q0 42 10 79.5t31 71t59 53t88 19.5t91 -25l-26 -43q-35 23 -74 23zM189 370q41 0 62 25t21 60q0 55 -57 55q-58 0 -89 -46
q-4 -40 10 -67t53 -27z" />
    <glyph glyph-name="seven.num" horiz-adv-x="278" 
d="M78 331l187 303h-130l-11 -63h-47l19 105h239l-7 -36q-18 -21 -53 -77l-138 -232h-59z" />
    <glyph glyph-name="eight.num" horiz-adv-x="330" 
d="M339 601q0 -59 -66 -94q46 -22 46 -72t-40 -80t-106 -30q-53 0 -82.5 22t-29.5 61q0 33 21.5 59t51.5 39q-35 21 -35 67q0 45 37 76.5t99 31.5q51 0 77.5 -22.5t26.5 -57.5zM226 472l-56 19q-57 -32 -57 -72q0 -22 18 -35.5t53 -13.5q41 0 61.5 16.5t20.5 42.5
q0 29 -40 43zM151 581q0 -27 35 -41l46 -17q57 29 57 68q0 20 -16 33.5t-48 13.5q-37 0 -55.5 -16t-18.5 -41z" />
    <glyph glyph-name="nine.num" horiz-adv-x="328" 
d="M155 370q53 0 86.5 34t36.5 90q-15 -20 -43 -33.5t-61 -13.5q-42 0 -66.5 26.5t-24.5 66.5q0 61 38.5 101t104.5 40q55 0 81.5 -35.5t26.5 -93.5q0 -44 -9 -82t-29.5 -72t-58.5 -53.5t-91 -19.5q-50 0 -91 25l26 42q36 -22 74 -22zM219 636q-41 0 -62 -25t-21 -62
q0 -53 57 -53q55 0 88 48q10 92 -62 92z" />
    <glyph glyph-name="parenleft.case" horiz-adv-x="261" 
d="M166 -106l-48 -16q-64 154 -64 322q0 104 16 189.5t51 160t69 126.5t91 127l44 -20q-54 -78 -85 -129.5t-63.5 -124t-47 -152.5t-14.5 -176q0 -156 51 -307z" />
    <glyph glyph-name="parenright.case" horiz-adv-x="261" 
d="M-40 -103q117 170 162.5 293.5t45.5 288.5q0 154 -52 308l49 16q64 -155 64 -321q0 -184 -52 -314t-175 -290z" />
    <glyph glyph-name="hyphen.case" 
d="M126 358h324v-57h-324v57z" />
    <glyph glyph-name="bracketleft.case" horiz-adv-x="288" 
d="M174 796h177l-10 -54h-118l-141 -804h117l-9 -54h-176z" />
    <glyph glyph-name="bracketright.case" horiz-adv-x="288" 
d="M120 796h177l-161 -912h-177l10 54h117l142 804h-117z" />
    <glyph glyph-name="braceleft.case" horiz-adv-x="281" 
d="M43 366q45 0 68 17t31 62l38 216q12 74 49 104.5t106 30.5l-9 -52q-39 -2 -59.5 -19t-28.5 -67l-38 -217q-15 -85 -89 -101q23 -4 42 -29t11 -73l-39 -218q-8 -49 5.5 -65.5t52.5 -18.5l-9 -52q-68 0 -94 30.5t-13 104.5l37 215q8 45 -11 62.5t-59 17.5z" />
    <glyph glyph-name="bar.case" horiz-adv-x="257" 
d="M162 -116h-47v912h47v-912z" />
    <glyph glyph-name="braceright.case" horiz-adv-x="281" 
d="M269 366l-9 -52q-41 0 -65.5 -17.5t-32.5 -62.5l-39 -215q-12 -74 -49.5 -104.5t-105.5 -30.5l9 52q39 2 59 18.5t28 65.5l39 218q9 48 36.5 73t52.5 29q-67 15 -53 101l38 217q9 50 -5 67t-53 19l9 52q69 0 95.5 -30.5t12.5 -104.5l-38 -216q-8 -45 9 -62t62 -17z" />
    <glyph glyph-name="guilsinglleft.case" horiz-adv-x="301" 
d="M54 330l201 207l33 -37l-158 -173l97 -172l-44 -32z" />
    <glyph glyph-name="guilsinglright.case" horiz-adv-x="302" 
d="M137 537l129 -207l-202 -207l-33 36l159 173l-98 173z" />
    <glyph glyph-name="guillemotleft.case" horiz-adv-x="473" 
d="M54 330l201 207l33 -37l-158 -173l97 -172l-44 -32zM226 330l201 207l33 -37l-159 -173l98 -172l-45 -32z" />
    <glyph glyph-name="guillemotright.case" horiz-adv-x="474" 
d="M309 537l129 -207l-202 -207l-33 36l158 173l-97 173zM137 537l129 -207l-202 -207l-33 36l159 173l-98 173z" />
    <glyph glyph-name="endash.case" horiz-adv-x="585" 
d="M78 358h444v-57h-444v57z" />
    <glyph glyph-name="emdash.case" horiz-adv-x="725" 
d="M78 358h584v-57h-584v57z" />
    <glyph glyph-name="bullet.case" 
d="M287 233q-43 0 -71 27t-28 69t28 69.5t71 27.5q44 0 72 -27.5t28 -69.5t-28 -69t-72 -27z" />
    <glyph glyph-name="periodcentered.case" horiz-adv-x="221" 
d="M118 319q-19 0 -32 13t-13 31q0 24 17 40t41 16q19 0 31.5 -13t12.5 -31q0 -24 -16.5 -40t-40.5 -16z" />
    <glyph glyph-name="R.alt" horiz-adv-x="623" 
d="M87 54l100 568h-75l9 54h270q187 0 187 -156q0 -89 -52 -140t-146 -63l113 -263h82l-10 -54h-215l10 54h69l-109 258h-129l-46 -258h86l-10 -54h-218l10 54h74zM515 521q0 101 -128 101h-142l-45 -256h133q182 0 182 155z" />
    <glyph glyph-name="Racute.alt" horiz-adv-x="623" 
d="M87 54l100 568h-75l9 54h270q187 0 187 -156q0 -89 -52 -140t-146 -63l113 -263h82l-10 -54h-215l10 54h69l-109 258h-129l-46 -258h86l-10 -54h-218l10 54h74zM515 521q0 101 -128 101h-142l-45 -256h133q182 0 182 155zM424 899h69l-111 -151h-60z" />
    <glyph glyph-name="Rcaron.alt" horiz-adv-x="623" 
d="M87 54l100 568h-75l9 54h270q187 0 187 -156q0 -89 -52 -140t-146 -63l113 -263h82l-10 -54h-215l10 54h69l-109 258h-129l-46 -258h86l-10 -54h-218l10 54h74zM515 521q0 101 -128 101h-142l-45 -256h133q182 0 182 155zM394 748h-73l-64 151h54l50 -113l93 113h60z" />
    <glyph glyph-name="r_alt.sc" horiz-adv-x="532" 
d="M73 51l73 406h-60l9 50h223q151 0 151 -121q0 -129 -154 -151l78 -184h62l-8 -51h-181l9 51h55l-73 179h-96l-30 -179h64l-9 -51h-181l10 51h58zM408 383q0 74 -96 74h-109l-33 -178h104q134 0 134 104z" />
    <glyph glyph-name="racute_alt.sc" horiz-adv-x="523" 
d="M73 51l73 406h-60l9 50h223q151 0 151 -121q0 -129 -154 -151l78 -184h62l-8 -51h-181l9 51h55l-73 179h-96l-30 -179h64l-9 -51h-181l10 51h58zM408 383q0 74 -96 74h-109l-33 -178h104q134 0 134 104zM363 726h69l-111 -151h-60z" />
    <glyph glyph-name="rcaron_alt.sc" horiz-adv-x="523" 
d="M73 51l73 406h-60l9 50h223q151 0 151 -121q0 -129 -154 -151l78 -184h62l-8 -51h-181l9 51h55l-73 179h-96l-30 -179h64l-9 -51h-181l10 51h58zM408 383q0 74 -96 74h-109l-33 -178h104q134 0 134 104zM325 575h-73l-64 151h55l50 -113l92 113h61z" />
    <glyph glyph-name="rcommaaccent_alt.sc" horiz-adv-x="524" 
d="M73 51l73 406h-60l9 50h223q151 0 151 -121q0 -129 -154 -151l78 -184h62l-8 -51h-181l9 51h55l-73 179h-96l-30 -179h64l-9 -51h-181l10 51h58zM408 383q0 74 -96 74h-109l-33 -178h104q134 0 134 104zM247 -71l-69 -145h-48l49 145h68z" />
    <glyph glyph-name="brokenbar.sc" horiz-adv-x="260" 
d="M144 290h-42v292h42v-292zM102 188h42v-290h-42v290z" />
    <glyph glyph-name="Q.alt" horiz-adv-x="651" 
d="M608 457q0 -221 -101 -352l75 -73l-40 -43l-75 74q-82 -74 -195 -74q-105 0 -158 64.5t-53 165.5q0 86 20 166t58.5 149t105 110.5t151.5 41.5q107 0 159.5 -64t52.5 -165zM331 197l38 42l94 -92q81 111 81 308q0 78 -38 126.5t-113 48.5q-66 0 -118.5 -35t-84.5 -93.5
t-48.5 -131t-16.5 -151.5q0 -78 37.5 -126t114.5 -48q85 0 149 58z" />
    <glyph glyph-name="q_alt.sc" horiz-adv-x="562" 
d="M489 326q0 -159 -70 -247l53 -47l-35 -40l-56 50q-61 -50 -154 -50q-91 0 -134.5 52t-43.5 136q0 145 68.5 240t194.5 95q92 0 134.5 -52t42.5 -137zM258 154l33 38l83 -74q53 72 53 205q0 138 -121 138q-87 0 -140.5 -76t-53.5 -202q0 -137 121 -137q63 0 106 34z" />
    <glyph glyph-name="Rcommaaccent.alt" horiz-adv-x="621" 
d="M87 54l100 568h-75l9 54h270q187 0 187 -156q0 -89 -52 -140t-146 -63l113 -263h82l-10 -54h-215l10 54h69l-109 258h-129l-46 -258h86l-10 -54h-218l10 54h74zM515 521q0 101 -128 101h-142l-45 -256h133q182 0 182 155zM303 -71l-69 -145h-48l49 145h68z" />
    </font>
</defs>
</svg>
